SplineFontDB: 3.0
FontName: Merriweather-Black
FullName: Merriweather Black
FamilyName: Merriweather
Weight: Black
Copyright: Copyright (c) 2010 by Eben Sorkin (eben@eyebytes.com),with Reserved Font Name Merriweather.This Font Software is licensed under the SIL Open Font License, Version 1.1.This license is copied below, and is also available with a FAQ at:http://scripts.sil.org/OFL
Version: 1.286
ItalicAngle: 0
UnderlinePosition: -72
UnderlineWidth: 120
Ascent: 1638
Descent: 410
LayerCount: 2
Layer: 0 1 "Back"  1
Layer: 1 1 "Fore"  0
XUID: [1021 631 1661839179 11497768]
FSType: 0
OS2Version: 3
OS2_WeightWidthSlopeOnly: 0
OS2_UseTypoMetrics: 1
CreationTime: 1303520940
ModificationTime: 1303517323
PfmFamily: 17
TTFWeight: 900
TTFWidth: 5
LineGap: 0
VLineGap: 0
Panose: 2 6 5 3 5 4 6 3 7 4
OS2TypoAscent: 382
OS2TypoAOffset: 1
OS2TypoDescent: -130
OS2TypoDOffset: 1
OS2TypoLinegap: 0
OS2WinAscent: -2
OS2WinAOffset: 1
OS2WinDescent: -27
OS2WinDOffset: 1
HheadAscent: -2
HheadAOffset: 1
HheadDescent: 27
HheadDOffset: 1
OS2SubXSize: 1434
OS2SubYSize: 1331
OS2SubXOff: 0
OS2SubYOff: 287
OS2SupXSize: 1434
OS2SupYSize: 1331
OS2SupXOff: 0
OS2SupYOff: 977
OS2StrikeYSize: 85
OS2StrikeYPos: 520
OS2FamilyClass: 768
OS2Vendor: 'eye '
OS2CodePages: 00000001.00000000
OS2UnicodeRanges: 800000a7.50000000.00000000.00000000
Lookup: 4 0 0 "'dlig' Discretionary Ligatures in Latin lookup 0"  {"'dlig' Discretionary Ligatures in Latin lookup 0 subtable"  } ['dlig' ('latn' <'dflt' > ) ]
Lookup: 258 0 0 "'kern' Horizontal Kerning in Latin lookup 0"  {"'kern' Horizontal Kerning in Latin lookup 0 subtable"  } ['kern' ('latn' <'dflt' > ) ]
DEI: 91125
TtTable: prep
PUSHW_1
 511
SCANCTRL
PUSHB_1
 4
SCANTYPE
EndTTInstrs
ShortTable: maxp 16
  1
  0
  273
  124
  5
  0
  0
  1
  0
  0
  0
  0
  0
  0
  0
  0
EndShort

StartChar: .notdef
Encoding: 65536 -1 0
Width: 1259
Flags: W
LayerCount: 2
Fore
SplineSet
39 1330 m 1,0,-1
 1222 1330 l 1,1,-1
 1222 210 l 1,2,-1
 39 210 l 1,3,-1
 39 1330 l 1,0,-1
632 670 m 1,4,-1
 944 367 l 1,5,-1
 1063 480 l 1,6,-1
 740 773 l 1,7,-1
 1063 1057 l 1,8,-1
 938 1173 l 1,9,-1
 635 872 l 1,10,-1
 329 1174 l 1,11,-1
 207 1058 l 1,12,-1
 526 770 l 1,13,-1
 208 502 l 1,14,-1
 335 367 l 1,15,-1
 632 670 l 1,4,-1
EndSplineSet
EndChar

StartChar: quotesingle
Encoding: 39 39 14
Width: 846
Flags: W
LayerCount: 2
Fore
SplineSet
230 1782 m 1,0,-1
 615 1782 l 1,1,-1
 520 1036 l 1,2,-1
 325 1036 l 1,3,-1
 230 1782 l 1,0,-1
EndSplineSet
EndChar

StartChar: quotedbl
Encoding: 34 34 15
Width: 1201
Flags: W
LayerCount: 2
Fore
SplineSet
682 1782 m 1,0,-1
 1067 1782 l 1,1,-1
 972 1036 l 1,2,-1
 777 1036 l 1,3,-1
 682 1782 l 1,0,-1
134 1782 m 1,4,-1
 519 1782 l 1,5,-1
 424 1036 l 1,6,-1
 229 1036 l 1,7,-1
 134 1782 l 1,4,-1
EndSplineSet
EndChar

StartChar: quotesinglbase
Encoding: 8218 8218 16
Width: 870
Flags: W
LayerCount: 2
Fore
SplineSet
140 152 m 1,0,-1
 372 440 l 1,1,2
 449 413 449 413 500.5 361.5 c 128,-1,3
 552 310 552 310 583.5 248.5 c 128,-1,4
 615 187 615 187 627.5 123 c 128,-1,5
 640 59 640 59 639 9 c 0,6,7
 637 -68 637 -68 617 -134 c 128,-1,8
 597 -200 597 -200 564.5 -255.5 c 128,-1,9
 532 -311 532 -311 489 -356 c 128,-1,10
 446 -401 446 -401 399 -436.5 c 128,-1,11
 352 -472 352 -472 302.5 -497.5 c 128,-1,12
 253 -523 253 -523 208 -540 c 1,13,-1
 104 -447 l 1,14,-1
 104 -404 l 1,15,16
 135 -392 135 -392 169 -365 c 128,-1,17
 203 -338 203 -338 232 -300 c 128,-1,18
 261 -262 261 -262 280 -216.5 c 128,-1,19
 299 -171 299 -171 299 -123 c 0,20,21
 299 -89 299 -89 285.5 -54.5 c 128,-1,22
 272 -20 272 -20 250 7.5 c 128,-1,23
 228 35 228 35 199.5 53.5 c 128,-1,24
 171 72 171 72 140 75 c 1,25,-1
 140 152 l 1,0,-1
EndSplineSet
EndChar

StartChar: quoteleft
Encoding: 8216 8216 17
Width: 870
Flags: W
LayerCount: 2
Fore
SplineSet
497 760 m 1,0,1
 420 787 420 787 368.5 839 c 128,-1,2
 317 891 317 891 286 952.5 c 128,-1,3
 255 1014 255 1014 242.5 1078 c 128,-1,4
 230 1142 230 1142 231 1192 c 0,5,6
 233 1269 233 1269 253 1337.5 c 128,-1,7
 273 1406 273 1406 305.5 1465 c 128,-1,8
 338 1524 338 1524 380.5 1572.5 c 128,-1,9
 423 1621 423 1621 470.5 1660 c 128,-1,10
 518 1699 518 1699 567.5 1726.5 c 128,-1,11
 617 1754 617 1754 663 1771 c 1,12,-1
 766 1678 l 1,13,-1
 766 1635 l 1,14,15
 736 1623 736 1623 701.5 1591 c 128,-1,16
 667 1559 667 1559 638 1515.5 c 128,-1,17
 609 1472 609 1472 590 1422 c 128,-1,18
 571 1372 571 1372 571 1324 c 0,19,20
 571 1290 571 1290 584 1256 c 128,-1,21
 597 1222 597 1222 619 1194 c 128,-1,22
 641 1166 641 1166 669.5 1147.5 c 128,-1,23
 698 1129 698 1129 729 1126 c 1,24,-1
 729 1048 l 1,25,-1
 497 760 l 1,26,-1
 497 760 l 1,0,1
EndSplineSet
EndChar

StartChar: quoteright
Encoding: 8217 8217 18
Width: 870
Flags: W
LayerCount: 2
Fore
SplineSet
104 855 m 1,0,-1
 104 898 l 1,1,2
 135 910 135 910 169.5 942 c 128,-1,3
 204 974 204 974 233 1017.5 c 128,-1,4
 262 1061 262 1061 281 1111 c 128,-1,5
 300 1161 300 1161 300 1209 c 0,6,7
 300 1243 300 1243 286.5 1277 c 128,-1,8
 273 1311 273 1311 250.5 1339 c 128,-1,9
 228 1367 228 1367 199.5 1385.5 c 128,-1,10
 171 1404 171 1404 140 1407 c 1,11,-1
 140 1484 l 1,12,-1
 372 1773 l 1,13,14
 449 1746 449 1746 500.5 1694 c 128,-1,15
 552 1642 552 1642 583.5 1580.5 c 128,-1,16
 615 1519 615 1519 627.5 1455.5 c 128,-1,17
 640 1392 640 1392 639 1342 c 0,18,19
 636 1226 636 1226 594 1130 c 128,-1,20
 552 1034 552 1034 489 961 c 128,-1,21
 426 888 426 888 351 838 c 128,-1,22
 276 788 276 788 208 763 c 1,23,-1
 104 855 l 1,0,-1
EndSplineSet
EndChar

StartChar: quotedblleft
Encoding: 8220 8220 19
Width: 1435
Flags: W
LayerCount: 2
Fore
SplineSet
1061 759 m 1,0,1
 984 786 984 786 932.5 838 c 128,-1,2
 881 890 881 890 849.5 952 c 128,-1,3
 818 1014 818 1014 805.5 1077 c 128,-1,4
 793 1140 793 1140 795 1190 c 0,5,6
 797 1267 797 1267 817 1335.5 c 128,-1,7
 837 1404 837 1404 869.5 1463 c 128,-1,8
 902 1522 902 1522 945 1571 c 128,-1,9
 988 1620 988 1620 1035 1658.5 c 128,-1,10
 1082 1697 1082 1697 1131 1725 c 128,-1,11
 1180 1753 1180 1753 1225 1770 c 1,12,-1
 1331 1676 l 1,13,-1
 1331 1634 l 1,14,15
 1300 1622 1300 1622 1265.5 1590 c 128,-1,16
 1231 1558 1231 1558 1201.5 1514.5 c 128,-1,17
 1172 1471 1172 1471 1153 1421 c 128,-1,18
 1134 1371 1134 1371 1134 1323 c 0,19,20
 1134 1288 1134 1288 1147.5 1254 c 128,-1,21
 1161 1220 1161 1220 1183.5 1192.5 c 128,-1,22
 1206 1165 1206 1165 1234.5 1146.5 c 128,-1,23
 1263 1128 1263 1128 1294 1125 c 1,24,-1
 1294 1048 l 1,25,-1
 1061 759 l 1,0,1
497 759 m 1,26,27
 420 786 420 786 368 838 c 128,-1,28
 316 890 316 890 285 952 c 128,-1,29
 254 1014 254 1014 241.5 1077 c 128,-1,30
 229 1140 229 1140 231 1190 c 0,31,32
 233 1267 233 1267 252.5 1335.5 c 128,-1,33
 272 1404 272 1404 305 1463 c 128,-1,34
 338 1522 338 1522 381 1571 c 128,-1,35
 424 1620 424 1620 471.5 1658.5 c 128,-1,36
 519 1697 519 1697 568 1725 c 128,-1,37
 617 1753 617 1753 662 1770 c 1,38,-1
 767 1676 l 1,39,-1
 767 1634 l 1,40,41
 735 1622 735 1622 700.5 1590 c 128,-1,42
 666 1558 666 1558 637.5 1514.5 c 128,-1,43
 609 1471 609 1471 590 1421 c 128,-1,44
 571 1371 571 1371 571 1323 c 0,45,46
 571 1288 571 1288 584 1254 c 128,-1,47
 597 1220 597 1220 619 1192.5 c 128,-1,48
 641 1165 641 1165 669.5 1146.5 c 128,-1,49
 698 1128 698 1128 729 1125 c 1,50,-1
 729 1048 l 1,51,-1
 497 759 l 1,26,27
EndSplineSet
EndChar

StartChar: quotedblright
Encoding: 8221 8221 20
Width: 1436
Flags: W
LayerCount: 2
Fore
SplineSet
667 894 m 1,0,1
 699 906 699 906 733.5 938 c 128,-1,2
 768 970 768 970 797 1013.5 c 128,-1,3
 826 1057 826 1057 845 1107 c 128,-1,4
 864 1157 864 1157 864 1205 c 0,5,6
 864 1239 864 1239 851 1273 c 128,-1,7
 838 1307 838 1307 816 1335 c 128,-1,8
 794 1363 794 1363 765.5 1381.5 c 128,-1,9
 737 1400 737 1400 706 1403 c 1,10,-1
 706 1480 l 1,11,-1
 937 1769 l 1,12,13
 1015 1742 1015 1742 1067 1690 c 128,-1,14
 1119 1638 1119 1638 1150 1576.5 c 128,-1,15
 1181 1515 1181 1515 1193.5 1451.5 c 128,-1,16
 1206 1388 1206 1388 1205 1338 c 0,17,18
 1203 1261 1203 1261 1183 1192.5 c 128,-1,19
 1163 1124 1163 1124 1130.5 1065 c 128,-1,20
 1098 1006 1098 1006 1055 957 c 128,-1,21
 1012 908 1012 908 964.5 869.5 c 128,-1,22
 917 831 917 831 868 803 c 128,-1,23
 819 775 819 775 774 759 c 1,24,-1
 667 851 l 1,25,-1
 667 894 l 1,0,1
104 851 m 1,26,-1
 104 894 l 1,27,28
 135 906 135 906 169.5 938 c 128,-1,29
 204 970 204 970 233.5 1013.5 c 128,-1,30
 263 1057 263 1057 282 1107 c 128,-1,31
 301 1157 301 1157 301 1205 c 0,32,33
 301 1239 301 1239 287.5 1273 c 128,-1,34
 274 1307 274 1307 251.5 1335 c 128,-1,35
 229 1363 229 1363 200.5 1381.5 c 128,-1,36
 172 1400 172 1400 141 1403 c 1,37,-1
 141 1480 l 1,38,-1
 373 1769 l 1,39,40
 450 1742 450 1742 502 1690 c 128,-1,41
 554 1638 554 1638 585.5 1576.5 c 128,-1,42
 617 1515 617 1515 629.5 1451.5 c 128,-1,43
 642 1388 642 1388 640 1338 c 0,44,45
 638 1261 638 1261 618 1192.5 c 128,-1,46
 598 1124 598 1124 565.5 1065 c 128,-1,47
 533 1006 533 1006 490 957 c 128,-1,48
 447 908 447 908 400 869.5 c 128,-1,49
 353 831 353 831 304 803 c 128,-1,50
 255 775 255 775 210 759 c 1,51,-1
 104 851 l 1,26,-1
EndSplineSet
EndChar

StartChar: quotedblbase
Encoding: 8222 8222 21
Width: 1436
Flags: W
LayerCount: 2
Fore
SplineSet
707 155 m 1,0,-1
 939 444 l 1,1,2
 1016 417 1016 417 1068 365 c 128,-1,3
 1120 313 1120 313 1151 251 c 128,-1,4
 1182 189 1182 189 1194.5 125.5 c 128,-1,5
 1207 62 1207 62 1205 12 c 0,6,7
 1203 -65 1203 -65 1183.5 -133.5 c 128,-1,8
 1164 -202 1164 -202 1131 -260.5 c 128,-1,9
 1098 -319 1098 -319 1055 -368 c 128,-1,10
 1012 -417 1012 -417 964.5 -455.5 c 128,-1,11
 917 -494 917 -494 868 -522 c 128,-1,12
 819 -550 819 -550 774 -567 c 1,13,-1
 668 -473 l 1,14,-1
 668 -431 l 1,15,16
 700 -419 700 -419 734.5 -387.5 c 128,-1,17
 769 -356 769 -356 798 -312.5 c 128,-1,18
 827 -269 827 -269 846 -219 c 128,-1,19
 865 -169 865 -169 865 -121 c 0,20,21
 865 -87 865 -87 851.5 -52.5 c 128,-1,22
 838 -18 838 -18 816 10 c 128,-1,23
 794 38 794 38 765.5 56.5 c 128,-1,24
 737 75 737 75 707 78 c 1,25,-1
 707 155 l 1,0,-1
142 155 m 1,26,-1
 375 444 l 1,27,28
 451 417 451 417 503 365 c 128,-1,29
 555 313 555 313 586.5 251 c 128,-1,30
 618 189 618 189 630.5 125.5 c 128,-1,31
 643 62 643 62 641 12 c 0,32,33
 639 -65 639 -65 619 -133.5 c 128,-1,34
 599 -202 599 -202 566.5 -260.5 c 128,-1,35
 534 -319 534 -319 491 -368 c 128,-1,36
 448 -417 448 -417 401 -455.5 c 128,-1,37
 354 -494 354 -494 305 -522 c 128,-1,38
 256 -550 256 -550 211 -567 c 1,39,-1
 104 -473 l 1,40,-1
 104 -431 l 1,41,42
 135 -419 135 -419 170 -387.5 c 128,-1,43
 205 -356 205 -356 234 -312.5 c 128,-1,44
 263 -269 263 -269 282 -219 c 128,-1,45
 301 -169 301 -169 301 -121 c 0,46,47
 301 -87 301 -87 287.5 -52.5 c 128,-1,48
 274 -18 274 -18 252 10 c 128,-1,49
 230 38 230 38 201.5 56.5 c 128,-1,50
 173 75 173 75 142 78 c 1,51,-1
 142 155 l 1,26,-1
EndSplineSet
EndChar

StartChar: guilsinglright
Encoding: 8250 8250 22
Width: 1277
Flags: W
LayerCount: 2
Fore
SplineSet
789 623 m 1,0,-1
 239 990 l 1,1,-1
 325 1137 l 1,2,-1
 1051 843 l 1,3,-1
 1051 418 l 1,4,-1
 313 101 l 1,5,-1
 226 237 l 1,6,-1
 789 623 l 1,0,-1
EndSplineSet
EndChar

StartChar: guilsinglleft
Encoding: 8249 8249 23
Width: 1277
Flags: W
LayerCount: 2
Fore
SplineSet
226 820 m 1,0,-1
 965 1137 l 1,1,-1
 1051 1001 l 1,2,-1
 487 615 l 1,3,-1
 1039 248 l 1,4,-1
 952 101 l 1,5,-1
 226 395 l 1,6,-1
 226 820 l 1,0,-1
EndSplineSet
EndChar

StartChar: guillemotright
Encoding: 187 187 24
Width: 2149
Flags: W
LayerCount: 2
Fore
SplineSet
1661 623 m 1,0,-1
 1111 990 l 1,1,-1
 1197 1137 l 1,2,-1
 1923 843 l 1,3,-1
 1923 418 l 1,4,-1
 1185 101 l 1,5,-1
 1098 237 l 1,6,-1
 1661 623 l 1,0,-1
789 623 m 1,7,-1
 239 990 l 1,8,-1
 325 1137 l 1,9,-1
 1051 843 l 1,10,-1
 1051 418 l 1,11,-1
 313 101 l 1,12,-1
 226 237 l 1,13,-1
 789 623 l 1,7,-1
EndSplineSet
EndChar

StartChar: guillemotleft
Encoding: 171 171 25
Width: 2149
Flags: W
LayerCount: 2
Fore
SplineSet
1098 820 m 1,0,-1
 1836 1137 l 1,1,-1
 1923 1001 l 1,2,-1
 1359 615 l 1,3,-1
 1910 248 l 1,4,-1
 1824 101 l 1,5,-1
 1098 395 l 1,6,-1
 1098 820 l 1,0,-1
226 820 m 1,7,-1
 964 1137 l 1,8,-1
 1051 1001 l 1,9,-1
 487 615 l 1,10,-1
 1038 248 l 1,11,-1
 952 101 l 1,12,-1
 226 395 l 1,13,-1
 226 820 l 1,7,-1
EndSplineSet
EndChar

StartChar: dagger
Encoding: 8224 8224 26
Width: 951
Flags: W
LayerCount: 2
Fore
SplineSet
321 945 m 1,0,-1
 369 1105 l 1,1,-1
 71 1076 l 1,2,3
 71 1139 71 1139 71.5 1201 c 128,-1,4
 72 1263 72 1263 72 1326 c 1,5,-1
 371 1287 l 1,6,-1
 308 1557 l 1,7,-1
 308 1648 l 1,8,-1
 657 1648 l 1,9,-1
 657 1557 l 1,10,11
 652 1540 652 1540 648.5 1523 c 128,-1,12
 645 1506 645 1506 641 1489 c 2,13,-1
 592 1287 l 1,14,-1
 879 1326 l 1,15,16
 879 1263 879 1263 879.5 1201 c 128,-1,17
 880 1139 880 1139 880 1076 c 1,18,-1
 591 1105 l 1,19,-1
 639 945 l 1,20,-1
 562 283 l 1,21,-1
 405 283 l 1,22,-1
 321 945 l 1,0,-1
EndSplineSet
EndChar

StartChar: double
Encoding: 65539 -1 27
Width: 947
Flags: W
LayerCount: 2
Fore
SplineSet
368 499 m 1,0,-1
 71 470 l 1,1,-1
 73 720 l 1,2,-1
 358 691 l 1,3,-1
 321 944 l 1,4,-1
 368 1105 l 1,5,-1
 71 1076 l 1,6,7
 71 1139 71 1139 71.5 1201 c 128,-1,8
 72 1263 72 1263 72 1326 c 1,9,-1
 366 1297 l 1,10,-1
 320 1489 l 1,11,-1
 305 1553 l 1,12,-1
 305 1648 l 1,13,-1
 654 1648 l 1,14,-1
 654 1553 l 1,15,-1
 590 1297 l 1,16,-1
 874 1326 l 1,17,-1
 876 1076 l 1,18,-1
 589 1105 l 1,19,-1
 638 944 l 1,20,-1
 601 691 l 1,21,-1
 874 720 l 1,22,-1
 876 470 l 1,23,-1
 589 499 l 1,24,-1
 614 416 l 2,25,26
 620 395 620 395 626 374 c 128,-1,27
 632 353 632 353 639 333 c 1,28,-1
 560 -295 l 1,29,-1
 401 -295 l 1,30,-1
 321 333 l 1,31,-1
 368 499 l 1,0,-1
EndSplineSet
EndChar

StartChar: parenleft
Encoding: 40 40 28
Width: 949
Flags: W
LayerCount: 2
Fore
SplineSet
132 715 m 0,0,1
 132 860 132 860 164 988.5 c 128,-1,2
 196 1117 196 1117 246 1226 c 128,-1,3
 296 1335 296 1335 357 1423 c 128,-1,4
 418 1511 418 1511 476 1575.5 c 128,-1,5
 534 1640 534 1640 582.5 1680 c 128,-1,6
 631 1720 631 1720 656 1733 c 1,7,-1
 799 1621 l 1,8,9
 768 1600 768 1600 715 1539 c 128,-1,10
 662 1478 662 1478 608.5 1373 c 128,-1,11
 555 1268 555 1268 514 1117 c 128,-1,12
 473 966 473 966 466 764 c 0,13,14
 462 637 462 637 479 520.5 c 128,-1,15
 496 404 496 404 526.5 302 c 128,-1,16
 557 200 557 200 596.5 114.5 c 128,-1,17
 636 29 636 29 676.5 -36.5 c 128,-1,18
 717 -102 717 -102 754.5 -145.5 c 128,-1,19
 792 -189 792 -189 818 -207 c 1,20,-1
 667 -322 l 1,21,22
 642 -308 642 -308 593 -272 c 128,-1,23
 544 -236 544 -236 484.5 -176.5 c 128,-1,24
 425 -117 425 -117 362.5 -32.5 c 128,-1,25
 300 52 300 52 249 162.5 c 128,-1,26
 198 273 198 273 165 411 c 128,-1,27
 132 549 132 549 132 715 c 0,0,1
EndSplineSet
EndChar

StartChar: parenright
Encoding: 41 41 29
Width: 949
Flags: W
LayerCount: 2
Fore
SplineSet
157 -226 m 1,0,1
 172 -212 172 -212 201 -180 c 128,-1,2
 230 -148 230 -148 265 -97.5 c 128,-1,3
 300 -47 300 -47 337.5 23 c 128,-1,4
 375 93 375 93 406 184 c 128,-1,5
 437 275 437 275 458.5 387 c 128,-1,6
 480 499 480 499 483 634 c 0,7,8
 487 780 487 780 466.5 904 c 128,-1,9
 446 1028 446 1028 412.5 1130 c 128,-1,10
 379 1232 379 1232 337 1312 c 128,-1,11
 295 1392 295 1392 255 1451 c 128,-1,12
 215 1510 215 1510 181.5 1548.5 c 128,-1,13
 148 1587 148 1587 131 1605 c 1,14,-1
 293 1733 l 1,15,16
 318 1719 318 1719 366.5 1682 c 128,-1,17
 415 1645 415 1645 473 1584 c 128,-1,18
 531 1523 531 1523 592 1437 c 128,-1,19
 653 1351 653 1351 703 1238.5 c 128,-1,20
 753 1126 753 1126 785 987.5 c 128,-1,21
 817 849 817 849 817 683 c 0,22,23
 817 538 817 538 785.5 410.5 c 128,-1,24
 754 283 754 283 705 175.5 c 128,-1,25
 656 68 656 68 596 -18.5 c 128,-1,26
 536 -105 536 -105 478.5 -168 c 128,-1,27
 421 -231 421 -231 373.5 -270 c 128,-1,28
 326 -309 326 -309 301 -322 c 1,29,-1
 157 -226 l 1,30,-1
 157 -226 l 1,0,1
EndSplineSet
EndChar

StartChar: braceleft
Encoding: 123 123 30
Width: 1127
Flags: W
LayerCount: 2
Fore
SplineSet
256 559 m 2,0,1
 256 583 256 583 241.5 603 c 128,-1,2
 227 623 227 623 202.5 637.5 c 128,-1,3
 178 652 178 652 146 661 c 128,-1,4
 114 670 114 670 79 673 c 1,5,-1
 79 894 l 1,6,7
 117 898 117 898 149.5 905 c 128,-1,8
 182 912 182 912 205.5 923.5 c 128,-1,9
 229 935 229 935 242.5 953 c 128,-1,10
 256 971 256 971 256 999 c 2,11,-1
 256 1558 l 2,12,13
 256 1632 256 1632 277.5 1680 c 128,-1,14
 299 1728 299 1728 336.5 1756.5 c 128,-1,15
 374 1785 374 1785 424 1796 c 128,-1,16
 474 1807 474 1807 532 1807 c 0,17,18
 573 1807 573 1807 620 1799 c 128,-1,19
 667 1791 667 1791 713.5 1779.5 c 128,-1,20
 760 1768 760 1768 803 1755 c 128,-1,21
 846 1742 846 1742 878 1733 c 1,22,23
 878 1701 878 1701 877.5 1670 c 128,-1,24
 877 1639 877 1639 877 1607 c 1,25,-1
 570 1607 l 1,26,-1
 570 971 l 2,27,28
 570 927 570 927 553.5 898 c 128,-1,29
 537 869 537 869 508 848 c 128,-1,30
 479 827 479 827 440 811 c 128,-1,31
 401 795 401 795 357 776 c 1,32,33
 402 758 402 758 440.5 740.5 c 128,-1,34
 479 723 479 723 508 700.5 c 128,-1,35
 537 678 537 678 553.5 648 c 128,-1,36
 570 618 570 618 570 575 c 2,37,-1
 570 -59 l 1,38,-1
 877 -59 l 1,39,40
 877 -91 877 -91 877.5 -123 c 128,-1,41
 878 -155 878 -155 878 -187 c 1,42,43
 846 -196 846 -196 806 -208.5 c 128,-1,44
 766 -221 766 -221 723 -232 c 128,-1,45
 680 -243 680 -243 636 -251 c 128,-1,46
 592 -259 592 -259 551 -259 c 0,47,48
 493 -259 493 -259 440 -249 c 128,-1,49
 387 -239 387 -239 346 -209.5 c 128,-1,50
 305 -180 305 -180 280.5 -127.5 c 128,-1,51
 256 -75 256 -75 256 10 c 2,52,-1
 256 559 l 2,0,1
EndSplineSet
EndChar

StartChar: braceright
Encoding: 125 125 31
Width: 1127
Flags: W
LayerCount: 2
Fore
SplineSet
556 -59 m 1,0,-1
 556 575 l 2,1,2
 556 618 556 618 572.5 648 c 128,-1,3
 589 678 589 678 617.5 700.5 c 128,-1,4
 646 723 646 723 685 740.5 c 128,-1,5
 724 758 724 758 769 776 c 1,6,7
 724 795 724 795 685 811 c 128,-1,8
 646 827 646 827 617.5 848 c 128,-1,9
 589 869 589 869 572.5 898 c 128,-1,10
 556 927 556 927 556 971 c 2,11,-1
 556 1607 l 1,12,-1
 249 1607 l 1,13,14
 249 1639 249 1639 248.5 1670 c 128,-1,15
 248 1701 248 1701 248 1733 c 1,16,17
 280 1742 280 1742 323 1755 c 128,-1,18
 366 1768 366 1768 412.5 1779.5 c 128,-1,19
 459 1791 459 1791 506 1799 c 128,-1,20
 553 1807 553 1807 594 1807 c 0,21,22
 667 1807 667 1807 719.5 1792.5 c 128,-1,23
 772 1778 772 1778 805.5 1741 c 128,-1,24
 839 1704 839 1704 854.5 1640.5 c 128,-1,25
 870 1577 870 1577 870 1478 c 2,26,-1
 870 999 l 2,27,28
 870 971 870 971 883.5 953 c 128,-1,29
 897 935 897 935 920.5 923.5 c 128,-1,30
 944 912 944 912 976.5 905 c 128,-1,31
 1009 898 1009 898 1047 894 c 1,32,-1
 1047 673 l 1,33,34
 1012 670 1012 670 980 661 c 128,-1,35
 948 652 948 652 923.5 637.5 c 128,-1,36
 899 623 899 623 884.5 603 c 128,-1,37
 870 583 870 583 870 559 c 2,38,-1
 870 10 l 2,39,40
 870 -75 870 -75 845.5 -127.5 c 128,-1,41
 821 -180 821 -180 780 -209.5 c 128,-1,42
 739 -239 739 -239 686 -249 c 128,-1,43
 633 -259 633 -259 575 -259 c 0,44,45
 534 -259 534 -259 490 -251 c 128,-1,46
 446 -243 446 -243 403 -232 c 128,-1,47
 360 -221 360 -221 320 -208.5 c 128,-1,48
 280 -196 280 -196 248 -187 c 1,49,50
 248 -155 248 -155 248.5 -123 c 128,-1,51
 249 -91 249 -91 249 -59 c 1,52,-1
 556 -59 l 1,0,-1
EndSplineSet
EndChar

StartChar: bracketleft
Encoding: 91 91 32
Width: 949
Flags: W
LayerCount: 2
Fore
SplineSet
77 1512 m 2,0,1
 77 1601 77 1601 97.5 1658 c 128,-1,2
 118 1715 118 1715 157.5 1747.5 c 128,-1,3
 197 1780 197 1780 255.5 1792 c 128,-1,4
 314 1804 314 1804 390 1804 c 0,5,6
 425 1804 425 1804 464.5 1797 c 128,-1,7
 504 1790 504 1790 544.5 1779 c 128,-1,8
 585 1768 585 1768 624.5 1754 c 128,-1,9
 664 1740 664 1740 700 1727 c 1,10,11
 700 1696 700 1696 699.5 1665 c 128,-1,12
 699 1634 699 1634 699 1603 c 1,13,-1
 391 1603 l 1,14,-1
 391 -29 l 1,15,-1
 699 -33 l 1,16,-1
 703 -158 l 1,17,18
 678 -172 678 -172 639 -185 c 128,-1,19
 600 -198 600 -198 556.5 -208 c 128,-1,20
 513 -218 513 -218 469 -224 c 128,-1,21
 425 -230 425 -230 391 -230 c 0,22,23
 314 -230 314 -230 255.5 -218.5 c 128,-1,24
 197 -207 197 -207 157 -171 c 128,-1,25
 117 -135 117 -135 97 -68 c 128,-1,26
 77 -1 77 -1 77 111 c 2,27,-1
 77 1512 l 2,0,1
EndSplineSet
EndChar

StartChar: bracketright
Encoding: 93 93 33
Width: 949
Flags: W
LayerCount: 2
Fore
SplineSet
575 -29 m 1,0,-1
 575 1603 l 1,1,-1
 250 1603 l 1,2,3
 250 1634 250 1634 249.5 1665 c 128,-1,4
 249 1696 249 1696 249 1727 c 1,5,6
 285 1740 285 1740 327.5 1754 c 128,-1,7
 370 1768 370 1768 413.5 1779 c 128,-1,8
 457 1790 457 1790 499 1797 c 128,-1,9
 541 1804 541 1804 576 1804 c 0,10,11
 652 1804 652 1804 710.5 1792 c 128,-1,12
 769 1780 769 1780 808.5 1747.5 c 128,-1,13
 848 1715 848 1715 868.5 1658 c 128,-1,14
 889 1601 889 1601 889 1512 c 2,15,-1
 889 111 l 2,16,17
 889 -1 889 -1 868.5 -68.5 c 128,-1,18
 848 -136 848 -136 808.5 -172 c 128,-1,19
 769 -208 769 -208 710 -219 c 128,-1,20
 651 -230 651 -230 575 -230 c 0,21,22
 540 -230 540 -230 494 -224 c 128,-1,23
 448 -218 448 -218 401 -208 c 128,-1,24
 354 -198 354 -198 312.5 -185 c 128,-1,25
 271 -172 271 -172 246 -158 c 1,26,-1
 250 -33 l 1,27,-1
 575 -29 l 1,0,-1
EndSplineSet
EndChar

StartChar: zero
Encoding: 48 48 34
Width: 1428
Flags: W
LayerCount: 2
Fore
SplineSet
115 632 m 0,0,1
 117 729 117 729 142 812.5 c 128,-1,2
 167 896 167 896 210 964.5 c 128,-1,3
 253 1033 253 1033 311.5 1086.5 c 128,-1,4
 370 1140 370 1140 438 1176.5 c 128,-1,5
 506 1213 506 1213 581 1232 c 128,-1,6
 656 1251 656 1251 732 1252 c 0,7,8
 887 1253 887 1253 997 1204.5 c 128,-1,9
 1107 1156 1107 1156 1177.5 1071 c 128,-1,10
 1248 986 1248 986 1280 870.5 c 128,-1,11
 1312 755 1312 755 1311 623 c 0,12,13
 1310 527 1310 527 1287 441.5 c 128,-1,14
 1264 356 1264 356 1223 283.5 c 128,-1,15
 1182 211 1182 211 1126 153.5 c 128,-1,16
 1070 96 1070 96 1003 55.5 c 128,-1,17
 936 15 936 15 860.5 -6.5 c 128,-1,18
 785 -28 785 -28 706 -28 c 0,19,20
 605 -28 605 -28 521 -3 c 128,-1,21
 437 22 437 22 371 66.5 c 128,-1,22
 305 111 305 111 256.5 173 c 128,-1,23
 208 235 208 235 176 308.5 c 128,-1,24
 144 382 144 382 129 464 c 128,-1,25
 114 546 114 546 115 632 c 0,0,1
727 128 m 0,26,27
 785 126 785 126 823 155 c 128,-1,28
 861 184 861 184 883 244 c 128,-1,29
 905 304 905 304 913.5 396 c 128,-1,30
 922 488 922 488 922 611 c 0,31,32
 922 721 922 721 906.5 810.5 c 128,-1,33
 891 900 891 900 861.5 964 c 128,-1,34
 832 1028 832 1028 790 1063 c 128,-1,35
 748 1098 748 1098 695 1100 c 1,36,37
 637 1101 637 1101 599.5 1071 c 128,-1,38
 562 1041 562 1041 540.5 983 c 128,-1,39
 519 925 519 925 511 841 c 128,-1,40
 503 757 503 757 503 651 c 0,41,42
 503 592 503 592 509.5 530.5 c 128,-1,43
 516 469 516 469 529.5 411.5 c 128,-1,44
 543 354 543 354 562 303 c 128,-1,45
 581 252 581 252 606 213.5 c 128,-1,46
 631 175 631 175 661 152 c 128,-1,47
 691 129 691 129 727 128 c 0,26,27
EndSplineSet
EndChar

StartChar: one
Encoding: 49 49 35
Width: 973
Flags: W
LayerCount: 2
Fore
SplineSet
43 146 m 1,0,-1
 315 188 l 1,1,-1
 315 901 l 1,2,3
 293 903 293 903 260 902 c 128,-1,4
 227 901 227 901 190 897.5 c 128,-1,5
 153 894 153 894 114.5 890 c 128,-1,6
 76 886 76 886 43 882 c 1,7,-1
 7 1047 l 1,8,9
 39 1056 39 1056 90 1073 c 128,-1,10
 141 1090 141 1090 199.5 1111 c 128,-1,11
 258 1132 258 1132 318.5 1156 c 128,-1,12
 379 1180 379 1180 430.5 1201.5 c 128,-1,13
 482 1223 482 1223 519.5 1240.5 c 128,-1,14
 557 1258 557 1258 570 1268 c 1,15,-1
 675 1249 l 1,16,-1
 670 186 l 1,17,-1
 915 146 l 1,18,-1
 915 0 l 1,19,-1
 43 0 l 1,20,-1
 43 146 l 1,0,-1
EndSplineSet
EndChar

StartChar: two
Encoding: 50 50 36
Width: 1291
Flags: W
LayerCount: 2
Fore
SplineSet
67 130 m 1,0,1
 190 208 190 208 299.5 293.5 c 128,-1,2
 409 379 409 379 491.5 465.5 c 128,-1,3
 574 552 574 552 622 635.5 c 128,-1,4
 670 719 670 719 670 791 c 0,5,6
 670 826 670 826 664.5 869.5 c 128,-1,7
 659 913 659 913 638 951 c 128,-1,8
 617 989 617 989 575 1014.5 c 128,-1,9
 533 1040 533 1040 461 1040 c 0,10,11
 402 1040 402 1040 350.5 1027 c 128,-1,12
 299 1014 299 1014 258 996.5 c 128,-1,13
 217 979 217 979 188.5 962.5 c 128,-1,14
 160 946 160 946 149 940 c 1,15,-1
 68 1062 l 1,16,17
 77 1074 77 1074 101.5 1094 c 128,-1,18
 126 1114 126 1114 163 1136.5 c 128,-1,19
 200 1159 200 1159 247 1181.5 c 128,-1,20
 294 1204 294 1204 348.5 1222 c 128,-1,21
 403 1240 403 1240 463.5 1251.5 c 128,-1,22
 524 1263 524 1263 587 1263 c 0,23,24
 699 1263 699 1263 784.5 1236 c 128,-1,25
 870 1209 870 1209 927.5 1162.5 c 128,-1,26
 985 1116 985 1116 1014.5 1053 c 128,-1,27
 1044 990 1044 990 1044 918 c 0,28,29
 1044 816 1044 816 1002.5 716.5 c 128,-1,30
 961 617 961 617 883.5 522.5 c 128,-1,31
 806 428 806 428 696 337.5 c 128,-1,32
 586 247 586 247 450 163 c 1,33,-1
 955 243 l 1,34,-1
 1039 341 l 1,35,-1
 1195 286 l 1,36,-1
 1125 0 l 1,37,-1
 117 0 l 1,38,-1
 67 130 l 1,0,1
EndSplineSet
EndChar

StartChar: three
Encoding: 51 51 37
Width: 1145
Flags: W
LayerCount: 2
Fore
SplineSet
130 -128 m 1,0,1
 192 -150 192 -150 258 -152.5 c 128,-1,2
 324 -155 324 -155 386.5 -141 c 128,-1,3
 449 -127 449 -127 504 -98 c 128,-1,4
 559 -69 559 -69 600.5 -26.5 c 128,-1,5
 642 16 642 16 666 70.5 c 128,-1,6
 690 125 690 125 690 190 c 0,7,8
 690 208 690 208 689 233.5 c 128,-1,9
 688 259 688 259 681.5 287 c 128,-1,10
 675 315 675 315 661 343.5 c 128,-1,11
 647 372 647 372 621 396 c 128,-1,12
 595 420 595 420 555 438 c 128,-1,13
 515 456 515 456 457 463 c 1,14,-1
 262 418 l 1,15,-1
 262 619 l 1,16,17
 272 621 272 621 301 629 c 128,-1,18
 330 637 330 637 367.5 651.5 c 128,-1,19
 405 666 405 666 446.5 688.5 c 128,-1,20
 488 711 488 711 522 743 c 128,-1,21
 556 775 556 775 578.5 817.5 c 128,-1,22
 601 860 601 860 601 915 c 0,23,24
 601 957 601 957 586.5 986.5 c 128,-1,25
 572 1016 572 1016 549.5 1035 c 128,-1,26
 527 1054 527 1054 499 1062.5 c 128,-1,27
 471 1071 471 1071 445 1071 c 0,28,29
 386 1071 386 1071 341 1060.5 c 128,-1,30
 296 1050 296 1050 260 1034 c 128,-1,31
 224 1018 224 1018 196.5 998 c 128,-1,32
 169 978 169 978 147 960 c 1,33,-1
 61 1097 l 1,34,35
 74 1112 74 1112 114 1140.5 c 128,-1,36
 154 1169 154 1169 216 1197.5 c 128,-1,37
 278 1226 278 1226 362 1247.5 c 128,-1,38
 446 1269 446 1269 548 1269 c 0,39,40
 621 1269 621 1269 690.5 1251 c 128,-1,41
 760 1233 760 1233 814 1193 c 128,-1,42
 868 1153 868 1153 901 1088.5 c 128,-1,43
 934 1024 934 1024 934 932 c 0,44,45
 934 878 934 878 909.5 819.5 c 128,-1,46
 885 761 885 761 844.5 709.5 c 128,-1,47
 804 658 804 658 751 617.5 c 128,-1,48
 698 577 698 577 642 559 c 1,49,50
 727 559 727 559 798.5 533.5 c 128,-1,51
 870 508 870 508 922.5 460.5 c 128,-1,52
 975 413 975 413 1004.5 347 c 128,-1,53
 1034 281 1034 281 1034 200 c 0,54,55
 1034 121 1034 121 1003.5 42.5 c 128,-1,56
 973 -36 973 -36 916 -105 c 128,-1,57
 859 -174 859 -174 778.5 -229 c 128,-1,58
 698 -284 698 -284 597.5 -315 c 128,-1,59
 497 -346 497 -346 379.5 -348.5 c 128,-1,60
 262 -351 262 -351 131 -315 c 1,61,62
 131 -268 131 -268 130.5 -221.5 c 128,-1,63
 130 -175 130 -175 130 -128 c 1,0,1
EndSplineSet
EndChar

StartChar: four
Encoding: 52 52 38
Width: 1315
Flags: W
LayerCount: 2
Fore
SplineSet
69 114 m 1,0,1
 138 233 138 233 212.5 372.5 c 128,-1,2
 287 512 287 512 363.5 661.5 c 128,-1,3
 440 811 440 811 517 966 c 128,-1,4
 594 1121 594 1121 670 1273 c 1,5,-1
 740 1273 l 1,6,-1
 973 1116 l 1,7,-1
 398 234 l 1,8,-1
 335 166 l 1,9,-1
 761 220 l 1,10,-1
 785 604 l 1,11,-1
 1043 644 l 1,12,-1
 1043 255 l 1,13,-1
 1293 287 l 1,14,-1
 1293 0 l 1,15,-1
 1043 0 l 1,16,-1
 1043 -376 l 1,17,-1
 723 -376 l 1,18,-1
 747 0 l 1,19,-1
 123 0 l 1,20,-1
 69 114 l 1,0,1
EndSplineSet
EndChar

StartChar: five
Encoding: 53 53 39
Width: 1161
Flags: W
LayerCount: 2
Fore
SplineSet
148 -171 m 1,0,1
 250 -180 250 -180 344.5 -159 c 128,-1,2
 439 -138 439 -138 511 -88.5 c 128,-1,3
 583 -39 583 -39 626 38 c 128,-1,4
 669 115 669 115 669 219 c 0,5,6
 669 312 669 312 638 380 c 128,-1,7
 607 448 607 448 545.5 486.5 c 128,-1,8
 484 525 484 525 391 532.5 c 128,-1,9
 298 540 298 540 175 511 c 1,10,-1
 139 541 l 1,11,-1
 223 1237 l 1,12,-1
 887 1237 l 1,13,-1
 1007 1249 l 1,14,-1
 920 973 l 1,15,-1
 443 973 l 1,16,-1
 354 680 l 1,17,18
 516 722 516 722 642.5 708 c 128,-1,19
 769 694 769 694 855.5 640 c 128,-1,20
 942 586 942 586 987 501 c 128,-1,21
 1032 416 1032 416 1032 317 c 0,22,23
 1032 209 1032 209 999 117 c 128,-1,24
 966 25 966 25 909.5 -49 c 128,-1,25
 853 -123 853 -123 777 -179.5 c 128,-1,26
 701 -236 701 -236 614.5 -274 c 128,-1,27
 528 -312 528 -312 436 -331.5 c 128,-1,28
 344 -351 344 -351 256 -351 c 0,29,30
 230 -351 230 -351 202 -348 c 128,-1,31
 174 -345 174 -345 147 -337 c 1,32,33
 147 -295 147 -295 147.5 -254 c 128,-1,34
 148 -213 148 -213 148 -171 c 1,0,1
EndSplineSet
EndChar

StartChar: six
Encoding: 54 54 40
Width: 1332
Flags: W
LayerCount: 2
Fore
SplineSet
104 532 m 0,0,1
 104 668 104 668 142.5 789.5 c 128,-1,2
 181 911 181 911 248 1016.5 c 128,-1,3
 315 1122 315 1122 405 1209 c 128,-1,4
 495 1296 495 1296 597.5 1362 c 128,-1,5
 700 1428 700 1428 810 1472 c 128,-1,6
 920 1516 920 1516 1028 1535 c 1,7,-1
 1085 1408 l 1,8,9
 1006 1377 1006 1377 927.5 1333.5 c 128,-1,10
 849 1290 849 1290 778 1235 c 128,-1,11
 707 1180 707 1180 646 1113.5 c 128,-1,12
 585 1047 585 1047 540.5 970 c 128,-1,13
 496 893 496 893 470.5 806 c 128,-1,14
 445 719 445 719 445 622 c 0,15,16
 445 567 445 567 447 510 c 128,-1,17
 449 453 449 453 456 400 c 128,-1,18
 463 347 463 347 478 300.5 c 128,-1,19
 493 254 493 254 519 219.5 c 128,-1,20
 545 185 545 185 584.5 165 c 128,-1,21
 624 145 624 145 680 145 c 0,22,23
 714 145 714 145 752 160.5 c 128,-1,24
 790 176 790 176 821.5 213.5 c 128,-1,25
 853 251 853 251 873.5 314.5 c 128,-1,26
 894 378 894 378 894 474 c 0,27,28
 894 521 894 521 878.5 570 c 128,-1,29
 863 619 863 619 834.5 659.5 c 128,-1,30
 806 700 806 700 765 725.5 c 128,-1,31
 724 751 724 751 673 751 c 0,32,33
 669 751 669 751 658 752 c 128,-1,34
 647 753 647 753 630.5 751.5 c 128,-1,35
 614 750 614 750 593 745 c 128,-1,36
 572 740 572 740 547 727 c 1,37,-1
 500 822 l 1,38,39
 507 836 507 836 534 860.5 c 128,-1,40
 561 885 561 885 602.5 909 c 128,-1,41
 644 933 644 933 696.5 950.5 c 128,-1,42
 749 968 749 968 808 968 c 0,43,44
 910 968 910 968 987 936 c 128,-1,45
 1064 904 1064 904 1115.5 846 c 128,-1,46
 1167 788 1167 788 1193.5 708 c 128,-1,47
 1220 628 1220 628 1220 531 c 0,48,49
 1220 413 1220 413 1178.5 311 c 128,-1,50
 1137 209 1137 209 1061.5 133.5 c 128,-1,51
 986 58 986 58 879.5 15 c 128,-1,52
 773 -28 773 -28 644 -28 c 0,53,54
 523 -28 523 -28 423.5 16 c 128,-1,55
 324 60 324 60 253 135.5 c 128,-1,56
 182 211 182 211 143 313 c 128,-1,57
 104 415 104 415 104 532 c 0,0,1
EndSplineSet
EndChar

StartChar: seven
Encoding: 55 55 41
Width: 1315
Flags: W
LayerCount: 2
Fore
SplineSet
942 1081 m 1,0,-1
 430 1032 l 1,1,-1
 343 869 l 1,2,-1
 155 873 l 1,3,-1
 217 1253 l 1,4,-1
 1146 1253 l 1,5,-1
 1194 1200 l 1,6,-1
 593 -336 l 1,7,-1
 250 -211 l 1,8,-1
 942 1081 l 1,0,-1
EndSplineSet
EndChar

StartChar: eight
Encoding: 56 56 42
Width: 1315
Flags: W
LayerCount: 2
Fore
SplineSet
105 373 m 0,0,1
 105 420 105 420 121 474 c 128,-1,2
 137 528 137 528 174 582 c 128,-1,3
 211 636 211 636 270.5 687 c 128,-1,4
 330 738 330 738 416 780 c 1,5,6
 370 816 370 816 329.5 855.5 c 128,-1,7
 289 895 289 895 259 940 c 128,-1,8
 229 985 229 985 211.5 1036.5 c 128,-1,9
 194 1088 194 1088 194 1147 c 0,10,11
 194 1250 194 1250 236.5 1326 c 128,-1,12
 279 1402 279 1402 347.5 1452 c 128,-1,13
 416 1502 416 1502 503.5 1526 c 128,-1,14
 591 1550 591 1550 681 1550 c 0,15,16
 775 1550 775 1550 858.5 1527 c 128,-1,17
 942 1504 942 1504 1005 1458 c 128,-1,18
 1068 1412 1068 1412 1105 1344 c 128,-1,19
 1142 1276 1142 1276 1142 1186 c 0,20,21
 1142 1127 1142 1127 1117.5 1070 c 128,-1,22
 1093 1013 1093 1013 1056 964 c 128,-1,23
 1019 915 1019 915 975.5 878 c 128,-1,24
 932 841 932 841 894 822 c 1,25,26
 954 779 954 779 1009 733.5 c 128,-1,27
 1064 688 1064 688 1106.5 637 c 128,-1,28
 1149 586 1149 586 1174 529 c 128,-1,29
 1199 472 1199 472 1199 407 c 0,30,31
 1199 289 1199 289 1151.5 206.5 c 128,-1,32
 1104 124 1104 124 1027.5 72 c 128,-1,33
 951 20 951 20 854 -4 c 128,-1,34
 757 -28 757 -28 659 -28 c 0,35,36
 596 -28 596 -28 530.5 -18.5 c 128,-1,37
 465 -9 465 -9 403.5 11.5 c 128,-1,38
 342 32 342 32 287.5 63.5 c 128,-1,39
 233 95 233 95 192.5 139.5 c 128,-1,40
 152 184 152 184 128.5 242 c 128,-1,41
 105 300 105 300 105 373 c 0,0,1
758 916 m 1,42,43
 780 934 780 934 797.5 954.5 c 128,-1,44
 815 975 815 975 828 995 c 128,-1,45
 841 1015 841 1015 849.5 1034 c 128,-1,46
 858 1053 858 1053 862 1068 c 0,47,48
 882 1149 882 1149 870.5 1212 c 128,-1,49
 859 1275 859 1275 827.5 1318.5 c 128,-1,50
 796 1362 796 1362 751 1385 c 128,-1,51
 706 1408 706 1408 659 1408 c 0,52,53
 631 1408 631 1408 600 1398 c 128,-1,54
 569 1388 569 1388 543 1367.5 c 128,-1,55
 517 1347 517 1347 500 1315 c 128,-1,56
 483 1283 483 1283 483 1238 c 0,57,58
 483 1192 483 1192 505.5 1150.5 c 128,-1,59
 528 1109 528 1109 565.5 1069.5 c 128,-1,60
 603 1030 603 1030 653 992 c 128,-1,61
 703 954 703 954 758 916 c 1,42,43
405 456 m 0,62,63
 405 382 405 382 424.5 322 c 128,-1,64
 444 262 444 262 480.5 220 c 128,-1,65
 517 178 517 178 570 155.5 c 128,-1,66
 623 133 623 133 691 133 c 0,67,68
 727 133 727 133 761 142 c 128,-1,69
 795 151 795 151 821.5 174 c 128,-1,70
 848 197 848 197 864 237 c 128,-1,71
 880 277 880 277 880 339 c 0,72,73
 880 392 880 392 851 438 c 128,-1,74
 822 484 822 484 774.5 526 c 128,-1,75
 727 568 727 568 666.5 608.5 c 128,-1,76
 606 649 606 649 542 691 c 1,77,78
 516 670 516 670 491.5 645.5 c 128,-1,79
 467 621 467 621 448 592 c 128,-1,80
 429 563 429 563 417 529 c 128,-1,81
 405 495 405 495 405 456 c 0,62,63
EndSplineSet
EndChar

StartChar: nine
Encoding: 57 57 43
Width: 1315
Flags: W
LayerCount: 2
Fore
SplineSet
235 -269 m 1,0,1
 326 -234 326 -234 405 -183 c 128,-1,2
 484 -132 484 -132 550 -70.5 c 128,-1,3
 616 -9 616 -9 669 61.5 c 128,-1,4
 722 132 722 132 761 206.5 c 128,-1,5
 800 281 800 281 825 356 c 128,-1,6
 850 431 850 431 860 503 c 0,7,8
 869 564 869 564 874 630 c 128,-1,9
 879 696 879 696 876 760.5 c 128,-1,10
 873 825 873 825 859.5 883 c 128,-1,11
 846 941 846 941 818 984.5 c 128,-1,12
 790 1028 790 1028 745 1054 c 128,-1,13
 700 1080 700 1080 633 1080 c 0,14,15
 581 1080 581 1080 541.5 1057 c 128,-1,16
 502 1034 502 1034 475 994 c 128,-1,17
 448 954 448 954 434 899.5 c 128,-1,18
 420 845 420 845 420 782 c 0,19,20
 420 690 420 690 442.5 627 c 128,-1,21
 465 564 465 564 498.5 524.5 c 128,-1,22
 532 485 532 485 571.5 467.5 c 128,-1,23
 611 450 611 450 646 450 c 0,24,25
 649 450 649 450 661 450 c 128,-1,26
 673 450 673 450 689 452 c 128,-1,27
 705 454 705 454 722.5 459 c 128,-1,28
 740 464 740 464 754 475 c 1,29,-1
 801 380 l 1,30,31
 784 350 784 350 756 323.5 c 128,-1,32
 728 297 728 297 691 277 c 128,-1,33
 654 257 654 257 609 245.5 c 128,-1,34
 564 234 564 234 514 234 c 0,35,36
 405 234 405 234 325.5 277.5 c 128,-1,37
 246 321 246 321 194.5 389.5 c 128,-1,38
 143 458 143 458 118.5 541 c 128,-1,39
 94 624 94 624 94 703 c 0,40,41
 94 831 94 831 137 933 c 128,-1,42
 180 1035 180 1035 257.5 1106.5 c 128,-1,43
 335 1178 335 1178 442.5 1216 c 128,-1,44
 550 1254 550 1254 679 1254 c 0,45,46
 790 1254 790 1254 887 1211.5 c 128,-1,47
 984 1169 984 1169 1056 1094.5 c 128,-1,48
 1128 1020 1128 1020 1169 919 c 128,-1,49
 1210 818 1210 818 1210 701 c 0,50,51
 1210 544 1210 544 1172 406 c 128,-1,52
 1134 268 1134 268 1068 151 c 128,-1,53
 1002 34 1002 34 913.5 -61 c 128,-1,54
 825 -156 825 -156 723.5 -227.5 c 128,-1,55
 622 -299 622 -299 512 -345 c 128,-1,56
 402 -391 402 -391 295 -410 c 1,57,-1
 293 -410 l 1,58,-1
 235 -269 l 1,59,-1
 235 -269 l 1,0,1
EndSplineSet
EndChar

StartChar: onesuperior
Encoding: 185 185 44
Width: 1185
Flags: W
LayerCount: 2
Fore
SplineSet
192 855 m 1,0,-1
 431 895 l 1,1,-1
 431 1414 l 1,2,3
 411 1412 411 1412 385 1408 c 128,-1,4
 359 1404 359 1404 330.5 1399 c 128,-1,5
 302 1394 302 1394 273.5 1388.5 c 128,-1,6
 245 1383 245 1383 220 1379 c 1,7,-1
 184 1534 l 1,8,9
 219 1540 219 1540 265.5 1553.5 c 128,-1,10
 312 1567 312 1567 363.5 1584.5 c 128,-1,11
 415 1602 415 1602 466 1622 c 128,-1,12
 517 1642 517 1642 560.5 1661 c 128,-1,13
 604 1680 604 1680 636 1696 c 128,-1,14
 668 1712 668 1712 680 1722 c 1,15,-1
 761 1707 l 1,16,-1
 761 894 l 1,17,-1
 1007 855 l 1,18,-1
 1007 718 l 1,19,-1
 192 718 l 1,20,-1
 192 855 l 1,0,-1
EndSplineSet
EndChar

StartChar: twosuperior
Encoding: 178 178 45
Width: 1355
Flags: W
LayerCount: 2
Fore
SplineSet
146 856 m 1,0,1
 184 876 184 876 241.5 906.5 c 128,-1,2
 299 937 299 937 363 976.5 c 128,-1,3
 427 1016 427 1016 491 1063 c 128,-1,4
 555 1110 555 1110 606 1163.5 c 128,-1,5
 657 1217 657 1217 689 1275.5 c 128,-1,6
 721 1334 721 1334 721 1396 c 0,7,8
 721 1420 721 1420 709.5 1445 c 128,-1,9
 698 1470 698 1470 673.5 1488 c 128,-1,10
 649 1506 649 1506 609 1514 c 128,-1,11
 569 1522 569 1522 512 1514 c 0,12,13
 459 1506 459 1506 413.5 1487 c 128,-1,14
 368 1468 368 1468 332 1446 c 128,-1,15
 296 1424 296 1424 271 1403 c 128,-1,16
 246 1382 246 1382 233 1370 c 1,17,-1
 140 1501 l 1,18,19
 154 1524 154 1524 196 1557 c 128,-1,20
 238 1590 238 1590 299.5 1622.5 c 128,-1,21
 361 1655 361 1655 438.5 1680.5 c 128,-1,22
 516 1706 516 1706 600 1714 c 0,23,24
 688 1722 688 1722 756 1713 c 128,-1,25
 824 1704 824 1704 874.5 1683.5 c 128,-1,26
 925 1663 925 1663 959.5 1634 c 128,-1,27
 994 1605 994 1605 1015.5 1574 c 128,-1,28
 1037 1543 1037 1543 1046.5 1513 c 128,-1,29
 1056 1483 1056 1483 1056 1461 c 0,30,31
 1056 1362 1056 1362 1020.5 1284 c 128,-1,32
 985 1206 985 1206 919 1138.5 c 128,-1,33
 853 1071 853 1071 758.5 1007.5 c 128,-1,34
 664 944 664 944 547 872 c 1,35,-1
 921 931 l 1,36,-1
 1015 1013 l 1,37,-1
 1148 969 l 1,38,-1
 1086 720 l 1,39,-1
 218 720 l 1,40,-1
 146 856 l 1,0,1
EndSplineSet
EndChar

StartChar: threesuperior
Encoding: 179 179 46
Width: 1163
Flags: W
LayerCount: 2
Fore
SplineSet
211 861 m 1,0,1
 232 855 232 855 259.5 850.5 c 128,-1,2
 287 846 287 846 316 842.5 c 128,-1,3
 345 839 345 839 372 837.5 c 128,-1,4
 399 836 399 836 419 838 c 0,5,6
 540 846 540 846 610.5 882.5 c 128,-1,7
 681 919 681 919 695 982 c 0,8,9
 698 994 698 994 695.5 1017.5 c 128,-1,10
 693 1041 693 1041 680 1066.5 c 128,-1,11
 667 1092 667 1092 640 1114 c 128,-1,12
 613 1136 613 1136 566 1145 c 1,13,-1
 496 1126 l 2,14,15
 461 1117 461 1117 426 1108 c 128,-1,16
 391 1099 391 1099 356 1089 c 1,17,-1
 356 1256 l 1,18,19
 413 1274 413 1274 459.5 1291.5 c 128,-1,20
 506 1309 506 1309 541 1328.5 c 128,-1,21
 576 1348 576 1348 599 1370.5 c 128,-1,22
 622 1393 622 1393 633 1421 c 0,23,24
 644 1450 644 1450 641 1484 c 0,25,26
 639 1506 639 1506 626 1519.5 c 128,-1,27
 613 1533 613 1533 595.5 1540.5 c 128,-1,28
 578 1548 578 1548 558.5 1550.5 c 128,-1,29
 539 1553 539 1553 526 1553 c 0,30,31
 471 1555 471 1555 397 1537.5 c 128,-1,32
 323 1520 323 1520 238 1476 c 1,33,-1
 172 1585 l 1,34,35
 200 1609 200 1609 250.5 1633.5 c 128,-1,36
 301 1658 301 1658 363.5 1677.5 c 128,-1,37
 426 1697 426 1697 494.5 1709 c 128,-1,38
 563 1721 563 1721 628 1720 c 0,39,40
 727 1718 727 1718 792 1697 c 128,-1,41
 857 1676 857 1676 895.5 1644.5 c 128,-1,42
 934 1613 934 1613 949 1575.5 c 128,-1,43
 964 1538 964 1538 964 1503 c 0,44,45
 964 1463 964 1463 956.5 1424 c 128,-1,46
 949 1385 949 1385 927.5 1349.5 c 128,-1,47
 906 1314 906 1314 867.5 1283 c 128,-1,48
 829 1252 829 1252 768 1228 c 1,49,50
 826 1228 826 1228 868.5 1214 c 128,-1,51
 911 1200 911 1200 940.5 1178.5 c 128,-1,52
 970 1157 970 1157 988 1131.5 c 128,-1,53
 1006 1106 1006 1106 1016 1082.5 c 128,-1,54
 1026 1059 1026 1059 1029.5 1040.5 c 128,-1,55
 1033 1022 1033 1022 1033 1015 c 0,56,57
 1033 949 1033 949 1002.5 887.5 c 128,-1,58
 972 826 972 826 910 778.5 c 128,-1,59
 848 731 848 731 753 702.5 c 128,-1,60
 658 674 658 674 528 674 c 0,61,62
 463 674 463 674 413.5 678.5 c 128,-1,63
 364 683 364 683 325.5 689 c 128,-1,64
 287 695 287 695 259.5 702 c 128,-1,65
 232 709 232 709 211 714 c 1,66,-1
 211 861 l 1,0,1
EndSplineSet
EndChar

StartChar: onequarter
Encoding: 188 188 47
Width: 2726
Flags: W
LayerCount: 2
Fore
SplineSet
1550 1881 m 1,0,-1
 1811 1881 l 1,1,-1
 1145 -343 l 1,2,-1
 891 -341 l 1,3,-1
 1550 1881 l 1,0,-1
192 855 m 1,4,-1
 431 895 l 1,5,-1
 431 1414 l 1,6,7
 411 1412 411 1412 385 1408 c 128,-1,8
 359 1404 359 1404 330.5 1399 c 128,-1,9
 302 1394 302 1394 273.5 1388.5 c 128,-1,10
 245 1383 245 1383 220 1379 c 1,11,-1
 184 1534 l 1,12,13
 219 1540 219 1540 265.5 1553.5 c 128,-1,14
 312 1567 312 1567 363.5 1584.5 c 128,-1,15
 415 1602 415 1602 466 1622 c 128,-1,16
 517 1642 517 1642 560.5 1661 c 128,-1,17
 604 1680 604 1680 636 1696 c 128,-1,18
 668 1712 668 1712 680 1722 c 1,19,-1
 761 1707 l 1,20,-1
 761 894 l 1,21,-1
 1007 855 l 1,22,-1
 1007 718 l 1,23,-1
 192 718 l 1,24,-1
 192 855 l 1,4,-1
2170 1101 m 1,25,-1
 2274 1101 l 1,26,-1
 2457 1002 l 1,27,-1
 2092 590 l 1,28,-1
 1930 383 l 1,29,-1
 1849 279 l 1,30,-1
 2187 319 l 1,31,-1
 2193 627 l 1,32,-1
 2442 652 l 1,33,-1
 2453 350 l 1,34,-1
 2689 378 l 1,35,-1
 2689 121 l 1,36,-1
 2461 121 l 1,37,-1
 2472 -163 l 1,38,-1
 2177 -163 l 1,39,-1
 2183 121 l 1,40,-1
 1651 121 l 1,41,-1
 1600 283 l 1,42,-1
 2170 1101 l 1,25,-1
EndSplineSet
EndChar

StartChar: onehalf
Encoding: 189 189 48
Width: 2726
Flags: W
LayerCount: 2
Fore
SplineSet
1555 1881 m 1,0,-1
 1814 1881 l 1,1,-1
 1149 -343 l 1,2,-1
 896 -341 l 1,3,-1
 1555 1881 l 1,0,-1
192 855 m 1,4,-1
 431 895 l 1,5,-1
 431 1414 l 1,6,7
 411 1412 411 1412 385 1408 c 128,-1,8
 359 1404 359 1404 330.5 1399 c 128,-1,9
 302 1394 302 1394 273.5 1388.5 c 128,-1,10
 245 1383 245 1383 220 1379 c 1,11,-1
 184 1534 l 1,12,13
 219 1540 219 1540 265.5 1553.5 c 128,-1,14
 312 1567 312 1567 363.5 1584.5 c 128,-1,15
 415 1602 415 1602 466 1622 c 128,-1,16
 517 1642 517 1642 560.5 1661 c 128,-1,17
 604 1680 604 1680 636 1696 c 128,-1,18
 668 1712 668 1712 680 1722 c 1,19,-1
 761 1707 l 1,20,-1
 761 894 l 1,21,-1
 1007 855 l 1,22,-1
 1007 718 l 1,23,-1
 192 718 l 1,24,-1
 192 855 l 1,4,-1
1669 134 m 1,25,26
 1700 150 1700 150 1743 172.5 c 128,-1,27
 1786 195 1786 195 1835.5 224 c 128,-1,28
 1885 253 1885 253 1937.5 287 c 128,-1,29
 1990 321 1990 321 2038.5 360 c 128,-1,30
 2087 399 2087 399 2129 442 c 128,-1,31
 2171 485 2171 485 2199 531 c 0,32,33
 2219 565 2219 565 2231.5 600.5 c 128,-1,34
 2244 636 2244 636 2244 674 c 0,35,36
 2244 698 2244 698 2232.5 723 c 128,-1,37
 2221 748 2221 748 2196.5 766 c 128,-1,38
 2172 784 2172 784 2132 792 c 128,-1,39
 2092 800 2092 800 2035 792 c 0,40,41
 1982 784 1982 784 1936.5 765 c 128,-1,42
 1891 746 1891 746 1855 724 c 128,-1,43
 1819 702 1819 702 1794 681 c 128,-1,44
 1769 660 1769 660 1756 648 c 1,45,-1
 1663 779 l 1,46,47
 1677 802 1677 802 1719 835 c 128,-1,48
 1761 868 1761 868 1822.5 900.5 c 128,-1,49
 1884 933 1884 933 1961.5 958.5 c 128,-1,50
 2039 984 2039 984 2123 992 c 0,51,52
 2211 1001 2211 1001 2279 991.5 c 128,-1,53
 2347 982 2347 982 2397.5 961.5 c 128,-1,54
 2448 941 2448 941 2482.5 912 c 128,-1,55
 2517 883 2517 883 2538.5 852 c 128,-1,56
 2560 821 2560 821 2569.5 791 c 128,-1,57
 2579 761 2579 761 2579 739 c 0,58,59
 2579 640 2579 640 2543.5 562 c 128,-1,60
 2508 484 2508 484 2442 416.5 c 128,-1,61
 2376 349 2376 349 2281.5 285.5 c 128,-1,62
 2187 222 2187 222 2070 150 c 1,63,-1
 2444 209 l 1,64,-1
 2538 291 l 1,65,-1
 2671 247 l 1,66,-1
 2609 -2 l 1,67,-1
 1741 -2 l 1,68,-1
 1669 134 l 1,25,26
EndSplineSet
EndChar

StartChar: threequarters
Encoding: 190 190 49
Width: 2896
Flags: W
LayerCount: 2
Fore
SplineSet
1549 1881 m 1,0,-1
 1809 1881 l 1,1,-1
 1144 -343 l 1,2,-1
 890 -341 l 1,3,-1
 1549 1881 l 1,0,-1
211 861 m 1,4,5
 232 855 232 855 259.5 850.5 c 128,-1,6
 287 846 287 846 316 842.5 c 128,-1,7
 345 839 345 839 372 837.5 c 128,-1,8
 399 836 399 836 419 838 c 0,9,10
 540 846 540 846 610.5 882.5 c 128,-1,11
 681 919 681 919 695 982 c 0,12,13
 698 994 698 994 695.5 1017.5 c 128,-1,14
 693 1041 693 1041 680 1066.5 c 128,-1,15
 667 1092 667 1092 640 1114 c 128,-1,16
 613 1136 613 1136 566 1145 c 1,17,-1
 496 1126 l 2,18,19
 461 1117 461 1117 426 1108 c 128,-1,20
 391 1099 391 1099 356 1089 c 1,21,-1
 356 1256 l 1,22,23
 413 1274 413 1274 459.5 1291.5 c 128,-1,24
 506 1309 506 1309 541 1328.5 c 128,-1,25
 576 1348 576 1348 599 1370.5 c 128,-1,26
 622 1393 622 1393 633 1421 c 0,27,28
 644 1450 644 1450 641 1484 c 0,29,30
 639 1506 639 1506 626 1519.5 c 128,-1,31
 613 1533 613 1533 595.5 1540.5 c 128,-1,32
 578 1548 578 1548 558.5 1550.5 c 128,-1,33
 539 1553 539 1553 526 1553 c 0,34,35
 471 1555 471 1555 397 1537.5 c 128,-1,36
 323 1520 323 1520 238 1476 c 1,37,-1
 172 1585 l 1,38,39
 200 1609 200 1609 250.5 1633.5 c 128,-1,40
 301 1658 301 1658 363.5 1677.5 c 128,-1,41
 426 1697 426 1697 494.5 1709 c 128,-1,42
 563 1721 563 1721 628 1720 c 0,43,44
 727 1718 727 1718 792 1697 c 128,-1,45
 857 1676 857 1676 895.5 1644.5 c 128,-1,46
 934 1613 934 1613 949 1575.5 c 128,-1,47
 964 1538 964 1538 964 1503 c 0,48,49
 964 1463 964 1463 956.5 1424 c 128,-1,50
 949 1385 949 1385 927.5 1349.5 c 128,-1,51
 906 1314 906 1314 867.5 1283 c 128,-1,52
 829 1252 829 1252 768 1228 c 1,53,54
 826 1228 826 1228 868.5 1214 c 128,-1,55
 911 1200 911 1200 940.5 1178.5 c 128,-1,56
 970 1157 970 1157 988 1131.5 c 128,-1,57
 1006 1106 1006 1106 1016 1082.5 c 128,-1,58
 1026 1059 1026 1059 1029.5 1040.5 c 128,-1,59
 1033 1022 1033 1022 1033 1015 c 0,60,61
 1033 949 1033 949 1002.5 887.5 c 128,-1,62
 972 826 972 826 910 778.5 c 128,-1,63
 848 731 848 731 753 702.5 c 128,-1,64
 658 674 658 674 528 674 c 0,65,66
 463 674 463 674 413.5 678.5 c 128,-1,67
 364 683 364 683 325.5 689 c 128,-1,68
 287 695 287 695 259.5 702 c 128,-1,69
 232 709 232 709 211 714 c 1,70,-1
 211 861 l 1,4,5
2170 1101 m 1,71,-1
 2274 1101 l 1,72,-1
 2457 1002 l 1,73,-1
 2092 600 l 1,74,-1
 1930 393 l 1,75,-1
 1849 289 l 1,76,-1
 2187 329 l 1,77,-1
 2193 637 l 1,78,-1
 2442 662 l 1,79,-1
 2453 360 l 1,80,-1
 2689 388 l 1,81,-1
 2689 131 l 1,82,-1
 2461 131 l 1,83,-1
 2472 -153 l 1,84,-1
 2177 -153 l 1,85,-1
 2183 131 l 1,86,-1
 1651 131 l 1,87,-1
 1600 293 l 1,88,-1
 2170 1101 l 1,71,-1
EndSplineSet
EndChar

StartChar: percent
Encoding: 37 37 50
Width: 2171
Flags: W
LayerCount: 2
Fore
SplineSet
1214 1601 m 1,0,-1
 1518 1601 l 1,1,-1
 926 0 l 1,2,-1
 627 0 l 1,3,-1
 1214 1601 l 1,0,-1
500 692 m 0,4,5
 416 690 416 690 348.5 719 c 128,-1,6
 281 748 281 748 233.5 797.5 c 128,-1,7
 186 847 186 847 161 913.5 c 128,-1,8
 136 980 136 980 136 1053 c 0,9,10
 136 1143 136 1143 169 1211.5 c 128,-1,11
 202 1280 202 1280 257 1327.5 c 128,-1,12
 312 1375 312 1375 384 1400 c 128,-1,13
 456 1425 456 1425 534 1427 c 0,14,15
 630 1430 630 1430 698.5 1401.5 c 128,-1,16
 767 1373 767 1373 811.5 1323 c 128,-1,17
 856 1273 856 1273 877 1205.5 c 128,-1,18
 898 1138 898 1138 898 1062 c 0,19,20
 898 973 898 973 865 904.5 c 128,-1,21
 832 836 832 836 777 789.5 c 128,-1,22
 722 743 722 743 650 718.5 c 128,-1,23
 578 694 578 694 500 692 c 0,4,5
534 835 m 0,24,25
 561 835 561 835 582.5 850.5 c 128,-1,26
 604 866 604 866 619.5 894.5 c 128,-1,27
 635 923 635 923 643 964 c 128,-1,28
 651 1005 651 1005 651 1055 c 0,29,30
 651 1106 651 1106 640 1148.5 c 128,-1,31
 629 1191 629 1191 611 1221 c 128,-1,32
 593 1251 593 1251 570 1267.5 c 128,-1,33
 547 1284 547 1284 524 1284 c 0,34,35
 496 1284 496 1284 472.5 1268.5 c 128,-1,36
 449 1253 449 1253 431.5 1224 c 128,-1,37
 414 1195 414 1195 404 1153.5 c 128,-1,38
 394 1112 394 1112 394 1061 c 0,39,40
 394 1015 394 1015 407 974 c 128,-1,41
 420 933 420 933 440.5 902 c 128,-1,42
 461 871 461 871 485.5 853 c 128,-1,43
 510 835 510 835 534 835 c 0,24,25
1244 525 m 0,44,45
 1244 615 1244 615 1277 683.5 c 128,-1,46
 1310 752 1310 752 1365 799.5 c 128,-1,47
 1420 847 1420 847 1492 872 c 128,-1,48
 1564 897 1564 897 1642 899 c 0,49,50
 1738 902 1738 902 1806.5 873.5 c 128,-1,51
 1875 845 1875 845 1919.5 795 c 128,-1,52
 1964 745 1964 745 1985 677.5 c 128,-1,53
 2006 610 2006 610 2006 534 c 0,54,55
 2006 445 2006 445 1973 376.5 c 128,-1,56
 1940 308 1940 308 1885 261.5 c 128,-1,57
 1830 215 1830 215 1758 190.5 c 128,-1,58
 1686 166 1686 166 1608 164 c 0,59,60
 1524 162 1524 162 1456.5 191 c 128,-1,61
 1389 220 1389 220 1341.5 269.5 c 128,-1,62
 1294 319 1294 319 1269 385.5 c 128,-1,63
 1244 452 1244 452 1244 525 c 0,44,45
1502 533 m 0,64,65
 1502 487 1502 487 1515 446 c 128,-1,66
 1528 405 1528 405 1548.5 374 c 128,-1,67
 1569 343 1569 343 1593.5 325 c 128,-1,68
 1618 307 1618 307 1642 307 c 0,69,70
 1669 307 1669 307 1690.5 322.5 c 128,-1,71
 1712 338 1712 338 1727.5 366.5 c 128,-1,72
 1743 395 1743 395 1751 436 c 128,-1,73
 1759 477 1759 477 1759 527 c 0,74,75
 1759 578 1759 578 1748 620.5 c 128,-1,76
 1737 663 1737 663 1719 693 c 128,-1,77
 1701 723 1701 723 1678 739.5 c 128,-1,78
 1655 756 1655 756 1632 756 c 0,79,80
 1604 756 1604 756 1580.5 740.5 c 128,-1,81
 1557 725 1557 725 1539.5 696 c 128,-1,82
 1522 667 1522 667 1512 625.5 c 128,-1,83
 1502 584 1502 584 1502 533 c 0,64,65
EndSplineSet
EndChar

StartChar: degree
Encoding: 176 176 51
Width: 905
Flags: W
LayerCount: 2
Fore
SplineSet
452 1017 m 256,0,1
 378 1017 378 1017 313.5 1045 c 128,-1,2
 249 1073 249 1073 200 1120.5 c 128,-1,3
 151 1168 151 1168 123 1232 c 128,-1,4
 95 1296 95 1296 95 1368 c 256,5,6
 95 1440 95 1440 123 1503.5 c 128,-1,7
 151 1567 151 1567 200 1615 c 128,-1,8
 249 1663 249 1663 313.5 1690.5 c 128,-1,9
 378 1718 378 1718 452 1718 c 256,10,11
 526 1718 526 1718 591.5 1689.5 c 128,-1,12
 657 1661 657 1661 705.5 1613 c 128,-1,13
 754 1565 754 1565 782 1501.5 c 128,-1,14
 810 1438 810 1438 810 1368 c 0,15,16
 810 1296 810 1296 782 1232 c 128,-1,17
 754 1168 754 1168 705.5 1120.5 c 128,-1,18
 657 1073 657 1073 591.5 1045 c 128,-1,19
 526 1017 526 1017 452 1017 c 256,0,1
451 1199 m 0,20,21
 485 1199 485 1199 514.5 1211.5 c 128,-1,22
 544 1224 544 1224 565.5 1246.5 c 128,-1,23
 587 1269 587 1269 599.5 1300 c 128,-1,24
 612 1331 612 1331 612 1368 c 0,25,26
 612 1403 612 1403 599.5 1434 c 128,-1,27
 587 1465 587 1465 565.5 1488.5 c 128,-1,28
 544 1512 544 1512 514.5 1526 c 128,-1,29
 485 1540 485 1540 451 1540 c 0,30,31
 415 1540 415 1540 385.5 1527 c 128,-1,32
 356 1514 356 1514 335 1491 c 128,-1,33
 314 1468 314 1468 302 1436.5 c 128,-1,34
 290 1405 290 1405 290 1368 c 256,35,36
 290 1331 290 1331 302 1300 c 128,-1,37
 314 1269 314 1269 335 1246.5 c 128,-1,38
 356 1224 356 1224 385.5 1211.5 c 128,-1,39
 415 1199 415 1199 451 1199 c 0,20,21
EndSplineSet
EndChar

StartChar: plus
Encoding: 43 43 52
Width: 1400
Flags: W
LayerCount: 2
Fore
SplineSet
550 599 m 1,0,-1
 552 727 l 1,1,-1
 434 722 l 1,2,-1
 170 722 l 1,3,-1
 170 1021 l 1,4,-1
 434 1021 l 1,5,-1
 550 1013 l 1,6,-1
 550 1375 l 1,7,-1
 848 1375 l 1,8,-1
 848 1149 l 2,9,10
 848 1115 848 1115 847.5 1081 c 128,-1,11
 847 1047 847 1047 847 1013 c 1,12,-1
 976 1021 l 1,13,-1
 1230 1021 l 1,14,-1
 1230 722 l 1,15,-1
 976 722 l 1,16,-1
 847 725 l 1,17,18
 847 693 847 693 847.5 662 c 128,-1,19
 848 631 848 631 848 599 c 2,20,-1
 848 356 l 1,21,-1
 550 356 l 1,22,-1
 550 599 l 1,0,-1
EndSplineSet
EndChar

StartChar: plusminus
Encoding: 177 177 53
Width: 1400
Flags: W
LayerCount: 2
Fore
SplineSet
550 599 m 1,0,-1
 552 727 l 1,1,-1
 434 722 l 1,2,-1
 170 722 l 1,3,-1
 170 1021 l 1,4,-1
 434 1021 l 1,5,-1
 550 1013 l 1,6,-1
 550 1375 l 1,7,-1
 848 1375 l 1,8,-1
 848 1149 l 2,9,10
 848 1115 848 1115 847.5 1081 c 128,-1,11
 847 1047 847 1047 847 1013 c 1,12,-1
 976 1021 l 1,13,-1
 1230 1021 l 1,14,-1
 1230 722 l 1,15,-1
 976 722 l 1,16,-1
 847 725 l 1,17,18
 847 693 847 693 847.5 662 c 128,-1,19
 848 631 848 631 848 599 c 2,20,-1
 848 356 l 1,21,-1
 550 356 l 1,22,-1
 550 599 l 1,0,-1
201 202 m 1,23,-1
 1203 202 l 1,24,-1
 1203 -71 l 1,25,-1
 201 -71 l 1,26,-1
 201 202 l 1,23,-1
EndSplineSet
EndChar

StartChar: equal
Encoding: 61 61 54
Width: 1242
Flags: W
LayerCount: 2
Fore
SplineSet
170 1239 m 1,0,-1
 1072 1239 l 1,1,-1
 1072 966 l 1,2,-1
 170 966 l 1,3,-1
 170 1239 l 1,0,-1
170 649 m 1,4,-1
 1072 649 l 1,5,-1
 1072 376 l 1,6,-1
 170 376 l 1,7,-1
 170 649 l 1,4,-1
EndSplineSet
EndChar

StartChar: multiply
Encoding: 215 215 55
Width: 1421
Flags: W
LayerCount: 2
Fore
SplineSet
184 456 m 1,0,-1
 532 768 l 1,1,-1
 170 1115 l 1,2,-1
 364 1314 l 1,3,-1
 712 949 l 1,4,-1
 1049 1324 l 1,5,-1
 1251 1124 l 1,6,-1
 881 771 l 1,7,-1
 1246 425 l 1,8,-1
 1055 234 l 1,9,-1
 705 593 l 1,10,-1
 396 231 l 1,11,-1
 184 456 l 1,0,-1
EndSplineSet
EndChar

StartChar: divide
Encoding: 247 247 56
Width: 1436
Flags: W
LayerCount: 2
Fore
SplineSet
707 1091 m 0,0,1
 669 1091 669 1091 633.5 1103.5 c 128,-1,2
 598 1116 598 1116 570 1139.5 c 128,-1,3
 542 1163 542 1163 525.5 1197.5 c 128,-1,4
 509 1232 509 1232 509 1277 c 0,5,6
 509 1325 509 1325 530 1366 c 128,-1,7
 551 1407 551 1407 584.5 1436.5 c 128,-1,8
 618 1466 618 1466 659.5 1482.5 c 128,-1,9
 701 1499 701 1499 742 1499 c 0,10,11
 795 1499 795 1499 833 1484.5 c 128,-1,12
 871 1470 871 1470 895.5 1444.5 c 128,-1,13
 920 1419 920 1419 931.5 1384.5 c 128,-1,14
 943 1350 943 1350 943 1310 c 0,15,16
 943 1259 943 1259 922.5 1218.5 c 128,-1,17
 902 1178 902 1178 869 1149.5 c 128,-1,18
 836 1121 836 1121 793.5 1106 c 128,-1,19
 751 1091 751 1091 707 1091 c 0,0,1
217 936 m 1,20,-1
 1219 936 l 1,21,-1
 1219 663 l 1,22,-1
 217 663 l 1,23,-1
 217 936 l 1,20,-1
508 313 m 0,24,25
 508 361 508 361 529 402 c 128,-1,26
 550 443 550 443 583.5 472.5 c 128,-1,27
 617 502 617 502 658.5 518.5 c 128,-1,28
 700 535 700 535 741 535 c 0,29,30
 794 535 794 535 832 520.5 c 128,-1,31
 870 506 870 506 894.5 480.5 c 128,-1,32
 919 455 919 455 930.5 420.5 c 128,-1,33
 942 386 942 386 942 346 c 0,34,35
 942 295 942 295 921.5 254.5 c 128,-1,36
 901 214 901 214 868 185.5 c 128,-1,37
 835 157 835 157 792.5 142 c 128,-1,38
 750 127 750 127 706 127 c 0,39,40
 668 127 668 127 632.5 139.5 c 128,-1,41
 597 152 597 152 569 175.5 c 128,-1,42
 541 199 541 199 524.5 233.5 c 128,-1,43
 508 268 508 268 508 313 c 0,24,25
EndSplineSet
EndChar

StartChar: less
Encoding: 60 60 57
Width: 1489
Flags: W
LayerCount: 2
Fore
SplineSet
210 837 m 1,0,-1
 1179 1340 l 1,1,-1
 1179 1047 l 1,2,-1
 584 767 l 1,3,-1
 1179 521 l 1,4,-1
 1179 217 l 1,5,-1
 210 703 l 1,6,-1
 210 837 l 1,0,-1
EndSplineSet
EndChar

StartChar: greater
Encoding: 62 62 58
Width: 1489
Flags: W
LayerCount: 2
Fore
SplineSet
310 493 m 1,0,-1
 905 772 l 1,1,-1
 310 1019 l 1,2,-1
 310 1323 l 1,3,-1
 1279 837 l 1,4,-1
 1279 703 l 1,5,-1
 310 200 l 1,6,-1
 310 493 l 1,0,-1
EndSplineSet
EndChar

StartChar: numbersign
Encoding: 35 35 59
Width: 1487
Flags: W
LayerCount: 2
Fore
SplineSet
334 345 m 1,0,-1
 117 345 l 1,1,-1
 117 564 l 1,2,-1
 353 564 l 1,3,-1
 378 829 l 1,4,-1
 140 829 l 1,5,-1
 140 1045 l 1,6,-1
 392 1045 l 1,7,-1
 431 1355 l 1,8,-1
 677 1355 l 1,9,-1
 649 1045 l 1,10,-1
 892 1045 l 1,11,-1
 920 1355 l 1,12,-1
 1181 1355 l 1,13,-1
 1155 1045 l 1,14,-1
 1380 1045 l 1,15,-1
 1380 829 l 1,16,-1
 1131 829 l 1,17,-1
 1107 564 l 1,18,-1
 1342 564 l 1,19,20
 1342 509 1342 509 1342.5 454.5 c 128,-1,21
 1343 400 1343 400 1343 345 c 1,22,-1
 1087 345 l 1,23,-1
 1056 0 l 1,24,-1
 801 0 l 1,25,-1
 828 345 l 1,26,-1
 594 345 l 1,27,-1
 560 0 l 1,28,-1
 304 0 l 1,29,-1
 334 345 l 1,0,-1
847 564 m 1,30,-1
 870 829 l 1,31,-1
 637 829 l 1,32,-1
 613 564 l 1,33,-1
 847 564 l 1,30,-1
EndSplineSet
EndChar

StartChar: ampersand
Encoding: 38 38 60
Width: 1662
Flags: W
LayerCount: 2
Fore
SplineSet
89 366 m 0,0,1
 89 433 89 433 115.5 492 c 128,-1,2
 142 551 142 551 187.5 600 c 128,-1,3
 233 649 233 649 294 687.5 c 128,-1,4
 355 726 355 726 424 754 c 0,5,6
 425 754 425 754 426 755 c 1,7,8
 394 799 394 799 363.5 844 c 128,-1,9
 333 889 333 889 309.5 937 c 128,-1,10
 286 985 286 985 271.5 1037 c 128,-1,11
 257 1089 257 1089 259 1147 c 0,12,13
 262 1247 262 1247 305.5 1323 c 128,-1,14
 349 1399 349 1399 417 1450 c 128,-1,15
 485 1501 485 1501 568.5 1526.5 c 128,-1,16
 652 1552 652 1552 734 1552 c 0,17,18
 843 1552 843 1552 930.5 1531 c 128,-1,19
 1018 1510 1018 1510 1079 1467.5 c 128,-1,20
 1140 1425 1140 1425 1172.5 1361 c 128,-1,21
 1205 1297 1205 1297 1205 1212 c 0,22,23
 1205 1135 1205 1135 1176.5 1067.5 c 128,-1,24
 1148 1000 1148 1000 1097 942 c 128,-1,25
 1046 884 1046 884 976 835.5 c 128,-1,26
 906 787 906 787 823 750 c 1,27,28
 859 704 859 704 902.5 652.5 c 128,-1,29
 946 601 946 601 990.5 551 c 128,-1,30
 1035 501 1035 501 1076.5 456.5 c 128,-1,31
 1118 412 1118 412 1151 379 c 1,32,33
 1151 377 1151 377 1153 377 c 1,34,35
 1156 409 1156 409 1157 442 c 128,-1,36
 1158 475 1158 475 1158 507 c 0,37,38
 1158 556 1158 556 1148.5 595 c 128,-1,39
 1139 634 1139 634 1126 663 c 128,-1,40
 1113 692 1113 692 1100 711 c 128,-1,41
 1087 730 1087 730 1080 738 c 1,42,-1
 1410 738 l 1,43,44
 1414 732 1414 732 1424 717.5 c 128,-1,45
 1434 703 1434 703 1443.5 680 c 128,-1,46
 1453 657 1453 657 1460.5 624 c 128,-1,47
 1468 591 1468 591 1468 548 c 0,48,49
 1468 491 1468 491 1458.5 445 c 128,-1,50
 1449 399 1449 399 1432 361 c 128,-1,51
 1415 323 1415 323 1390 290.5 c 128,-1,52
 1365 258 1365 258 1334 228 c 1,53,54
 1395 190 1395 190 1450.5 171.5 c 128,-1,55
 1506 153 1506 153 1557 153 c 1,56,-1
 1557 13 l 1,57,58
 1520 -7 1520 -7 1461 -14 c 128,-1,59
 1402 -21 1402 -21 1337 -16 c 0,60,61
 1307 -14 1307 -14 1278 -10 c 128,-1,62
 1249 -6 1249 -6 1219 0.5 c 128,-1,63
 1189 7 1189 7 1156.5 18 c 128,-1,64
 1124 29 1124 29 1088 46 c 1,65,66
 1024 11 1024 11 943.5 -8.5 c 128,-1,67
 863 -28 863 -28 753 -28 c 0,68,69
 425 -28 425 -28 257 74.5 c 128,-1,70
 89 177 89 177 89 366 c 0,0,1
733 873 m 1,71,72
 780 901 780 901 811.5 934 c 128,-1,73
 843 967 843 967 861.5 1010 c 128,-1,74
 880 1053 880 1053 888 1106.5 c 128,-1,75
 896 1160 896 1160 896 1229 c 0,76,77
 896 1261 896 1261 885 1294 c 128,-1,78
 874 1327 874 1327 853 1354 c 128,-1,79
 832 1381 832 1381 800.5 1398 c 128,-1,80
 769 1415 769 1415 728 1415 c 0,81,82
 705 1415 705 1415 681.5 1408 c 128,-1,83
 658 1401 658 1401 637.5 1384 c 128,-1,84
 617 1367 617 1367 601 1338 c 128,-1,85
 585 1309 585 1309 579 1264 c 0,86,87
 569 1196 569 1196 584 1136.5 c 128,-1,88
 599 1077 599 1077 625.5 1027.5 c 128,-1,89
 652 978 652 978 682 939 c 128,-1,90
 712 900 712 900 733 873 c 1,71,72
434 418 m 0,91,92
 434 336 434 336 468.5 281.5 c 128,-1,93
 503 227 503 227 554.5 194.5 c 128,-1,94
 606 162 606 162 665.5 148.5 c 128,-1,95
 725 135 725 135 776 135 c 0,96,97
 864 135 864 135 930 147 c 1,98,99
 885 187 885 187 834.5 240.5 c 128,-1,100
 784 294 784 294 733 354 c 128,-1,101
 682 414 682 414 632 476.5 c 128,-1,102
 582 539 582 539 538 598 c 1,103,104
 517 581 517 581 498.5 561 c 128,-1,105
 480 541 480 541 465.5 518 c 128,-1,106
 451 495 451 495 442.5 469.5 c 128,-1,107
 434 444 434 444 434 418 c 0,91,92
EndSplineSet
EndChar

StartChar: asterisk
Encoding: 42 42 61
Width: 1315
Flags: W
LayerCount: 2
Fore
SplineSet
522 1088 m 1,0,-1
 576 1203 l 1,1,-1
 493 1100 l 1,2,-1
 241 884 l 1,3,-1
 90 1087 l 1,4,-1
 420 1260 l 1,5,-1
 536 1278 l 1,6,-1
 422 1294 l 1,7,-1
 87 1437 l 1,8,-1
 237 1663 l 1,9,-1
 493 1454 l 1,10,-1
 576 1360 l 1,11,-1
 522 1482 l 1,12,-1
 489 1802 l 1,13,-1
 767 1800 l 1,14,-1
 741 1482 l 1,15,-1
 677 1360 l 1,16,-1
 764 1465 l 1,17,-1
 1013 1660 l 1,18,-1
 1187 1435 l 1,19,-1
 832 1297 l 1,20,-1
 716 1278 l 1,21,-1
 833 1258 l 1,22,-1
 1182 1085 l 1,23,-1
 1008 887 l 1,24,-1
 764 1100 l 1,25,-1
 679 1203 l 1,26,-1
 733 1088 l 1,27,-1
 767 758 l 1,28,-1
 489 758 l 1,29,-1
 522 1088 l 1,0,-1
EndSplineSet
EndChar

StartChar: at
Encoding: 64 64 62
Width: 2194
Flags: W
LayerCount: 2
Fore
SplineSet
128 381 m 0,0,1
 128 546 128 546 170 689 c 128,-1,2
 212 832 212 832 286.5 950 c 128,-1,3
 361 1068 361 1068 464.5 1159.5 c 128,-1,4
 568 1251 568 1251 690.5 1314 c 128,-1,5
 813 1377 813 1377 950.5 1409.5 c 128,-1,6
 1088 1442 1088 1442 1232 1442 c 0,7,8
 1347 1442 1347 1442 1452 1419 c 128,-1,9
 1557 1396 1557 1396 1648 1354.5 c 128,-1,10
 1739 1313 1739 1313 1813 1254 c 128,-1,11
 1887 1195 1887 1195 1939.5 1123 c 128,-1,12
 1992 1051 1992 1051 2020.5 968 c 128,-1,13
 2049 885 2049 885 2049 795 c 0,14,15
 2049 683 2049 683 2023 583 c 128,-1,16
 1997 483 1997 483 1951.5 399 c 128,-1,17
 1906 315 1906 315 1845 248 c 128,-1,18
 1784 181 1784 181 1714 134.5 c 128,-1,19
 1644 88 1644 88 1569 63 c 128,-1,20
 1494 38 1494 38 1421 38 c 0,21,22
 1371 38 1371 38 1336.5 46.5 c 128,-1,23
 1302 55 1302 55 1281 76.5 c 128,-1,24
 1260 98 1260 98 1252 135 c 128,-1,25
 1244 172 1244 172 1246 229 c 1,26,27
 1244 252 1244 252 1242 284 c 128,-1,28
 1240 316 1240 316 1239 350 c 1,29,30
 1228 321 1228 321 1212 285.5 c 128,-1,31
 1196 250 1196 250 1174 213.5 c 128,-1,32
 1152 177 1152 177 1123.5 142.5 c 128,-1,33
 1095 108 1095 108 1059 81 c 128,-1,34
 1023 54 1023 54 978 38 c 128,-1,35
 933 22 933 22 878 22 c 0,36,37
 827 22 827 22 774.5 47.5 c 128,-1,38
 722 73 722 73 681 124 c 128,-1,39
 640 175 640 175 614.5 251.5 c 128,-1,40
 589 328 589 328 592 430 c 0,41,42
 595 553 595 553 630.5 666.5 c 128,-1,43
 666 780 666 780 730.5 867 c 128,-1,44
 795 954 795 954 885.5 1006.5 c 128,-1,45
 976 1059 976 1059 1090 1059 c 0,46,47
 1147 1059 1147 1059 1206.5 1054 c 128,-1,48
 1266 1049 1266 1049 1326 1021 c 1,49,50
 1332 1039 1332 1039 1346 1050 c 0,51,52
 1359 1060 1359 1060 1381 1057 c 1,53,-1
 1578 1009 l 1,54,55
 1547 897 1547 897 1528 766 c 128,-1,56
 1509 635 1509 635 1495 492 c 0,57,58
 1489 439 1489 439 1490 393.5 c 128,-1,59
 1491 348 1491 348 1497 315 c 128,-1,60
 1503 282 1503 282 1513 263.5 c 128,-1,61
 1523 245 1523 245 1535 245 c 0,62,63
 1561 245 1561 245 1601 279 c 128,-1,64
 1641 313 1641 313 1679 372 c 128,-1,65
 1717 431 1717 431 1744.5 509 c 128,-1,66
 1772 587 1772 587 1772 676 c 0,67,68
 1772 807 1772 807 1745.5 901.5 c 128,-1,69
 1719 996 1719 996 1673 1060.5 c 128,-1,70
 1627 1125 1627 1125 1565.5 1163.5 c 128,-1,71
 1504 1202 1504 1202 1435 1222.5 c 128,-1,72
 1366 1243 1366 1243 1292 1249.5 c 128,-1,73
 1218 1256 1218 1256 1148 1256 c 0,74,75
 1069 1256 1069 1256 983 1230 c 128,-1,76
 897 1204 897 1204 814.5 1155.5 c 128,-1,77
 732 1107 732 1107 657 1038 c 128,-1,78
 582 969 582 969 525.5 884 c 128,-1,79
 469 799 469 799 435.5 700 c 128,-1,80
 402 601 402 601 402 491 c 0,81,82
 402 356 402 356 434 250.5 c 128,-1,83
 466 145 466 145 522 65.5 c 128,-1,84
 578 -14 578 -14 654.5 -67.5 c 128,-1,85
 731 -121 731 -121 820.5 -152 c 128,-1,86
 910 -183 910 -183 1008.5 -193 c 128,-1,87
 1107 -203 1107 -203 1207 -193 c 0,88,89
 1313 -183 1313 -183 1390 -168.5 c 128,-1,90
 1467 -154 1467 -154 1510 -125 c 1,91,-1
 1560 -277 l 1,92,93
 1523 -303 1523 -303 1484 -324.5 c 128,-1,94
 1445 -346 1445 -346 1389 -361 c 128,-1,95
 1333 -376 1333 -376 1251.5 -384.5 c 128,-1,96
 1170 -393 1170 -393 1049 -393 c 0,97,98
 923 -393 923 -393 805.5 -369 c 128,-1,99
 688 -345 688 -345 585.5 -298.5 c 128,-1,100
 483 -252 483 -252 399 -185 c 128,-1,101
 315 -118 315 -118 254.5 -32 c 128,-1,102
 194 54 194 54 161 157.5 c 128,-1,103
 128 261 128 261 128 381 c 0,0,1
947 252 m 0,104,105
 963 252 963 252 992 284.5 c 128,-1,106
 1021 317 1021 317 1055 368 c 128,-1,107
 1089 419 1089 419 1123 481.5 c 128,-1,108
 1157 544 1157 544 1182.5 605 c 128,-1,109
 1208 666 1208 666 1220.5 717 c 128,-1,110
 1233 768 1233 768 1224 797 c 1,111,112
 1202 814 1202 814 1168.5 826 c 128,-1,113
 1135 838 1135 838 1105 838 c 0,114,115
 1057 838 1057 838 1016.5 823.5 c 128,-1,116
 976 809 976 809 946 777 c 128,-1,117
 916 745 916 745 897.5 693.5 c 128,-1,118
 879 642 879 642 875 568 c 0,119,120
 872 520 872 520 872.5 465 c 128,-1,121
 873 410 873 410 881 362.5 c 128,-1,122
 889 315 889 315 904.5 283.5 c 128,-1,123
 920 252 920 252 947 252 c 0,104,105
EndSplineSet
EndChar

StartChar: logicalnot
Encoding: 172 172 63
Width: 1436
Flags: W
LayerCount: 2
Fore
SplineSet
210 742 m 1,0,-1
 1249 742 l 1,1,-1
 1249 151 l 1,2,-1
 935 151 l 1,3,-1
 935 529 l 1,4,-1
 210 529 l 1,5,-1
 210 742 l 1,0,-1
EndSplineSet
EndChar

StartChar: mu
Encoding: 181 181 64
AltUni2: 0003bc.ffffffff.0 0003bc.ffffffff.0
Width: 1289
Flags: W
LayerCount: 2
Fore
SplineSet
390 -373 m 1,0,-1
 139 -373 l 1,1,-1
 139 465 l 1,2,-1
 139 495 l 1,3,-1
 139 858 l 1,4,-1
 30 928 l 1,5,-1
 30 1056 l 1,6,-1
 433 1151 l 1,7,-1
 486 1134 l 1,8,-1
 486 412 l 2,9,10
 486 344 486 344 500 300.5 c 128,-1,11
 514 257 514 257 538.5 231 c 128,-1,12
 563 205 563 205 596.5 195 c 128,-1,13
 630 185 630 185 669 185 c 0,14,15
 720 185 720 185 760 192 c 128,-1,16
 800 199 800 199 817 210 c 1,17,-1
 817 851 l 1,18,-1
 690 922 l 1,19,-1
 690 1060 l 1,20,-1
 1108 1151 l 1,21,-1
 1164 1134 l 1,22,-1
 1164 136 l 1,23,-1
 1278 136 l 1,24,-1
 1278 29 l 1,25,26
 1261 17 1261 17 1230.5 6.5 c 128,-1,27
 1200 -4 1200 -4 1161 -11.5 c 128,-1,28
 1122 -19 1122 -19 1079 -23.5 c 128,-1,29
 1036 -28 1036 -28 995 -28 c 0,30,31
 965 -28 965 -28 939 -22 c 128,-1,32
 913 -16 913 -16 893.5 -3 c 128,-1,33
 874 10 874 10 863 31 c 128,-1,34
 852 52 852 52 852 82 c 2,35,-1
 852 110 l 1,36,37
 823 75 823 75 781.5 49.5 c 128,-1,38
 740 24 740 24 694 6.5 c 128,-1,39
 648 -11 648 -11 603 -19.5 c 128,-1,40
 558 -28 558 -28 522 -28 c 0,41,42
 447 -28 447 -28 390 -16 c 1,43,-1
 390 -373 l 1,0,-1
EndSplineSet
EndChar

StartChar: period
Encoding: 46 46 65
Width: 777
Flags: W
LayerCount: 2
Fore
SplineSet
176 157 m 0,0,1
 176 205 176 205 198 246.5 c 128,-1,2
 220 288 220 288 254.5 318.5 c 128,-1,3
 289 349 289 349 331 366.5 c 128,-1,4
 373 384 373 384 414 384 c 0,5,6
 467 384 467 384 506 368.5 c 128,-1,7
 545 353 545 353 570.5 327 c 128,-1,8
 596 301 596 301 608.5 265.5 c 128,-1,9
 621 230 621 230 621 190 c 0,10,11
 621 139 621 139 600 98.5 c 128,-1,12
 579 58 579 58 544.5 29.5 c 128,-1,13
 510 1 510 1 466.5 -14 c 128,-1,14
 423 -29 423 -29 379 -29 c 0,15,16
 341 -29 341 -29 304.5 -16.5 c 128,-1,17
 268 -4 268 -4 239.5 19.5 c 128,-1,18
 211 43 211 43 193.5 77.5 c 128,-1,19
 176 112 176 112 176 157 c 0,0,1
EndSplineSet
EndChar

StartChar: periodcentered
Encoding: 183 183 66
Width: 767
Flags: W
LayerCount: 2
Fore
SplineSet
364 603 m 0,0,1
 326 603 326 603 289.5 615.5 c 128,-1,2
 253 628 253 628 224.5 651.5 c 128,-1,3
 196 675 196 675 178.5 709.5 c 128,-1,4
 161 744 161 744 161 789 c 0,5,6
 161 837 161 837 183 878.5 c 128,-1,7
 205 920 205 920 239.5 950.5 c 128,-1,8
 274 981 274 981 316 998.5 c 128,-1,9
 358 1016 358 1016 399 1016 c 0,10,11
 452 1016 452 1016 491 1000.5 c 128,-1,12
 530 985 530 985 555.5 959 c 128,-1,13
 581 933 581 933 593.5 897.5 c 128,-1,14
 606 862 606 862 606 822 c 0,15,16
 606 771 606 771 585 730.5 c 128,-1,17
 564 690 564 690 529.5 661.5 c 128,-1,18
 495 633 495 633 451.5 618 c 128,-1,19
 408 603 408 603 364 603 c 0,0,1
EndSplineSet
EndChar

StartChar: bullet
Encoding: 8226 8226 67
Width: 902
Flags: W
LayerCount: 2
Fore
SplineSet
429 442 m 0,0,1
 360 442 360 442 298.5 469 c 128,-1,2
 237 496 237 496 192 542 c 128,-1,3
 147 588 147 588 123 649 c 128,-1,4
 99 710 99 710 105 777 c 1,5,6
 110 847 110 847 141 907 c 128,-1,7
 172 967 172 967 220.5 1011.5 c 128,-1,8
 269 1056 269 1056 332 1081.5 c 128,-1,9
 395 1107 395 1107 464 1107 c 256,10,11
 533 1107 533 1107 594 1081.5 c 128,-1,12
 655 1056 655 1056 699.5 1011.5 c 128,-1,13
 744 967 744 967 768 907 c 128,-1,14
 792 847 792 847 787 777 c 256,15,16
 782 707 782 707 751.5 646 c 128,-1,17
 721 585 721 585 672.5 539.5 c 128,-1,18
 624 494 624 494 561.5 468 c 128,-1,19
 499 442 499 442 429 442 c 0,0,1
EndSplineSet
EndChar

StartChar: comma
Encoding: 44 44 68
Width: 791
Flags: W
LayerCount: 2
Fore
SplineSet
140 152 m 1,0,-1
 372 440 l 1,1,2
 449 413 449 413 500.5 361.5 c 128,-1,3
 552 310 552 310 583.5 248.5 c 128,-1,4
 615 187 615 187 627.5 123 c 128,-1,5
 640 59 640 59 639 9 c 0,6,7
 637 -68 637 -68 617 -134 c 128,-1,8
 597 -200 597 -200 564.5 -255.5 c 128,-1,9
 532 -311 532 -311 489 -356 c 128,-1,10
 446 -401 446 -401 399 -436.5 c 128,-1,11
 352 -472 352 -472 302.5 -497.5 c 128,-1,12
 253 -523 253 -523 208 -540 c 1,13,-1
 104 -447 l 1,14,-1
 104 -404 l 1,15,16
 135 -392 135 -392 169 -365 c 128,-1,17
 203 -338 203 -338 232 -300 c 128,-1,18
 261 -262 261 -262 280 -216.5 c 128,-1,19
 299 -171 299 -171 299 -123 c 0,20,21
 299 -89 299 -89 285.5 -54.5 c 128,-1,22
 272 -20 272 -20 250 7.5 c 128,-1,23
 228 35 228 35 199.5 53.5 c 128,-1,24
 171 72 171 72 140 75 c 1,25,-1
 140 152 l 1,0,-1
EndSplineSet
EndChar

StartChar: colon
Encoding: 58 58 69
Width: 779
Flags: W
LayerCount: 2
Fore
SplineSet
379 702 m 0,0,1
 341 702 341 702 304.5 714.5 c 128,-1,2
 268 727 268 727 239.5 750.5 c 128,-1,3
 211 774 211 774 193.5 808.5 c 128,-1,4
 176 843 176 843 176 888 c 0,5,6
 176 936 176 936 198 977.5 c 128,-1,7
 220 1019 220 1019 254.5 1049.5 c 128,-1,8
 289 1080 289 1080 331 1097.5 c 128,-1,9
 373 1115 373 1115 414 1115 c 0,10,11
 467 1115 467 1115 506 1099.5 c 128,-1,12
 545 1084 545 1084 570.5 1058 c 128,-1,13
 596 1032 596 1032 608.5 996.5 c 128,-1,14
 621 961 621 961 621 921 c 0,15,16
 621 870 621 870 600 829.5 c 128,-1,17
 579 789 579 789 544.5 760.5 c 128,-1,18
 510 732 510 732 466.5 717 c 128,-1,19
 423 702 423 702 379 702 c 0,0,1
176 150 m 0,20,21
 176 198 176 198 198 239.5 c 128,-1,22
 220 281 220 281 254.5 311.5 c 128,-1,23
 289 342 289 342 331 359.5 c 128,-1,24
 373 377 373 377 414 377 c 0,25,26
 467 377 467 377 506 361.5 c 128,-1,27
 545 346 545 346 570.5 320 c 128,-1,28
 596 294 596 294 608.5 258.5 c 128,-1,29
 621 223 621 223 621 183 c 0,30,31
 621 132 621 132 600 91.5 c 128,-1,32
 579 51 579 51 544.5 22.5 c 128,-1,33
 510 -6 510 -6 466.5 -21 c 128,-1,34
 423 -36 423 -36 379 -36 c 0,35,36
 341 -36 341 -36 304.5 -23.5 c 128,-1,37
 268 -11 268 -11 239.5 12.5 c 128,-1,38
 211 36 211 36 193.5 70.5 c 128,-1,39
 176 105 176 105 176 150 c 0,20,21
EndSplineSet
EndChar

StartChar: semicolon
Encoding: 59 59 70
Width: 821
Flags: W
LayerCount: 2
Fore
SplineSet
379 702 m 0,0,1
 341 702 341 702 304.5 714.5 c 128,-1,2
 268 727 268 727 239.5 750.5 c 128,-1,3
 211 774 211 774 193.5 808.5 c 128,-1,4
 176 843 176 843 176 888 c 0,5,6
 176 936 176 936 198 977.5 c 128,-1,7
 220 1019 220 1019 254.5 1049.5 c 128,-1,8
 289 1080 289 1080 331 1097.5 c 128,-1,9
 373 1115 373 1115 414 1115 c 0,10,11
 467 1115 467 1115 506 1099.5 c 128,-1,12
 545 1084 545 1084 570.5 1058 c 128,-1,13
 596 1032 596 1032 608.5 996.5 c 128,-1,14
 621 961 621 961 621 921 c 0,15,16
 621 870 621 870 600 829.5 c 128,-1,17
 579 789 579 789 544.5 760.5 c 128,-1,18
 510 732 510 732 466.5 717 c 128,-1,19
 423 702 423 702 379 702 c 0,0,1
170 152 m 1,20,-1
 402 440 l 1,21,22
 479 413 479 413 530.5 361.5 c 128,-1,23
 582 310 582 310 613.5 248.5 c 128,-1,24
 645 187 645 187 657.5 123 c 128,-1,25
 670 59 670 59 669 9 c 0,26,27
 667 -68 667 -68 647 -134 c 128,-1,28
 627 -200 627 -200 594.5 -255.5 c 128,-1,29
 562 -311 562 -311 519 -356 c 128,-1,30
 476 -401 476 -401 429 -436.5 c 128,-1,31
 382 -472 382 -472 332.5 -497.5 c 128,-1,32
 283 -523 283 -523 238 -540 c 1,33,-1
 134 -447 l 1,34,-1
 134 -404 l 1,35,36
 165 -392 165 -392 199 -365 c 128,-1,37
 233 -338 233 -338 262 -300 c 128,-1,38
 291 -262 291 -262 310 -216.5 c 128,-1,39
 329 -171 329 -171 329 -123 c 0,40,41
 329 -89 329 -89 315.5 -54.5 c 128,-1,42
 302 -20 302 -20 280 7.5 c 128,-1,43
 258 35 258 35 229.5 53.5 c 128,-1,44
 201 72 201 72 170 75 c 1,45,-1
 170 152 l 1,20,-1
EndSplineSet
EndChar

StartChar: question
Encoding: 63 63 71
Width: 1117
Flags: W
LayerCount: 2
Fore
SplineSet
408 543 m 1,0,1
 363 586 363 586 331.5 629 c 128,-1,2
 300 672 300 672 280 712.5 c 128,-1,3
 260 753 260 753 250.5 789 c 128,-1,4
 241 825 241 825 241 853 c 0,5,6
 241 892 241 892 263.5 923 c 128,-1,7
 286 954 286 954 323.5 978.5 c 128,-1,8
 361 1003 361 1003 409 1022.5 c 128,-1,9
 457 1042 457 1042 508 1058 c 128,-1,10
 559 1074 559 1074 608 1088 c 128,-1,11
 657 1102 657 1102 697 1116 c 128,-1,12
 737 1130 737 1130 764 1144.5 c 128,-1,13
 791 1159 791 1159 796 1177 c 1,14,15
 792 1254 792 1254 766.5 1313 c 128,-1,16
 741 1372 741 1372 702 1415.5 c 128,-1,17
 663 1459 663 1459 615.5 1488.5 c 128,-1,18
 568 1518 568 1518 520 1535.5 c 128,-1,19
 472 1553 472 1553 429 1561.5 c 128,-1,20
 386 1570 386 1570 356 1571 c 0,21,22
 263 1575 263 1575 208.5 1567 c 128,-1,23
 154 1559 154 1559 128 1538 c 1,24,-1
 113 1810 l 1,25,26
 120 1820 120 1820 146 1830 c 128,-1,27
 172 1840 172 1840 208 1847.5 c 128,-1,28
 244 1855 244 1855 285 1858.5 c 128,-1,29
 326 1862 326 1862 363 1861 c 0,30,31
 485 1856 485 1856 579 1827.5 c 128,-1,32
 673 1799 673 1799 743.5 1754.5 c 128,-1,33
 814 1710 814 1710 862 1653 c 128,-1,34
 910 1596 910 1596 939.5 1534 c 128,-1,35
 969 1472 969 1472 982.5 1407.5 c 128,-1,36
 996 1343 996 1343 997 1284.5 c 128,-1,37
 998 1226 998 1226 988.5 1176 c 128,-1,38
 979 1126 979 1126 963 1092 c 1,39,40
 954 1077 954 1077 927.5 1061.5 c 128,-1,41
 901 1046 901 1046 864 1029.5 c 128,-1,42
 827 1013 827 1013 784.5 995 c 128,-1,43
 742 977 742 977 701.5 957.5 c 128,-1,44
 661 938 661 938 626 916 c 128,-1,45
 591 894 591 894 571 870 c 0,46,47
 559 856 559 856 559 830.5 c 128,-1,48
 559 805 559 805 566 772.5 c 128,-1,49
 573 740 573 740 585.5 705 c 128,-1,50
 598 670 598 670 611.5 638 c 128,-1,51
 625 606 625 606 637.5 580.5 c 128,-1,52
 650 555 650 555 658 543 c 1,53,-1
 408 543 l 1,0,1
379 157 m 0,54,55
 379 205 379 205 401 246.5 c 128,-1,56
 423 288 423 288 457.5 318.5 c 128,-1,57
 492 349 492 349 534 366.5 c 128,-1,58
 576 384 576 384 617 384 c 0,59,60
 670 384 670 384 709 368.5 c 128,-1,61
 748 353 748 353 773.5 327 c 128,-1,62
 799 301 799 301 811.5 265.5 c 128,-1,63
 824 230 824 230 824 190 c 0,64,65
 824 139 824 139 803 98.5 c 128,-1,66
 782 58 782 58 747.5 29.5 c 128,-1,67
 713 1 713 1 669.5 -14 c 128,-1,68
 626 -29 626 -29 582 -29 c 0,69,70
 544 -29 544 -29 507.5 -16.5 c 128,-1,71
 471 -4 471 -4 442.5 19.5 c 128,-1,72
 414 43 414 43 396.5 77.5 c 128,-1,73
 379 112 379 112 379 157 c 0,54,55
EndSplineSet
EndChar

StartChar: questiondown
Encoding: 191 191 72
Width: 1072
Flags: W
LayerCount: 2
Fore
SplineSet
457 1047 m 0,0,1
 419 1047 419 1047 382.5 1059.5 c 128,-1,2
 346 1072 346 1072 317.5 1095.5 c 128,-1,3
 289 1119 289 1119 271.5 1153.5 c 128,-1,4
 254 1188 254 1188 254 1233 c 0,5,6
 254 1281 254 1281 276 1322.5 c 128,-1,7
 298 1364 298 1364 332.5 1394.5 c 128,-1,8
 367 1425 367 1425 409 1442.5 c 128,-1,9
 451 1460 451 1460 492 1460 c 0,10,11
 545 1460 545 1460 584 1444.5 c 128,-1,12
 623 1429 623 1429 648.5 1403 c 128,-1,13
 674 1377 674 1377 686.5 1341.5 c 128,-1,14
 699 1306 699 1306 699 1266 c 0,15,16
 699 1215 699 1215 678 1174.5 c 128,-1,17
 657 1134 657 1134 622.5 1105.5 c 128,-1,18
 588 1077 588 1077 544.5 1062 c 128,-1,19
 501 1047 501 1047 457 1047 c 0,0,1
55 268 m 0,20,21
 60 291 60 291 66 311 c 128,-1,22
 72 331 72 331 80 348 c 1,23,24
 88 361 88 361 118.5 376.5 c 128,-1,25
 149 392 149 392 191 410 c 128,-1,26
 233 428 233 428 280.5 448 c 128,-1,27
 328 468 328 468 370.5 490 c 128,-1,28
 413 512 413 512 444 536 c 128,-1,29
 475 560 475 560 484 585 c 1,30,31
 495 609 495 609 493.5 648 c 128,-1,32
 492 687 492 687 482 730 c 128,-1,33
 472 773 472 773 454.5 816 c 128,-1,34
 437 859 437 859 417 892 c 1,35,-1
 677 892 l 1,36,37
 699 876 699 876 728.5 847 c 128,-1,38
 758 818 758 818 786.5 781 c 128,-1,39
 815 744 815 744 838 702.5 c 128,-1,40
 861 661 861 661 870 621 c 1,41,42
 878 577 878 577 857.5 540 c 128,-1,43
 837 503 837 503 798 472 c 128,-1,44
 759 441 759 441 707.5 416.5 c 128,-1,45
 656 392 656 392 600.5 371.5 c 128,-1,46
 545 351 545 351 491.5 335 c 128,-1,47
 438 319 438 319 396 306.5 c 128,-1,48
 354 294 354 294 328 283.5 c 128,-1,49
 302 273 302 273 303 265 c 0,50,51
 310 194 310 194 334 140.5 c 128,-1,52
 358 87 358 87 393 47.5 c 128,-1,53
 428 8 428 8 470 -18.5 c 128,-1,54
 512 -45 512 -45 554.5 -61 c 128,-1,55
 597 -77 597 -77 637 -83.5 c 128,-1,56
 677 -90 677 -90 707 -90 c 0,57,58
 732 -90 732 -90 764 -89.5 c 128,-1,59
 796 -89 796 -89 829 -85.5 c 128,-1,60
 862 -82 862 -82 893 -75 c 128,-1,61
 924 -68 924 -68 948 -55 c 1,62,-1
 948 -353 l 1,63,64
 937 -366 937 -366 910 -376.5 c 128,-1,65
 883 -387 883 -387 848 -394 c 128,-1,66
 813 -401 813 -401 773 -405 c 128,-1,67
 733 -409 733 -409 696 -409 c 0,68,69
 551 -409 551 -409 444 -375.5 c 128,-1,70
 337 -342 337 -342 262 -287 c 128,-1,71
 187 -232 187 -232 141 -161 c 128,-1,72
 95 -90 95 -90 72 -14.5 c 128,-1,73
 49 61 49 61 46 134.5 c 128,-1,74
 43 208 43 208 55 268 c 0,20,21
EndSplineSet
EndChar

StartChar: exclam
Encoding: 33 33 73
Width: 767
Flags: W
LayerCount: 2
Fore
SplineSet
164 1780 m 1,0,-1
 643 1780 l 1,1,-1
 490 568 l 1,2,-1
 308 568 l 1,3,-1
 164 1780 l 1,0,-1
176 157 m 0,4,5
 176 205 176 205 198 246.5 c 128,-1,6
 220 288 220 288 254.5 318.5 c 128,-1,7
 289 349 289 349 331 366.5 c 128,-1,8
 373 384 373 384 414 384 c 0,9,10
 467 384 467 384 506 368.5 c 128,-1,11
 545 353 545 353 570.5 327 c 128,-1,12
 596 301 596 301 608.5 265.5 c 128,-1,13
 621 230 621 230 621 190 c 0,14,15
 621 139 621 139 600 98.5 c 128,-1,16
 579 58 579 58 544.5 29.5 c 128,-1,17
 510 1 510 1 466.5 -14 c 128,-1,18
 423 -29 423 -29 379 -29 c 0,19,20
 341 -29 341 -29 304.5 -16.5 c 128,-1,21
 268 -4 268 -4 239.5 19.5 c 128,-1,22
 211 43 211 43 193.5 77.5 c 128,-1,23
 176 112 176 112 176 157 c 0,4,5
EndSplineSet
EndChar

StartChar: exclamdown
Encoding: 161 161 74
Width: 756
Flags: W
LayerCount: 2
Fore
SplineSet
379 1027 m 0,0,1
 341 1027 341 1027 304.5 1039.5 c 128,-1,2
 268 1052 268 1052 239.5 1075.5 c 128,-1,3
 211 1099 211 1099 193.5 1133.5 c 128,-1,4
 176 1168 176 1168 176 1213 c 0,5,6
 176 1261 176 1261 198 1302.5 c 128,-1,7
 220 1344 220 1344 254.5 1374.5 c 128,-1,8
 289 1405 289 1405 331 1422.5 c 128,-1,9
 373 1440 373 1440 414 1440 c 0,10,11
 467 1440 467 1440 506 1424.5 c 128,-1,12
 545 1409 545 1409 570.5 1383 c 128,-1,13
 596 1357 596 1357 608.5 1321.5 c 128,-1,14
 621 1286 621 1286 621 1246 c 0,15,16
 621 1195 621 1195 600 1154.5 c 128,-1,17
 579 1114 579 1114 544.5 1085.5 c 128,-1,18
 510 1057 510 1057 466.5 1042 c 128,-1,19
 423 1027 423 1027 379 1027 c 0,0,1
296 825 m 1,20,-1
 478 825 l 1,21,-1
 622 -445 l 1,22,-1
 143 -445 l 1,23,-1
 296 825 l 1,20,-1
EndSplineSet
EndChar

StartChar: hyphen
Encoding: 45 45 75
Width: 731
Flags: W
LayerCount: 2
Fore
SplineSet
110 884 m 1,0,-1
 621 884 l 1,1,-1
 621 650 l 1,2,-1
 110 650 l 1,3,-1
 110 884 l 1,0,-1
EndSplineSet
EndChar

StartChar: uni00AD
Encoding: 173 173 76
Width: 952
Flags: W
LayerCount: 2
Fore
SplineSet
110 709 m 1,0,-1
 842 709 l 1,1,-1
 842 475 l 1,2,-1
 110 475 l 1,3,-1
 110 709 l 1,0,-1
EndSplineSet
EndChar

StartChar: endash
Encoding: 8211 8211 77
Width: 1244
Flags: W
LayerCount: 2
Fore
SplineSet
110 707 m 1,0,-1
 1134 707 l 1,1,-1
 1134 471 l 1,2,-1
 110 471 l 1,3,-1
 110 707 l 1,0,-1
EndSplineSet
EndChar

StartChar: emdash
Encoding: 8212 8212 78
Width: 2269
Flags: W
LayerCount: 2
Fore
SplineSet
110 709 m 1,0,-1
 2159 709 l 1,1,-1
 2159 475 l 1,2,-1
 110 475 l 1,3,-1
 110 709 l 1,0,-1
EndSplineSet
EndChar

StartChar: underscore
Encoding: 95 95 79
Width: 1123
Flags: W
LayerCount: 2
Fore
SplineSet
1118 -193 m 1,0,-1
 1118 -427 l 1,1,-1
 -10 -427 l 1,2,-1
 -10 -193 l 1,3,-1
 1118 -193 l 1,0,-1
EndSplineSet
EndChar

StartChar: slash
Encoding: 47 47 80
Width: 775
Flags: W
LayerCount: 2
Fore
SplineSet
402 1599 m 1,0,-1
 745 1599 l 1,1,-1
 313 -363 l 1,2,-1
 -29 -363 l 1,3,-1
 402 1599 l 1,0,-1
EndSplineSet
EndChar

StartChar: backslash
Encoding: 92 92 81
Width: 775
Flags: W
LayerCount: 2
Fore
SplineSet
30 1599 m 1,0,-1
 372 1599 l 1,1,-1
 804 -363 l 1,2,-1
 461 -363 l 1,3,-1
 30 1599 l 1,0,-1
EndSplineSet
EndChar

StartChar: bar
Encoding: 124 124 82
Width: 1082
Flags: W
LayerCount: 2
Fore
SplineSet
364 1780 m 1,0,-1
 718 1780 l 1,1,-1
 718 -186 l 1,2,-1
 364 -186 l 1,3,-1
 364 1780 l 1,0,-1
EndSplineSet
EndChar

StartChar: brokenbar
Encoding: 166 166 83
Width: 1082
Flags: W
LayerCount: 2
Fore
SplineSet
364 1780 m 1,0,-1
 718 1780 l 1,1,-1
 718 887 l 1,2,-1
 364 887 l 1,3,-1
 364 1780 l 1,0,-1
364 708 m 1,4,-1
 718 708 l 1,5,-1
 718 -185 l 1,6,-1
 364 -185 l 1,7,-1
 364 708 l 1,4,-1
EndSplineSet
EndChar

StartChar: A
Encoding: 65 65 84
Width: 1551
Flags: W
LayerCount: 2
Fore
SplineSet
3 140 m 1,0,-1
 129 179 l 1,1,-1
 592 1531 l 1,2,-1
 925 1531 l 1,3,-1
 1391 178 l 1,4,-1
 1543 138 l 1,5,-1
 1543 0 l 1,6,-1
 859 0 l 1,7,-1
 859 138 l 1,8,-1
 994 184 l 1,9,-1
 952 335 l 1,10,-1
 449 335 l 1,11,-1
 407 188 l 1,12,-1
 563 140 l 1,13,-1
 563 0 l 1,14,-1
 3 0 l 1,15,-1
 3 140 l 1,0,-1
897 531 m 1,16,-1
 776 967 l 1,17,-1
 703 1241 l 1,18,-1
 504 531 l 1,19,-1
 897 531 l 1,16,-1
EndSplineSet
EndChar

StartChar: B
Encoding: 66 66 85
Width: 1464
Flags: W
LayerCount: 2
Fore
SplineSet
95 140 m 1,0,-1
 250 183 l 1,1,-1
 250 1345 l 1,2,-1
 99 1367 l 1,3,-1
 99 1531 l 1,4,-1
 411 1531 l 1,5,6
 408 1533 408 1533 438.5 1534.5 c 128,-1,7
 469 1536 469 1536 519 1537 c 128,-1,8
 569 1538 569 1538 632.5 1539.5 c 128,-1,9
 696 1541 696 1541 760 1543 c 0,10,11
 1038 1552 1038 1552 1179 1462 c 128,-1,12
 1320 1372 1320 1372 1320 1197 c 0,13,14
 1320 1136 1320 1136 1304 1079 c 128,-1,15
 1288 1022 1288 1022 1255.5 974.5 c 128,-1,16
 1223 927 1223 927 1174 891.5 c 128,-1,17
 1125 856 1125 856 1058 838 c 1,18,19
 1132 838 1132 838 1198.5 808.5 c 128,-1,20
 1265 779 1265 779 1315.5 728 c 128,-1,21
 1366 677 1366 677 1396 609 c 128,-1,22
 1426 541 1426 541 1426 464 c 0,23,24
 1426 348 1426 348 1382.5 259.5 c 128,-1,25
 1339 171 1339 171 1249 111 c 128,-1,26
 1159 51 1159 51 1021.5 20 c 128,-1,27
 884 -11 884 -11 696 -11 c 0,28,29
 651 -11 651 -11 612 -9.5 c 128,-1,30
 573 -8 573 -8 531 -5.5 c 128,-1,31
 489 -3 489 -3 439 -1.5 c 128,-1,32
 389 0 389 0 321 0 c 2,33,-1
 95 0 l 1,34,-1
 95 140 l 1,0,-1
604 882 m 1,35,36
 620 877 620 877 650 875.5 c 128,-1,37
 680 874 680 874 734 874 c 0,38,39
 795 874 795 874 836.5 888.5 c 128,-1,40
 878 903 878 903 905.5 927 c 128,-1,41
 933 951 933 951 948 982.5 c 128,-1,42
 963 1014 963 1014 969.5 1047 c 128,-1,43
 976 1080 976 1080 977.5 1112.5 c 128,-1,44
 979 1145 979 1145 979 1172 c 0,45,46
 979 1220 979 1220 967.5 1260.5 c 128,-1,47
 956 1301 956 1301 926 1330.5 c 128,-1,48
 896 1360 896 1360 844 1376 c 128,-1,49
 792 1392 792 1392 712 1392 c 0,50,51
 701 1392 701 1392 686 1391 c 128,-1,52
 671 1390 671 1390 656 1388.5 c 128,-1,53
 641 1387 641 1387 627.5 1384 c 128,-1,54
 614 1381 614 1381 606 1377 c 1,55,-1
 604 882 l 1,35,36
602 164 m 1,56,57
 627 151 627 151 672.5 144 c 128,-1,58
 718 137 718 137 787 137 c 0,59,60
 869 137 869 137 920.5 167.5 c 128,-1,61
 972 198 972 198 1001.5 244.5 c 128,-1,62
 1031 291 1031 291 1042 345.5 c 128,-1,63
 1053 400 1053 400 1053 448 c 0,64,65
 1053 500 1053 500 1041.5 549.5 c 128,-1,66
 1030 599 1030 599 1000.5 638 c 128,-1,67
 971 677 971 677 921 700.5 c 128,-1,68
 871 724 871 724 793 724 c 0,69,70
 748 724 748 724 699.5 723 c 128,-1,71
 651 722 651 722 602 712 c 1,72,-1
 602 164 l 1,56,57
EndSplineSet
EndChar

StartChar: C
Encoding: 67 67 86
Width: 1459
Flags: W
LayerCount: 2
Fore
SplineSet
60 724 m 0,0,1
 60 853 60 853 94 964.5 c 128,-1,2
 128 1076 128 1076 188 1167 c 128,-1,3
 248 1258 248 1258 330.5 1328 c 128,-1,4
 413 1398 413 1398 510.5 1446 c 128,-1,5
 608 1494 608 1494 717.5 1518.5 c 128,-1,6
 827 1543 827 1543 940 1543 c 0,7,8
 1016 1543 1016 1543 1079 1536 c 128,-1,9
 1142 1529 1142 1529 1194 1519 c 128,-1,10
 1246 1509 1246 1509 1287.5 1498.5 c 128,-1,11
 1329 1488 1329 1488 1364 1481 c 1,12,-1
 1344 1092 l 1,13,-1
 1134 1092 l 1,14,-1
 1061 1297 l 1,15,16
 1051 1312 1051 1312 1036.5 1323.5 c 128,-1,17
 1022 1335 1022 1335 998 1343 c 128,-1,18
 974 1351 974 1351 937 1355.5 c 128,-1,19
 900 1360 900 1360 845 1360 c 0,20,21
 762 1360 762 1360 691 1326 c 128,-1,22
 620 1292 620 1292 567.5 1224.5 c 128,-1,23
 515 1157 515 1157 485 1054.5 c 128,-1,24
 455 952 455 952 455 816 c 0,25,26
 455 730 455 730 467 647 c 128,-1,27
 479 564 479 564 502.5 490 c 128,-1,28
 526 416 526 416 560.5 353.5 c 128,-1,29
 595 291 595 291 641 245 c 128,-1,30
 687 199 687 199 744 172 c 128,-1,31
 801 145 801 145 868 143 c 1,32,33
 932 140 932 140 974 147.5 c 128,-1,34
 1016 155 1016 155 1041.5 168 c 128,-1,35
 1067 181 1067 181 1077.5 196 c 128,-1,36
 1088 211 1088 211 1089 223 c 1,37,-1
 1171 424 l 1,38,-1
 1365 424 l 1,39,-1
 1365 67 l 1,40,41
 1327 65 1327 65 1284 50 c 128,-1,42
 1241 35 1241 35 1181 18 c 128,-1,43
 1121 1 1121 1 1039 -13.5 c 128,-1,44
 957 -28 957 -28 843 -28 c 0,45,46
 651 -28 651 -28 504.5 30.5 c 128,-1,47
 358 89 358 89 259.5 191 c 128,-1,48
 161 293 161 293 110.5 430 c 128,-1,49
 60 567 60 567 60 724 c 0,0,1
EndSplineSet
EndChar

StartChar: D
Encoding: 68 68 87
Width: 1614
Flags: W
LayerCount: 2
Fore
SplineSet
96 140 m 1,0,-1
 241 180 l 1,1,-1
 241 1346 l 1,2,-1
 100 1367 l 1,3,-1
 100 1531 l 1,4,-1
 428 1531 l 2,5,6
 461 1531 461 1531 501.5 1533 c 128,-1,7
 542 1535 542 1535 587.5 1537 c 128,-1,8
 633 1539 633 1539 682 1541 c 128,-1,9
 731 1543 731 1543 779 1543 c 0,10,11
 984 1543 984 1543 1131 1487 c 128,-1,12
 1278 1431 1278 1431 1372.5 1333 c 128,-1,13
 1467 1235 1467 1235 1511 1102.5 c 128,-1,14
 1555 970 1555 970 1555 817 c 0,15,16
 1555 620 1555 620 1496.5 466.5 c 128,-1,17
 1438 313 1438 313 1332 207 c 128,-1,18
 1226 101 1226 101 1078 45.5 c 128,-1,19
 930 -10 930 -10 752 -10 c 0,20,21
 714 -10 714 -10 670.5 -8.5 c 128,-1,22
 627 -7 627 -7 584 -4.5 c 128,-1,23
 541 -2 541 -2 502 -0.5 c 128,-1,24
 463 1 463 1 434 1 c 0,25,26
 349 1 349 1 265 0.5 c 128,-1,27
 181 0 181 0 96 0 c 1,28,-1
 96 140 l 1,0,-1
599 179 m 1,29,30
 636 156 636 156 696 148.5 c 128,-1,31
 756 141 756 141 836 149 c 0,32,33
 911 156 911 156 974 201.5 c 128,-1,34
 1037 247 1037 247 1082.5 324.5 c 128,-1,35
 1128 402 1128 402 1154 508.5 c 128,-1,36
 1180 615 1180 615 1180 743 c 0,37,38
 1180 1050 1180 1050 1074.5 1215.5 c 128,-1,39
 969 1381 969 1381 755 1385 c 0,40,41
 733 1385 733 1385 710 1383 c 128,-1,42
 687 1381 687 1381 666 1377.5 c 128,-1,43
 645 1374 645 1374 627.5 1368.5 c 128,-1,44
 610 1363 610 1363 599 1356 c 1,45,-1
 599 179 l 1,29,30
EndSplineSet
EndChar

StartChar: E
Encoding: 69 69 88
Width: 1398
Flags: W
LayerCount: 2
Fore
SplineSet
93 140 m 1,0,-1
 240 179 l 1,1,-1
 240 1345 l 1,2,-1
 98 1367 l 1,3,-1
 98 1531 l 1,4,-1
 1203 1531 l 1,5,-1
 1234 1189 l 1,6,-1
 1045 1189 l 1,7,-1
 965 1345 l 1,8,-1
 595 1370 l 1,9,-1
 595 865 l 1,10,-1
 907 875 l 1,11,-1
 951 1021 l 1,12,-1
 1112 1021 l 1,13,-1
 1112 533 l 1,14,-1
 951 533 l 1,15,-1
 907 692 l 1,16,-1
 595 698 l 1,17,-1
 595 160 l 1,18,-1
 1052 188 l 1,19,-1
 1179 386 l 1,20,-1
 1357 349 l 1,21,-1
 1303 0 l 1,22,-1
 93 0 l 1,23,-1
 93 140 l 1,0,-1
EndSplineSet
EndChar

StartChar: F
Encoding: 70 70 89
Width: 1295
Flags: W
LayerCount: 2
Fore
SplineSet
90 140 m 1,0,-1
 240 173 l 1,1,-1
 240 1347 l 1,2,-1
 85 1367 l 1,3,-1
 85 1531 l 1,4,-1
 1204 1531 l 1,5,-1
 1236 1183 l 1,6,-1
 1049 1181 l 1,7,-1
 968 1326 l 1,8,-1
 595 1357 l 1,9,-1
 595 840 l 1,10,-1
 865 854 l 1,11,-1
 930 1000 l 1,12,-1
 1100 1000 l 1,13,-1
 1100 509 l 1,14,-1
 914 509 l 1,15,-1
 869 663 l 1,16,-1
 596 675 l 1,17,-1
 596 187 l 1,18,-1
 917 159 l 1,19,-1
 917 0 l 1,20,-1
 90 0 l 1,21,-1
 90 140 l 1,0,-1
EndSplineSet
EndChar

StartChar: G
Encoding: 71 71 90
Width: 1551
Flags: W
LayerCount: 2
Fore
SplineSet
60 748 m 0,0,1
 60 941 60 941 122 1089.5 c 128,-1,2
 184 1238 184 1238 294.5 1339 c 128,-1,3
 405 1440 405 1440 556.5 1491.5 c 128,-1,4
 708 1543 708 1543 888 1543 c 0,5,6
 988 1543 988 1543 1072 1537 c 128,-1,7
 1156 1531 1156 1531 1220.5 1522.5 c 128,-1,8
 1285 1514 1285 1514 1328 1504.5 c 128,-1,9
 1371 1495 1371 1495 1388 1489 c 1,10,-1
 1366 1148 l 1,11,-1
 1155 1148 l 1,12,-1
 1083 1308 l 1,13,14
 1079 1314 1079 1314 1065 1324.5 c 128,-1,15
 1051 1335 1051 1335 1025 1344.5 c 128,-1,16
 999 1354 999 1354 960 1361.5 c 128,-1,17
 921 1369 921 1369 867 1369 c 0,18,19
 766 1369 766 1369 688 1330.5 c 128,-1,20
 610 1292 610 1292 556 1221.5 c 128,-1,21
 502 1151 502 1151 474 1051 c 128,-1,22
 446 951 446 951 446 828 c 0,23,24
 446 738 446 738 455 651 c 128,-1,25
 464 564 464 564 483 486.5 c 128,-1,26
 502 409 502 409 533 344 c 128,-1,27
 564 279 564 279 607.5 231.5 c 128,-1,28
 651 184 651 184 708.5 157.5 c 128,-1,29
 766 131 766 131 839 131 c 0,30,31
 887 131 887 131 928 142 c 128,-1,32
 969 153 969 153 1000.5 171 c 128,-1,33
 1032 189 1032 189 1051 211.5 c 128,-1,34
 1070 234 1070 234 1073 258 c 1,35,-1
 1073 519 l 1,36,-1
 936 542 l 1,37,-1
 936 708 l 1,38,-1
 1523 708 l 1,39,-1
 1523 542 l 1,40,-1
 1406 516 l 1,41,-1
 1406 64 l 1,42,43
 1341 72 1341 72 1268 58.5 c 128,-1,44
 1195 45 1195 45 1115 26 c 128,-1,45
 1035 7 1035 7 949.5 -10.5 c 128,-1,46
 864 -28 864 -28 775 -28 c 0,47,48
 610 -28 610 -28 478 32 c 128,-1,49
 346 92 346 92 253 197 c 128,-1,50
 160 302 160 302 110 443.5 c 128,-1,51
 60 585 60 585 60 748 c 0,0,1
EndSplineSet
EndChar

StartChar: H
Encoding: 72 72 91
Width: 1790
Flags: W
LayerCount: 2
Fore
SplineSet
70 140 m 1,0,-1
 240 182 l 1,1,-1
 240 1344 l 1,2,-1
 64 1367 l 1,3,-1
 64 1531 l 1,4,-1
 771 1531 l 1,5,-1
 771 1367 l 1,6,-1
 598 1345 l 1,7,-1
 598 890 l 1,8,-1
 1193 890 l 1,9,-1
 1193 1348 l 1,10,-1
 1024 1367 l 1,11,-1
 1024 1531 l 1,12,-1
 1735 1531 l 1,13,-1
 1735 1367 l 1,14,-1
 1550 1346 l 1,15,-1
 1550 180 l 1,16,-1
 1727 138 l 1,17,-1
 1727 0 l 1,18,-1
 1010 0 l 1,19,-1
 1010 138 l 1,20,-1
 1193 180 l 1,21,-1
 1193 691 l 1,22,-1
 598 691 l 1,23,-1
 598 182 l 1,24,-1
 782 140 l 1,25,-1
 782 0 l 1,26,-1
 70 0 l 1,27,-1
 70 140 l 1,0,-1
EndSplineSet
EndChar

StartChar: I
Encoding: 73 73 92
Width: 881
Flags: W
LayerCount: 2
Fore
SplineSet
71 140 m 1,0,-1
 260 181 l 1,1,-1
 260 1343 l 1,2,-1
 77 1367 l 1,3,-1
 77 1531 l 1,4,-1
 804 1531 l 1,5,-1
 804 1367 l 1,6,-1
 621 1342 l 1,7,-1
 621 184 l 1,8,-1
 815 140 l 1,9,-1
 815 0 l 1,10,-1
 71 0 l 1,11,-1
 71 140 l 1,0,-1
EndSplineSet
EndChar

StartChar: J
Encoding: 74 74 93
Width: 808
Flags: W
LayerCount: 2
Fore
SplineSet
193 -47 m 1,0,1
 209 -3 209 -3 218.5 43.5 c 128,-1,2
 228 90 228 90 233.5 144 c 128,-1,3
 239 198 239 198 241 261 c 128,-1,4
 243 324 243 324 243 401 c 2,5,-1
 243 1346 l 1,6,-1
 105 1367 l 1,7,-1
 105 1531 l 1,8,-1
 737 1531 l 1,9,-1
 737 1367 l 1,10,-1
 604 1345 l 1,11,-1
 604 529 l 2,12,13
 604 440 604 440 600.5 353 c 128,-1,14
 597 266 597 266 589.5 190.5 c 128,-1,15
 582 115 582 115 570.5 55 c 128,-1,16
 559 -5 559 -5 544 -41 c 0,17,18
 518 -101 518 -101 478.5 -149.5 c 128,-1,19
 439 -198 439 -198 392.5 -235.5 c 128,-1,20
 346 -273 346 -273 294.5 -301 c 128,-1,21
 243 -329 243 -329 193 -346.5 c 128,-1,22
 143 -364 143 -364 97.5 -372.5 c 128,-1,23
 52 -381 52 -381 17 -381 c 1,24,-1
 -63 -280 l 1,25,26
 -27 -264 -27 -264 9.5 -244 c 128,-1,27
 46 -224 46 -224 80 -196 c 128,-1,28
 114 -168 114 -168 143 -131.5 c 128,-1,29
 172 -95 172 -95 193 -47 c 1,0,1
EndSplineSet
EndChar

StartChar: K
Encoding: 75 75 94
Width: 1525
Flags: W
LayerCount: 2
Fore
SplineSet
34 140 m 1,0,-1
 233 184 l 1,1,-1
 233 1342 l 1,2,-1
 41 1367 l 1,3,-1
 41 1531 l 1,4,-1
 765 1531 l 1,5,-1
 765 1367 l 1,6,-1
 587 1342 l 1,7,-1
 587 798 l 1,8,-1
 1065 1341 l 1,9,-1
 888 1367 l 1,10,-1
 885 1531 l 1,11,-1
 1504 1531 l 1,12,-1
 1504 1367 l 1,13,-1
 1331 1342 l 1,14,-1
 909 905 l 1,15,16
 935 893 935 893 968.5 857 c 128,-1,17
 1002 821 1002 821 1040 770 c 128,-1,18
 1078 719 1078 719 1118 657.5 c 128,-1,19
 1158 596 1158 596 1197 532 c 128,-1,20
 1236 468 1236 468 1273 407 c 128,-1,21
 1310 346 1310 346 1340.5 295.5 c 128,-1,22
 1371 245 1371 245 1394.5 210.5 c 128,-1,23
 1418 176 1418 176 1430 165 c 1,24,-1
 1506 140 l 1,25,-1
 1506 0 l 1,26,-1
 1121 0 l 2,27,28
 1105 0 1105 0 1085.5 25.5 c 128,-1,29
 1066 51 1066 51 1043.5 93 c 128,-1,30
 1021 135 1021 135 996 190 c 128,-1,31
 971 245 971 245 943.5 304.5 c 128,-1,32
 916 364 916 364 887.5 424.5 c 128,-1,33
 859 485 859 485 829 538.5 c 128,-1,34
 799 592 799 592 769 633.5 c 128,-1,35
 739 675 739 675 709 698 c 1,36,-1
 587 571 l 1,37,-1
 587 183 l 1,38,-1
 808 140 l 1,39,-1
 808 0 l 1,40,-1
 34 0 l 1,41,-1
 34 140 l 1,0,-1
EndSplineSet
EndChar

StartChar: L
Encoding: 76 76 95
Width: 1289
Flags: W
LayerCount: 2
Fore
SplineSet
97 140 m 1,0,-1
 239 178 l 1,1,-1
 239 1325 l 1,2,-1
 102 1346 l 1,3,-1
 102 1531 l 1,4,-1
 780 1531 l 1,5,-1
 780 1346 l 1,6,-1
 598 1324 l 1,7,-1
 598 163 l 1,8,-1
 938 202 l 1,9,-1
 1135 459 l 1,10,-1
 1287 383 l 1,11,-1
 1198 0 l 1,12,-1
 97 0 l 1,13,-1
 97 140 l 1,0,-1
EndSplineSet
EndChar

StartChar: M
Encoding: 77 77 96
Width: 2035
Flags: W
LayerCount: 2
Fore
SplineSet
64 140 m 1,0,-1
 195 178 l 1,1,-1
 269 1321 l 1,2,-1
 86 1344 l 1,3,-1
 86 1531 l 1,4,-1
 739 1531 l 1,5,-1
 1010 685 l 1,6,-1
 1051 487 l 1,7,-1
 1054 496 l 1,8,-1
 1343 1531 l 1,9,-1
 1958 1531 l 1,10,-1
 1958 1344 l 1,11,-1
 1781 1322 l 1,12,-1
 1854 176 l 1,13,-1
 1970 138 l 1,14,-1
 1970 0 l 1,15,-1
 1357 0 l 1,16,-1
 1357 138 l 1,17,-1
 1501 183 l 1,18,-1
 1473 927 l 1,19,20
 1473 959 1473 959 1473.5 992 c 128,-1,21
 1474 1025 1474 1025 1475 1058 c 2,22,-1
 1478 1319 l 1,23,-1
 1448 1195 l 1,24,-1
 1063 -15 l 1,25,-1
 941 -15 l 1,26,-1
 586 950 l 1,27,-1
 545 1075 l 2,28,29
 525 1135 525 1135 506 1194.5 c 128,-1,30
 487 1254 487 1254 468 1314 c 1,31,-1
 470 1047 l 1,32,-1
 475 186 l 1,33,-1
 665 140 l 1,34,-1
 665 0 l 1,35,-1
 64 0 l 1,36,-1
 64 140 l 1,0,-1
EndSplineSet
EndChar

StartChar: N
Encoding: 78 78 97
Width: 1691
Flags: W
LayerCount: 2
Fore
SplineSet
73 140 m 1,0,-1
 240 186 l 1,1,-1
 240 1323 l 1,2,-1
 80 1346 l 1,3,-1
 80 1531 l 1,4,-1
 590 1531 l 1,5,-1
 1176 515 l 1,6,-1
 1259 280 l 1,7,-1
 1259 1320 l 1,8,-1
 1069 1348 l 1,9,-1
 1069 1531 l 1,10,-1
 1633 1531 l 1,11,-1
 1633 1348 l 1,12,-1
 1476 1325 l 1,13,-1
 1476 0 l 1,14,-1
 1099 0 l 1,15,16
 967 229 967 229 831.5 453.5 c 128,-1,17
 696 678 696 678 565 907 c 1,18,-1
 517 1026 l 1,19,-1
 460 1166 l 1,20,21
 460 920 460 920 460.5 677.5 c 128,-1,22
 461 435 461 435 461 189 c 1,23,-1
 664 140 l 1,24,-1
 664 0 l 1,25,-1
 73 0 l 1,26,-1
 73 140 l 1,0,-1
EndSplineSet
EndChar

StartChar: O
Encoding: 79 79 98
Width: 1584
Flags: W
LayerCount: 2
Fore
SplineSet
58 742 m 0,0,1
 62 931 62 931 119.5 1077 c 128,-1,2
 177 1223 177 1223 276.5 1324 c 128,-1,3
 376 1425 376 1425 512 1480 c 128,-1,4
 648 1535 648 1535 810 1543 c 0,5,6
 985 1551 985 1551 1120 1495.5 c 128,-1,7
 1255 1440 1255 1440 1346.5 1336.5 c 128,-1,8
 1438 1233 1438 1233 1483.5 1089.5 c 128,-1,9
 1529 946 1529 946 1526 778 c 0,10,11
 1522 589 1522 589 1465.5 440.5 c 128,-1,12
 1409 292 1409 292 1311.5 189 c 128,-1,13
 1214 86 1214 86 1081 30.5 c 128,-1,14
 948 -25 948 -25 789 -28 c 0,15,16
 611 -31 611 -31 473.5 26.5 c 128,-1,17
 336 84 336 84 242.5 188 c 128,-1,18
 149 292 149 292 102 434.5 c 128,-1,19
 55 577 55 577 58 742 c 0,0,1
802 132 m 0,20,21
 899 132 899 132 963.5 171 c 128,-1,22
 1028 210 1028 210 1065.5 290 c 128,-1,23
 1103 370 1103 370 1118.5 491 c 128,-1,24
 1134 612 1134 612 1134 777 c 0,25,26
 1134 842 1134 842 1126 912.5 c 128,-1,27
 1118 983 1118 983 1101.5 1050 c 128,-1,28
 1085 1117 1085 1117 1058.5 1177.5 c 128,-1,29
 1032 1238 1032 1238 995 1283.5 c 128,-1,30
 958 1329 958 1329 910 1356 c 128,-1,31
 862 1383 862 1383 801 1383 c 0,32,33
 702 1383 702 1383 634.5 1342 c 128,-1,34
 567 1301 567 1301 526.5 1220 c 128,-1,35
 486 1139 486 1139 468.5 1019.5 c 128,-1,36
 451 900 451 900 451 743 c 0,37,38
 451 684 451 684 459 616 c 128,-1,39
 467 548 467 548 484.5 480 c 128,-1,40
 502 412 502 412 530 349 c 128,-1,41
 558 286 558 286 597 238 c 128,-1,42
 636 190 636 190 687 161 c 128,-1,43
 738 132 738 132 802 132 c 0,20,21
EndSplineSet
EndChar

StartChar: P
Encoding: 80 80 99
Width: 1360
Flags: W
LayerCount: 2
Fore
SplineSet
75 140 m 1,0,-1
 250 183 l 1,1,-1
 250 1324 l 1,2,-1
 78 1358 l 1,3,-1
 78 1531 l 1,4,-1
 436 1531 l 2,5,6
 473 1531 473 1531 509.5 1533 c 128,-1,7
 546 1535 546 1535 585 1537 c 128,-1,8
 624 1539 624 1539 668 1541 c 128,-1,9
 712 1543 712 1543 765 1543 c 0,10,11
 845 1543 845 1543 920.5 1537 c 128,-1,12
 996 1531 996 1531 1062 1514 c 128,-1,13
 1128 1497 1128 1497 1182.5 1467 c 128,-1,14
 1237 1437 1237 1437 1276.5 1389 c 128,-1,15
 1316 1341 1316 1341 1337.5 1273 c 128,-1,16
 1359 1205 1359 1205 1359 1113 c 0,17,18
 1359 988 1359 988 1311 893 c 128,-1,19
 1263 798 1263 798 1181.5 734 c 128,-1,20
 1100 670 1100 670 992 637.5 c 128,-1,21
 884 605 884 605 764 605 c 0,22,23
 705 605 705 605 669 604 c 128,-1,24
 633 603 633 603 602 600 c 1,25,-1
 602 182 l 1,26,-1
 847 140 l 1,27,-1
 847 0 l 1,28,-1
 75 0 l 1,29,-1
 75 140 l 1,0,-1
602 776 m 1,30,31
 633 769 633 769 677 767 c 128,-1,32
 721 765 721 765 757 765 c 0,33,34
 809 765 809 765 855 781.5 c 128,-1,35
 901 798 901 798 935.5 839 c 128,-1,36
 970 880 970 880 989.5 951 c 128,-1,37
 1009 1022 1009 1022 1009 1130 c 0,38,39
 1009 1201 1009 1201 987.5 1249 c 128,-1,40
 966 1297 966 1297 927.5 1326 c 128,-1,41
 889 1355 889 1355 836.5 1368 c 128,-1,42
 784 1381 784 1381 721 1382 c 0,43,44
 709 1382 709 1382 691.5 1381 c 128,-1,45
 674 1380 674 1380 656.5 1378.5 c 128,-1,46
 639 1377 639 1377 624 1374.5 c 128,-1,47
 609 1372 609 1372 602 1369 c 1,48,-1
 602 776 l 1,30,31
EndSplineSet
EndChar

StartChar: Q
Encoding: 81 81 100
Width: 1628
Flags: W
LayerCount: 2
Fore
SplineSet
58 742 m 0,0,1
 62 931 62 931 119.5 1077 c 128,-1,2
 177 1223 177 1223 276.5 1324 c 128,-1,3
 376 1425 376 1425 512 1480 c 128,-1,4
 648 1535 648 1535 810 1543 c 0,5,6
 985 1551 985 1551 1120 1495.5 c 128,-1,7
 1255 1440 1255 1440 1346.5 1336.5 c 128,-1,8
 1438 1233 1438 1233 1483.5 1089.5 c 128,-1,9
 1529 946 1529 946 1526 778 c 0,10,11
 1523 626 1523 626 1485.5 500.5 c 128,-1,12
 1448 375 1448 375 1382 277.5 c 128,-1,13
 1316 180 1316 180 1225 112.5 c 128,-1,14
 1134 45 1134 45 1023 9 c 1,15,16
 1042 -38 1042 -38 1074.5 -66 c 128,-1,17
 1107 -94 1107 -94 1145.5 -109 c 128,-1,18
 1184 -124 1184 -124 1225 -128.5 c 128,-1,19
 1266 -133 1266 -133 1302.5 -132 c 128,-1,20
 1339 -131 1339 -131 1367.5 -127.5 c 128,-1,21
 1396 -124 1396 -124 1410 -122 c 0,22,23
 1446 -118 1446 -118 1479 -112.5 c 128,-1,24
 1512 -107 1512 -107 1539 -101 c 128,-1,25
 1566 -95 1566 -95 1585.5 -90 c 128,-1,26
 1605 -85 1605 -85 1616 -82 c 1,27,-1
 1616 -302 l 1,28,29
 1583 -336 1583 -336 1509.5 -363.5 c 128,-1,30
 1436 -391 1436 -391 1320 -391 c 0,31,32
 1253 -391 1253 -391 1183.5 -376 c 128,-1,33
 1114 -361 1114 -361 1051.5 -320.5 c 128,-1,34
 989 -280 989 -280 938 -208.5 c 128,-1,35
 887 -137 887 -137 859 -24 c 1,36,37
 842 -26 842 -26 824 -26.5 c 128,-1,38
 806 -27 806 -27 789 -28 c 0,39,40
 611 -31 611 -31 473.5 26.5 c 128,-1,41
 336 84 336 84 242.5 188 c 128,-1,42
 149 292 149 292 102 434.5 c 128,-1,43
 55 577 55 577 58 742 c 0,0,1
802 132 m 0,44,45
 899 132 899 132 963.5 171 c 128,-1,46
 1028 210 1028 210 1065.5 290 c 128,-1,47
 1103 370 1103 370 1118.5 491 c 128,-1,48
 1134 612 1134 612 1134 777 c 0,49,50
 1134 842 1134 842 1126 912.5 c 128,-1,51
 1118 983 1118 983 1101.5 1050 c 128,-1,52
 1085 1117 1085 1117 1058.5 1177.5 c 128,-1,53
 1032 1238 1032 1238 995 1283.5 c 128,-1,54
 958 1329 958 1329 910 1356 c 128,-1,55
 862 1383 862 1383 801 1383 c 0,56,57
 702 1383 702 1383 634.5 1342 c 128,-1,58
 567 1301 567 1301 526.5 1220 c 128,-1,59
 486 1139 486 1139 468.5 1019.5 c 128,-1,60
 451 900 451 900 451 743 c 0,61,62
 451 684 451 684 459 616 c 128,-1,63
 467 548 467 548 484.5 480 c 128,-1,64
 502 412 502 412 530 349 c 128,-1,65
 558 286 558 286 597 238 c 128,-1,66
 636 190 636 190 687 161 c 128,-1,67
 738 132 738 132 802 132 c 0,44,45
EndSplineSet
EndChar

StartChar: R
Encoding: 82 82 101
Width: 1549
Flags: W
LayerCount: 2
Fore
SplineSet
76 140 m 1,0,-1
 250 183 l 1,1,-1
 250 1334 l 1,2,-1
 95 1358 l 1,3,-1
 95 1531 l 1,4,-1
 320 1531 l 2,5,6
 355 1531 355 1531 389.5 1531.5 c 128,-1,7
 424 1532 424 1532 456 1533 c 0,8,9
 554 1535 554 1535 635.5 1539 c 128,-1,10
 717 1543 717 1543 775 1543 c 0,11,12
 903 1543 903 1543 1012 1524.5 c 128,-1,13
 1121 1506 1121 1506 1200.5 1462 c 128,-1,14
 1280 1418 1280 1418 1324.5 1344.5 c 128,-1,15
 1369 1271 1369 1271 1369 1161 c 0,16,17
 1369 985 1369 985 1286.5 869 c 128,-1,18
 1204 753 1204 753 1032 695 c 1,19,20
 1072 670 1072 670 1108 626.5 c 128,-1,21
 1144 583 1144 583 1177 531 c 128,-1,22
 1210 479 1210 479 1240.5 423 c 128,-1,23
 1271 367 1271 367 1301 318 c 128,-1,24
 1331 269 1331 269 1360.5 231 c 128,-1,25
 1390 193 1390 193 1420 177 c 1,26,-1
 1558 140 l 1,27,-1
 1558 0 l 1,28,-1
 1127 0 l 2,29,30
 1102 0 1102 0 1078.5 28 c 128,-1,31
 1055 56 1055 56 1031 101.5 c 128,-1,32
 1007 147 1007 147 982.5 205 c 128,-1,33
 958 263 958 263 932 324 c 128,-1,34
 906 385 906 385 878.5 443.5 c 128,-1,35
 851 502 851 502 820.5 547.5 c 128,-1,36
 790 593 790 593 756.5 621 c 128,-1,37
 723 649 723 649 685 649 c 0,38,39
 664 649 664 649 643.5 649 c 128,-1,40
 623 649 623 649 604 648 c 1,41,-1
 604 178 l 1,42,-1
 795 140 l 1,43,-1
 795 0 l 1,44,-1
 76 0 l 1,45,-1
 76 140 l 1,0,-1
604 807 m 1,46,47
 650 799 650 799 702.5 798 c 128,-1,48
 755 797 755 797 803 804 c 0,49,50
 837 809 837 809 876.5 823 c 128,-1,51
 916 837 916 837 949 871.5 c 128,-1,52
 982 906 982 906 1004 966.5 c 128,-1,53
 1026 1027 1026 1027 1026 1124 c 0,54,55
 1026 1173 1026 1173 1012 1219.5 c 128,-1,56
 998 1266 998 1266 963.5 1302 c 128,-1,57
 929 1338 929 1338 871 1359.5 c 128,-1,58
 813 1381 813 1381 725 1381 c 0,59,60
 711 1381 711 1381 693.5 1381 c 128,-1,61
 676 1381 676 1381 659 1379.5 c 128,-1,62
 642 1378 642 1378 627.5 1375.5 c 128,-1,63
 613 1373 613 1373 604 1369 c 1,64,-1
 604 807 l 1,46,47
EndSplineSet
EndChar

StartChar: S
Encoding: 83 83 102
Width: 1250
Flags: W
LayerCount: 2
Fore
SplineSet
142 469 m 1,0,-1
 282 469 l 1,1,-1
 373 242 l 1,2,3
 400 207 400 207 428 185 c 128,-1,4
 456 163 456 163 487 151 c 128,-1,5
 518 139 518 139 552.5 134.5 c 128,-1,6
 587 130 587 130 626 130 c 256,7,8
 665 130 665 130 706.5 140 c 128,-1,9
 748 150 748 150 782 174 c 128,-1,10
 816 198 816 198 838 238.5 c 128,-1,11
 860 279 860 279 860 340 c 0,12,13
 860 391 860 391 829 434 c 128,-1,14
 798 477 798 477 747.5 516 c 128,-1,15
 697 555 697 555 632.5 593 c 128,-1,16
 568 631 568 631 501 671.5 c 128,-1,17
 434 712 434 712 369.5 757.5 c 128,-1,18
 305 803 305 803 255 858 c 128,-1,19
 205 913 205 913 174.5 979.5 c 128,-1,20
 144 1046 144 1046 144 1129 c 0,21,22
 144 1198 144 1198 166 1255.5 c 128,-1,23
 188 1313 188 1313 225.5 1359 c 128,-1,24
 263 1405 263 1405 313.5 1439.5 c 128,-1,25
 364 1474 364 1474 422.5 1497 c 128,-1,26
 481 1520 481 1520 544.5 1531.5 c 128,-1,27
 608 1543 608 1543 671 1543 c 0,28,29
 753 1543 753 1543 826 1535.5 c 128,-1,30
 899 1528 899 1528 957 1517.5 c 128,-1,31
 1015 1507 1015 1507 1054.5 1495 c 128,-1,32
 1094 1483 1094 1483 1110 1473 c 1,33,-1
 1110 1142 l 1,34,-1
 956 1142 l 1,35,-1
 862 1345 l 1,36,37
 857 1351 857 1351 844 1359 c 128,-1,38
 831 1367 831 1367 810.5 1374.5 c 128,-1,39
 790 1382 790 1382 763.5 1387 c 128,-1,40
 737 1392 737 1392 706 1392 c 0,41,42
 666 1392 666 1392 630 1384 c 128,-1,43
 594 1376 594 1376 567 1357 c 128,-1,44
 540 1338 540 1338 524 1306.5 c 128,-1,45
 508 1275 508 1275 507 1227 c 1,46,47
 507 1163 507 1163 537.5 1113 c 128,-1,48
 568 1063 568 1063 618 1021.5 c 128,-1,49
 668 980 668 980 732 944 c 128,-1,50
 796 908 796 908 862.5 871 c 128,-1,51
 929 834 929 834 992.5 793 c 128,-1,52
 1056 752 1056 752 1106 701 c 128,-1,53
 1156 650 1156 650 1186 586.5 c 128,-1,54
 1216 523 1216 523 1216 440 c 0,55,56
 1216 361 1216 361 1192 296 c 128,-1,57
 1168 231 1168 231 1127 179 c 128,-1,58
 1086 127 1086 127 1029.5 88 c 128,-1,59
 973 49 973 49 907 23.5 c 128,-1,60
 841 -2 841 -2 769 -15 c 128,-1,61
 697 -28 697 -28 624 -28 c 0,62,63
 554 -28 554 -28 484.5 -21 c 128,-1,64
 415 -14 415 -14 351.5 -2 c 128,-1,65
 288 10 288 10 234 27 c 128,-1,66
 180 44 180 44 142 64 c 1,67,-1
 142 469 l 1,0,-1
EndSplineSet
EndChar

StartChar: T
Encoding: 84 84 103
Width: 1440
Flags: W
LayerCount: 2
Fore
SplineSet
326 140 m 1,0,-1
 556 179 l 1,1,-1
 556 1362 l 1,2,-1
 275 1324 l 1,3,-1
 200 1121 l 1,4,-1
 49 1112 l 1,5,-1
 73 1531 l 1,6,-1
 1392 1531 l 1,7,-1
 1390 1124 l 1,8,-1
 1259 1107 l 1,9,-1
 1182 1339 l 1,10,-1
 910 1363 l 1,11,-1
 910 180 l 1,12,-1
 1131 140 l 1,13,-1
 1131 0 l 1,14,-1
 326 0 l 1,15,-1
 326 140 l 1,0,-1
EndSplineSet
EndChar

StartChar: U
Encoding: 85 85 104
Width: 1669
Flags: W
LayerCount: 2
Fore
SplineSet
216 1344 m 1,0,-1
 64 1367 l 1,1,-1
 64 1531 l 1,2,-1
 730 1531 l 1,3,-1
 730 1367 l 1,4,-1
 567 1344 l 1,5,-1
 567 630 l 1,6,7
 568 475 568 475 596.5 380.5 c 128,-1,8
 625 286 625 286 672 235 c 128,-1,9
 719 184 719 184 781 167 c 128,-1,10
 843 150 843 150 911 150 c 0,11,12
 980 150 980 150 1037.5 175.5 c 128,-1,13
 1095 201 1095 201 1136.5 263 c 128,-1,14
 1178 325 1178 325 1201 428 c 128,-1,15
 1224 531 1224 531 1223 686 c 2,16,-1
 1220 1339 l 1,17,-1
 1017 1367 l 1,18,-1
 1017 1531 l 1,19,-1
 1632 1531 l 1,20,-1
 1632 1367 l 1,21,-1
 1444 1339 l 1,22,-1
 1444 687 l 2,23,24
 1444 548 1444 548 1422.5 441 c 128,-1,25
 1401 334 1401 334 1362.5 254.5 c 128,-1,26
 1324 175 1324 175 1270.5 121 c 128,-1,27
 1217 67 1217 67 1152.5 34 c 128,-1,28
 1088 1 1088 1 1015.5 -13.5 c 128,-1,29
 943 -28 943 -28 867 -28 c 0,30,31
 688 -28 688 -28 563.5 13.5 c 128,-1,32
 439 55 439 55 360.5 139 c 128,-1,33
 282 223 282 223 246.5 349.5 c 128,-1,34
 211 476 211 476 212 645 c 2,35,-1
 216 1344 l 1,0,-1
EndSplineSet
EndChar

StartChar: V
Encoding: 86 86 105
Width: 1506
Flags: W
LayerCount: 2
Fore
SplineSet
131 1348 m 1,0,-1
 12 1367 l 1,1,-1
 12 1531 l 1,2,-1
 679 1531 l 1,3,-1
 679 1370 l 1,4,-1
 516 1345 l 1,5,-1
 732 613 l 1,6,-1
 796 344 l 1,7,-1
 818 434 l 2,8,9
 829 479 829 479 839.5 524.5 c 128,-1,10
 850 570 850 570 861 615 c 1,11,-1
 1060 1344 l 1,12,-1
 907 1367 l 1,13,-1
 907 1530 l 1,14,-1
 1499 1530 l 1,15,-1
 1499 1367 l 1,16,-1
 1357 1347 l 1,17,-1
 906 -15 l 1,18,-1
 632 -15 l 1,19,-1
 131 1348 l 1,0,-1
EndSplineSet
EndChar

StartChar: W
Encoding: 87 87 106
Width: 2311
Flags: W
LayerCount: 2
Fore
SplineSet
141 1348 m 1,0,-1
 25 1366 l 1,1,-1
 25 1531 l 1,2,-1
 650 1531 l 1,3,-1
 650 1368 l 1,4,-1
 532 1348 l 1,5,-1
 775 444 l 1,6,7
 783 401 783 401 791.5 359.5 c 128,-1,8
 800 318 800 318 809 276 c 1,9,-1
 842 444 l 1,10,-1
 1050 1110 l 1,11,-1
 984 1348 l 1,12,-1
 862 1366 l 1,13,-1
 862 1531 l 1,14,-1
 1492 1531 l 1,15,-1
 1492 1368 l 1,16,-1
 1353 1347 l 1,17,-1
 1568 444 l 1,18,-1
 1601 289 l 1,19,-1
 1628 444 l 1,20,-1
 1850 1346 l 1,21,-1
 1701 1366 l 1,22,-1
 1701 1531 l 1,23,-1
 2286 1531 l 1,24,-1
 2286 1366 l 1,25,-1
 2135 1347 l 1,26,-1
 1719 -16 l 1,27,-1
 1378 -16 l 1,28,-1
 1162 732 l 1,29,-1
 927 -15 l 1,30,-1
 607 -15 l 1,31,-1
 141 1348 l 1,0,-1
EndSplineSet
EndChar

StartChar: X
Encoding: 88 88 107
Width: 1604
Flags: W
LayerCount: 2
Fore
SplineSet
59 138 m 1,0,-1
 244 183 l 1,1,-1
 636 736 l 1,2,-1
 209 1344 l 1,3,-1
 58 1367 l 1,4,-1
 58 1531 l 1,5,-1
 765 1531 l 1,6,-1
 765 1370 l 1,7,-1
 621 1347 l 1,8,-1
 842 964 l 1,9,-1
 1076 1347 l 1,10,-1
 940 1367 l 1,11,-1
 940 1531 l 1,12,-1
 1534 1531 l 1,13,-1
 1534 1367 l 1,14,-1
 1372 1347 l 1,15,-1
 960 810 l 1,16,-1
 1420 183 l 1,17,-1
 1585 138 l 1,18,-1
 1585 0 l 1,19,-1
 872 0 l 1,20,-1
 872 137 l 1,21,-1
 1012 176 l 1,22,-1
 766 567 l 1,23,-1
 547 183 l 1,24,-1
 738 138 l 1,25,-1
 738 0 l 1,26,-1
 59 0 l 1,27,-1
 59 138 l 1,0,-1
EndSplineSet
EndChar

StartChar: Y
Encoding: 89 89 108
Width: 1403
Flags: W
LayerCount: 2
Fore
SplineSet
308 140 m 1,0,-1
 548 185 l 1,1,-1
 548 510 l 1,2,-1
 91 1348 l 1,3,-1
 -19 1367 l 1,4,-1
 -19 1531 l 1,5,-1
 611 1531 l 1,6,-1
 611 1370 l 1,7,-1
 506 1350 l 1,8,-1
 748 841 l 1,9,-1
 777 747 l 1,10,-1
 810 850 l 1,11,-1
 1028 1343 l 1,12,-1
 873 1367 l 1,13,14
 873 1409 873 1409 872.5 1449 c 128,-1,15
 872 1489 872 1489 872 1531 c 1,16,-1
 1435 1531 l 1,17,-1
 1435 1367 l 1,18,-1
 1300 1329 l 1,19,-1
 904 537 l 1,20,-1
 904 187 l 1,21,-1
 1162 140 l 1,22,-1
 1162 0 l 1,23,-1
 308 0 l 1,24,-1
 308 140 l 1,0,-1
EndSplineSet
EndChar

StartChar: Z
Encoding: 90 90 109
Width: 1477
Flags: W
LayerCount: 2
Fore
SplineSet
91 139 m 1,0,-1
 828 1189 l 1,1,-1
 994 1371 l 1,2,-1
 425 1324 l 1,3,-1
 297 1079 l 1,4,-1
 144 1109 l 1,5,-1
 187 1531 l 1,6,-1
 1332 1531 l 1,7,-1
 1378 1378 l 1,8,-1
 653 330 l 1,9,-1
 508 164 l 1,10,-1
 1063 210 l 1,11,-1
 1262 477 l 1,12,-1
 1411 436 l 1,13,-1
 1301 0 l 1,14,-1
 132 0 l 1,15,-1
 91 139 l 1,0,-1
EndSplineSet
EndChar

StartChar: a
Encoding: 97 97 110
Width: 1208
Flags: W
LayerCount: 2
Fore
SplineSet
62 394 m 0,0,1
 75 452 75 452 114.5 498 c 128,-1,2
 154 544 154 544 210 578 c 128,-1,3
 266 612 266 612 333.5 636 c 128,-1,4
 401 660 401 660 469 675 c 128,-1,5
 537 690 537 690 601 696.5 c 128,-1,6
 665 703 665 703 715 703 c 1,7,8
 715 783 715 783 701 833 c 128,-1,9
 687 883 687 883 659.5 911.5 c 128,-1,10
 632 940 632 940 592.5 950 c 128,-1,11
 553 960 553 960 502 960 c 0,12,13
 437 960 437 960 382 951.5 c 128,-1,14
 327 943 327 943 285 931.5 c 128,-1,15
 243 920 243 920 215 907.5 c 128,-1,16
 187 895 187 895 176 887 c 1,17,-1
 108 1018 l 1,18,19
 124 1031 124 1031 164.5 1053.5 c 128,-1,20
 205 1076 205 1076 268.5 1098 c 128,-1,21
 332 1120 332 1120 417.5 1135.5 c 128,-1,22
 503 1151 503 1151 609 1151 c 0,23,24
 710 1151 710 1151 794.5 1132.5 c 128,-1,25
 879 1114 879 1114 940 1067.5 c 128,-1,26
 1001 1021 1001 1021 1035 941.5 c 128,-1,27
 1069 862 1069 862 1069 740 c 2,28,-1
 1069 136 l 1,29,-1
 1200 136 l 1,30,-1
 1200 29 l 1,31,32
 1174 11 1174 11 1141.5 0 c 128,-1,33
 1109 -11 1109 -11 1074 -17 c 128,-1,34
 1039 -23 1039 -23 1004.5 -25.5 c 128,-1,35
 970 -28 970 -28 941 -28 c 0,36,37
 923 -28 923 -28 896.5 -24.5 c 128,-1,38
 870 -21 870 -21 843 -11 c 128,-1,39
 816 -1 816 -1 794 17 c 128,-1,40
 772 35 772 35 764 64 c 1,41,42
 712 24 712 24 641 -2 c 128,-1,43
 570 -28 570 -28 471 -28 c 0,44,45
 348 -28 348 -28 261 4.5 c 128,-1,46
 174 37 174 37 123.5 94 c 128,-1,47
 73 151 73 151 57.5 228 c 128,-1,48
 42 305 42 305 62 394 c 0,0,1
408 335 m 0,49,50
 408 238 408 238 463 193 c 128,-1,51
 518 148 518 148 624 148 c 0,52,53
 651 148 651 148 673.5 154 c 128,-1,54
 696 160 696 160 714 171 c 1,55,56
 714 266 714 266 714 360.5 c 128,-1,57
 714 455 714 455 715 550 c 1,58,59
 668 550 668 550 614 541 c 128,-1,60
 560 532 560 532 514.5 508.5 c 128,-1,61
 469 485 469 485 438.5 443 c 128,-1,62
 408 401 408 401 408 335 c 0,49,50
EndSplineSet
EndChar

StartChar: b
Encoding: 98 98 111
Width: 1345
Flags: W
LayerCount: 2
Fore
SplineSet
175 1404 m 1,0,-1
 -20 1461 l 1,1,-1
 -20 1581 l 1,2,-1
 472 1629 l 1,3,-1
 529 1612 l 1,4,-1
 529 1086 l 1,5,6
 580 1114 580 1114 648 1132.5 c 128,-1,7
 716 1151 716 1151 802 1151 c 0,8,9
 895 1151 895 1151 982.5 1122 c 128,-1,10
 1070 1093 1070 1093 1138.5 1028 c 128,-1,11
 1207 963 1207 963 1248.5 859 c 128,-1,12
 1290 755 1290 755 1290 605 c 0,13,14
 1290 483 1290 483 1245.5 368.5 c 128,-1,15
 1201 254 1201 254 1118.5 166 c 128,-1,16
 1036 78 1036 78 919.5 25 c 128,-1,17
 803 -28 803 -28 659 -28 c 0,18,19
 578 -28 578 -28 496.5 -19 c 128,-1,20
 415 -10 415 -10 347.5 3 c 128,-1,21
 280 16 280 16 233 30.5 c 128,-1,22
 186 45 186 45 175 56 c 1,23,-1
 175 1404 l 1,0,-1
529 201 m 1,24,25
 536 188 536 188 548.5 173.5 c 128,-1,26
 561 159 561 159 581 146.5 c 128,-1,27
 601 134 601 134 629 125.5 c 128,-1,28
 657 117 657 117 695 117 c 0,29,30
 737 117 737 117 778 136.5 c 128,-1,31
 819 156 819 156 852 206.5 c 128,-1,32
 885 257 885 257 907 344.5 c 128,-1,33
 929 432 929 432 933 567 c 0,34,35
 936 674 936 674 912.5 751 c 128,-1,36
 889 828 889 828 849.5 878 c 128,-1,37
 810 928 810 928 761 952 c 128,-1,38
 712 976 712 976 665 976 c 0,39,40
 620 976 620 976 586.5 970 c 128,-1,41
 553 964 553 964 529 956 c 1,42,-1
 529 201 l 1,24,25
EndSplineSet
EndChar

StartChar: c
Encoding: 99 99 112
Width: 1105
Flags: W
LayerCount: 2
Fore
SplineSet
56 525 m 0,0,1
 55 670 55 670 106.5 784.5 c 128,-1,2
 158 899 158 899 245.5 979 c 128,-1,3
 333 1059 333 1059 450 1102.5 c 128,-1,4
 567 1146 567 1146 697 1151 c 0,5,6
 748 1152 748 1152 802.5 1149 c 128,-1,7
 857 1146 857 1146 905.5 1139 c 128,-1,8
 954 1132 954 1132 993.5 1122 c 128,-1,9
 1033 1112 1033 1112 1056 1099 c 1,10,-1
 1056 782 l 1,11,-1
 873 782 l 1,12,-1
 794 970 l 1,13,14
 766 987 766 987 735 991 c 128,-1,15
 704 995 704 995 672 995 c 0,16,17
 621 995 621 995 577 970 c 128,-1,18
 533 945 533 945 499.5 897.5 c 128,-1,19
 466 850 466 850 446 781 c 128,-1,20
 426 712 426 712 423 624 c 0,21,22
 419 503 419 503 448 416 c 128,-1,23
 477 329 477 329 527 273.5 c 128,-1,24
 577 218 577 218 641.5 192 c 128,-1,25
 706 166 706 166 773 166 c 0,26,27
 873 166 873 166 935.5 186 c 128,-1,28
 998 206 998 206 1041 240 c 1,29,-1
 1095 111 l 1,30,31
 1010 38 1010 38 891 5 c 128,-1,32
 772 -28 772 -28 611 -28 c 0,33,34
 476 -28 476 -28 373 13.5 c 128,-1,35
 270 55 270 55 199.5 129 c 128,-1,36
 129 203 129 203 93 304 c 128,-1,37
 57 405 57 405 56 525 c 0,0,1
EndSplineSet
EndChar

StartChar: d
Encoding: 100 100 113
Width: 1360
Flags: W
LayerCount: 2
Fore
SplineSet
531 -28 m 0,0,1
 479 -28 479 -28 423.5 -14 c 128,-1,2
 368 0 368 0 315 29.5 c 128,-1,3
 262 59 262 59 214.5 104.5 c 128,-1,4
 167 150 167 150 131.5 213 c 128,-1,5
 96 276 96 276 75.5 357.5 c 128,-1,6
 55 439 55 439 55 541 c 0,7,8
 55 675 55 675 106.5 787 c 128,-1,9
 158 899 158 899 246.5 980 c 128,-1,10
 335 1061 335 1061 453.5 1106 c 128,-1,11
 572 1151 572 1151 706 1151 c 0,12,13
 729 1151 729 1151 758.5 1150 c 128,-1,14
 788 1149 788 1149 826 1143 c 1,15,-1
 826 1394 l 1,16,-1
 605 1451 l 1,17,-1
 605 1571 l 1,18,-1
 1115 1630 l 1,19,-1
 1180 1603 l 1,20,-1
 1180 136 l 1,21,-1
 1322 136 l 1,22,-1
 1322 29 l 1,23,24
 1288 10 1288 10 1212.5 -9 c 128,-1,25
 1137 -28 1137 -28 1018 -28 c 0,26,27
 953 -28 953 -28 912.5 -9.5 c 128,-1,28
 872 9 872 9 852 44 c 1,29,30
 832 30 832 30 803.5 17 c 128,-1,31
 775 4 775 4 736 -6 c 128,-1,32
 697 -16 697 -16 646 -22 c 128,-1,33
 595 -28 595 -28 531 -28 c 0,0,1
619 147 m 0,34,35
 652 134 652 134 689 134 c 0,36,37
 734 134 734 134 768.5 141 c 128,-1,38
 803 148 803 148 826 158 c 1,39,-1
 826 980 l 1,40,41
 790 1003 790 1003 750 1009 c 128,-1,42
 710 1015 710 1015 675 1015 c 0,43,44
 660 1015 660 1015 635.5 1009.5 c 128,-1,45
 611 1004 611 1004 583.5 989 c 128,-1,46
 556 974 556 974 528 946.5 c 128,-1,47
 500 919 500 919 477.5 874.5 c 128,-1,48
 455 830 455 830 440 767 c 128,-1,49
 425 704 425 704 424 617 c 0,50,51
 422 516 422 516 436 436 c 128,-1,52
 450 356 450 356 476.5 297.5 c 128,-1,53
 503 239 503 239 540 201 c 128,-1,54
 577 163 577 163 619 147 c 0,34,35
EndSplineSet
EndChar

StartChar: e
Encoding: 101 101 114
Width: 1201
Flags: W
LayerCount: 2
Fore
SplineSet
55 531 m 0,0,1
 55 659 55 659 97.5 772 c 128,-1,2
 140 885 140 885 220.5 969 c 128,-1,3
 301 1053 301 1053 417 1102 c 128,-1,4
 533 1151 533 1151 679 1151 c 0,5,6
 800 1151 800 1151 887 1120 c 128,-1,7
 974 1089 974 1089 1030 1033.5 c 128,-1,8
 1086 978 1086 978 1114 901 c 128,-1,9
 1142 824 1142 824 1145 733 c 0,10,11
 1147 670 1147 670 1142 621 c 128,-1,12
 1137 572 1137 572 1131 530 c 1,13,-1
 424 530 l 1,14,15
 438 353 438 353 518.5 263 c 128,-1,16
 599 173 599 173 751 173 c 0,17,18
 824 173 824 173 906.5 190.5 c 128,-1,19
 989 208 989 208 1070 244 c 1,20,-1
 1123 115 l 1,21,22
 1085 83 1085 83 1030.5 56 c 128,-1,23
 976 29 976 29 912 10 c 128,-1,24
 848 -9 848 -9 776.5 -19.5 c 128,-1,25
 705 -30 705 -30 632 -28 c 0,26,27
 494 -25 494 -25 386.5 13 c 128,-1,28
 279 51 279 51 205.5 122.5 c 128,-1,29
 132 194 132 194 93.5 296.5 c 128,-1,30
 55 399 55 399 55 531 c 0,0,1
801 691 m 1,31,32
 804 723 804 723 806.5 759 c 128,-1,33
 809 795 809 795 807.5 830.5 c 128,-1,34
 806 866 806 866 799 898.5 c 128,-1,35
 792 931 792 931 774 956 c 128,-1,36
 756 981 756 981 725 996 c 128,-1,37
 694 1011 694 1011 647 1011 c 0,38,39
 589 1011 589 1011 543 976 c 0,40,41
 493 938 493 938 462 865.5 c 128,-1,42
 431 793 431 793 423 691 c 1,43,-1
 801 691 l 1,31,32
EndSplineSet
EndChar

StartChar: f
Encoding: 102 102 115
Width: 905
Flags: W
LayerCount: 2
Fore
SplineSet
83 136 m 1,0,-1
 254 166 l 1,1,-1
 254 913 l 1,2,-1
 71 913 l 1,3,-1
 71 1018 l 1,4,-1
 254 1097 l 1,5,-1
 254 1218 l 2,6,7
 254 1291 254 1291 275 1360.5 c 128,-1,8
 296 1430 296 1430 332.5 1491.5 c 128,-1,9
 369 1553 369 1553 419 1605 c 128,-1,10
 469 1657 469 1657 527 1694.5 c 128,-1,11
 585 1732 585 1732 648 1753 c 128,-1,12
 711 1774 711 1774 775 1774 c 0,13,14
 826 1774 826 1774 858.5 1768 c 128,-1,15
 891 1762 891 1762 895 1758 c 1,16,-1
 895 1452 l 1,17,18
 882 1464 882 1464 862.5 1475.5 c 128,-1,19
 843 1487 843 1487 819.5 1496.5 c 128,-1,20
 796 1506 796 1506 770 1512 c 128,-1,21
 744 1518 744 1518 719 1518 c 0,22,23
 696 1518 696 1518 676 1512.5 c 128,-1,24
 656 1507 656 1507 641 1484 c 128,-1,25
 626 1461 626 1461 617 1415 c 128,-1,26
 608 1369 608 1369 608 1288 c 2,27,-1
 608 1119 l 1,28,-1
 862 1119 l 1,29,-1
 862 913 l 1,30,-1
 608 913 l 1,31,-1
 608 165 l 1,32,-1
 837 136 l 1,33,-1
 837 0 l 1,34,-1
 83 0 l 1,35,-1
 83 136 l 1,0,-1
EndSplineSet
EndChar

StartChar: g
Encoding: 103 103 116
Width: 1270
Flags: W
LayerCount: 2
Fore
SplineSet
40 -235 m 0,0,1
 40 -184 40 -184 60 -142.5 c 128,-1,2
 80 -101 80 -101 110.5 -67.5 c 128,-1,3
 141 -34 141 -34 177.5 -9 c 128,-1,4
 214 16 214 16 247 34 c 1,5,6
 207 49 207 49 184 69 c 128,-1,7
 161 89 161 89 149 113.5 c 128,-1,8
 137 138 137 138 134 166 c 128,-1,9
 131 194 131 194 131 224 c 0,10,11
 131 248 131 248 142.5 277.5 c 128,-1,12
 154 307 154 307 173 337.5 c 128,-1,13
 192 368 192 368 216.5 397 c 128,-1,14
 241 426 241 426 268 447 c 1,15,16
 177 492 177 492 127.5 568 c 128,-1,17
 78 644 78 644 78 753 c 0,18,19
 78 823 78 823 99 879.5 c 128,-1,20
 120 936 120 936 157.5 980 c 128,-1,21
 195 1024 195 1024 245.5 1056 c 128,-1,22
 296 1088 296 1088 355 1108.5 c 128,-1,23
 414 1129 414 1129 479 1139.5 c 128,-1,24
 544 1150 544 1150 610 1151 c 0,25,26
 729 1153 729 1153 826 1128 c 128,-1,27
 923 1103 923 1103 989 1048 c 1,28,29
 1011 1078 1011 1078 1053.5 1098.5 c 128,-1,30
 1096 1119 1096 1119 1169 1119 c 2,31,-1
 1286 1119 l 1,32,-1
 1286 879 l 1,33,-1
 1092 879 l 1,34,35
 1097 857 1097 857 1099.5 834 c 128,-1,36
 1102 811 1102 811 1102 786 c 0,37,38
 1102 684 1102 684 1063 609 c 128,-1,39
 1024 534 1024 534 954.5 484.5 c 128,-1,40
 885 435 885 435 790 411 c 128,-1,41
 695 387 695 387 583 387 c 0,42,43
 537 387 537 387 494.5 390.5 c 128,-1,44
 452 394 452 394 413 401 c 1,45,46
 412 393 412 393 411.5 385.5 c 128,-1,47
 411 378 411 378 411 369 c 0,48,49
 411 336 411 336 417.5 313 c 128,-1,50
 424 290 424 290 449 275.5 c 128,-1,51
 474 261 474 261 523 254 c 128,-1,52
 572 247 572 247 658 247 c 0,53,54
 815 247 815 247 923 224 c 128,-1,55
 1031 201 1031 201 1097 156 c 128,-1,56
 1163 111 1163 111 1192 44 c 128,-1,57
 1221 -23 1221 -23 1221 -111 c 0,58,59
 1221 -197 1221 -197 1180.5 -273.5 c 128,-1,60
 1140 -350 1140 -350 1060 -407 c 128,-1,61
 980 -464 980 -464 861.5 -497.5 c 128,-1,62
 743 -531 743 -531 587 -531 c 0,63,64
 470 -531 470 -531 370 -514 c 128,-1,65
 270 -497 270 -497 196.5 -461 c 128,-1,66
 123 -425 123 -425 81.5 -369 c 128,-1,67
 40 -313 40 -313 40 -235 c 0,0,1
607 546 m 0,68,69
 654 546 654 546 685.5 566 c 128,-1,70
 717 586 717 586 736.5 618.5 c 128,-1,71
 756 651 756 651 764 691.5 c 128,-1,72
 772 732 772 732 772 774 c 0,73,74
 772 888 772 888 725.5 950 c 128,-1,75
 679 1012 679 1012 589 1012 c 0,76,77
 559 1012 559 1012 528.5 1002.5 c 128,-1,78
 498 993 498 993 473.5 971 c 128,-1,79
 449 949 449 949 434 914.5 c 128,-1,80
 419 880 419 880 419 830 c 0,81,82
 419 773 419 773 427 721.5 c 128,-1,83
 435 670 435 670 456 631 c 128,-1,84
 477 592 477 592 513.5 569 c 128,-1,85
 550 546 550 546 607 546 c 0,68,69
392 5 m 1,86,87
 383 -19 383 -19 378 -53 c 128,-1,88
 373 -87 373 -87 373 -138 c 0,89,90
 373 -197 373 -197 392.5 -240.5 c 128,-1,91
 412 -284 412 -284 447.5 -313.5 c 128,-1,92
 483 -343 483 -343 533 -357.5 c 128,-1,93
 583 -372 583 -372 644 -372 c 0,94,95
 770 -372 770 -372 834 -322 c 128,-1,96
 898 -272 898 -272 898 -190 c 0,97,98
 898 -159 898 -159 888.5 -125 c 128,-1,99
 879 -91 879 -91 850.5 -63.5 c 128,-1,100
 822 -36 822 -36 769.5 -18 c 128,-1,101
 717 0 717 0 632 0 c 2,102,-1
 525 0 l 2,103,104
 487 0 487 0 454 1.5 c 128,-1,105
 421 3 421 3 392 5 c 1,86,87
EndSplineSet
EndChar

StartChar: h
Encoding: 104 104 117
Width: 1397
Flags: W
LayerCount: 2
Fore
SplineSet
57 136 m 1,0,-1
 200 164 l 1,1,-1
 200 1352 l 1,2,-1
 27 1423 l 1,3,-1
 27 1565 l 1,4,-1
 479 1631 l 1,5,-1
 554 1603 l 1,6,-1
 554 1120 l 1,7,-1
 533 1017 l 1,8,9
 579 1059 579 1059 628 1085 c 128,-1,10
 677 1111 677 1111 725.5 1125.5 c 128,-1,11
 774 1140 774 1140 819.5 1145.5 c 128,-1,12
 865 1151 865 1151 904 1151 c 0,13,14
 1012 1151 1012 1151 1078 1114.5 c 128,-1,15
 1144 1078 1144 1078 1180 1010 c 128,-1,16
 1216 942 1216 942 1227 845 c 128,-1,17
 1238 748 1238 748 1237 627 c 1,18,-1
 1237 163 l 1,19,-1
 1373 136 l 1,20,-1
 1373 0 l 1,21,-1
 738 2 l 1,22,-1
 738 136 l 1,23,-1
 883 164 l 1,24,-1
 883 578 l 2,25,26
 883 655 883 655 879 718.5 c 128,-1,27
 875 782 875 782 856.5 827 c 128,-1,28
 838 872 838 872 801 897 c 128,-1,29
 764 922 764 922 698 922 c 0,30,31
 656 922 656 922 620 911.5 c 128,-1,32
 584 901 584 901 554 876 c 1,33,-1
 554 162 l 1,34,-1
 652 136 l 1,35,-1
 652 0 l 1,36,-1
 57 0 l 1,37,-1
 57 136 l 1,0,-1
EndSplineSet
EndChar

StartChar: i
Encoding: 105 105 118
Width: 757
Flags: W
LayerCount: 2
Fore
SplineSet
375 1325 m 0,0,1
 336 1325 336 1325 298.5 1338 c 128,-1,2
 261 1351 261 1351 232.5 1375 c 128,-1,3
 204 1399 204 1399 186.5 1434 c 128,-1,4
 169 1469 169 1469 169 1513 c 0,5,6
 169 1561 169 1561 191 1602 c 128,-1,7
 213 1643 213 1643 248 1673 c 128,-1,8
 283 1703 283 1703 326.5 1720 c 128,-1,9
 370 1737 370 1737 414 1737 c 0,10,11
 468 1737 468 1737 506.5 1722 c 128,-1,12
 545 1707 545 1707 570 1681 c 128,-1,13
 595 1655 595 1655 607 1621 c 128,-1,14
 619 1587 619 1587 619 1548 c 0,15,16
 619 1497 619 1497 598.5 1456 c 128,-1,17
 578 1415 578 1415 543.5 1385.5 c 128,-1,18
 509 1356 509 1356 465 1340.5 c 128,-1,19
 421 1325 421 1325 375 1325 c 0,0,1
95 136 m 1,20,-1
 230 164 l 1,21,-1
 230 786 l 1,22,-1
 102 930 l 1,23,-1
 102 1023 l 1,24,-1
 498 1151 l 1,25,-1
 583 1126 l 1,26,-1
 583 162 l 1,27,-1
 724 136 l 1,28,-1
 724 0 l 1,29,-1
 95 0 l 1,30,-1
 95 136 l 1,20,-1
EndSplineSet
EndChar

StartChar: j
Encoding: 106 106 119
Width: 706
Flags: W
LayerCount: 2
Fore
SplineSet
334 1325 m 0,0,1
 295 1325 295 1325 258 1338 c 128,-1,2
 221 1351 221 1351 192.5 1375 c 128,-1,3
 164 1399 164 1399 146.5 1434 c 128,-1,4
 129 1469 129 1469 129 1513 c 0,5,6
 129 1561 129 1561 150.5 1602 c 128,-1,7
 172 1643 172 1643 207 1673 c 128,-1,8
 242 1703 242 1703 285.5 1720 c 128,-1,9
 329 1737 329 1737 373 1737 c 0,10,11
 427 1737 427 1737 465.5 1722 c 128,-1,12
 504 1707 504 1707 529.5 1681 c 128,-1,13
 555 1655 555 1655 567 1621 c 128,-1,14
 579 1587 579 1587 579 1548 c 0,15,16
 579 1497 579 1497 558 1456 c 128,-1,17
 537 1415 537 1415 503 1385.5 c 128,-1,18
 469 1356 469 1356 424.5 1340.5 c 128,-1,19
 380 1325 380 1325 334 1325 c 0,0,1
207 786 m 1,20,-1
 97 933 l 1,21,-1
 97 1021 l 1,22,-1
 480 1151 l 1,23,-1
 561 1124 l 1,24,-1
 561 -16 l 2,25,26
 561 -133 561 -133 532.5 -225.5 c 128,-1,27
 504 -318 504 -318 452 -382.5 c 128,-1,28
 400 -447 400 -447 327 -481 c 128,-1,29
 254 -515 254 -515 166 -515 c 0,30,31
 155 -515 155 -515 125.5 -514 c 128,-1,32
 96 -513 96 -513 64 -511 c 128,-1,33
 32 -509 32 -509 5.5 -506 c 128,-1,34
 -21 -503 -21 -503 -25 -500 c 1,35,-1
 -25 -274 l 1,36,37
 -16 -277 -16 -277 2.5 -279 c 128,-1,38
 21 -281 21 -281 42 -282.5 c 128,-1,39
 63 -284 63 -284 82.5 -284.5 c 128,-1,40
 102 -285 102 -285 111 -285 c 0,41,42
 144 -285 144 -285 163 -269 c 128,-1,43
 182 -253 182 -253 192 -219 c 128,-1,44
 202 -185 202 -185 204.5 -131.5 c 128,-1,45
 207 -78 207 -78 207 -2 c 2,46,-1
 207 786 l 1,20,-1
EndSplineSet
EndChar

StartChar: k
Encoding: 107 107 120
Width: 1360
Flags: W
LayerCount: 2
Fore
SplineSet
82 136 m 1,0,-1
 197 164 l 1,1,-1
 197 1352 l 1,2,-1
 -4 1423 l 1,3,-1
 -4 1565 l 1,4,-1
 490 1631 l 1,5,-1
 551 1603 l 1,6,-1
 551 685 l 1,7,-1
 538 549 l 1,8,-1
 848 919 l 1,9,-1
 681 941 l 1,10,-1
 681 1119 l 1,11,-1
 1319 1119 l 1,12,-1
 1319 940 l 1,13,-1
 1119 921 l 1,14,-1
 871 677 l 1,15,-1
 1238 161 l 1,16,-1
 1359 138 l 1,17,-1
 1359 0 l 1,18,-1
 728 0 l 1,19,-1
 728 138 l 1,20,-1
 826 166 l 1,21,-1
 652 468 l 1,22,-1
 542 345 l 1,23,-1
 550 280 l 1,24,-1
 550 162 l 1,25,-1
 667 136 l 1,26,-1
 667 0 l 1,27,-1
 82 0 l 1,28,-1
 82 136 l 1,0,-1
EndSplineSet
EndChar

StartChar: l
Encoding: 108 108 121
Width: 729
Flags: W
LayerCount: 2
Fore
SplineSet
96 136 m 1,0,-1
 210 161 l 1,1,-1
 210 1352 l 1,2,-1
 72 1423 l 1,3,-1
 72 1565 l 1,4,-1
 505 1631 l 1,5,-1
 564 1603 l 1,6,-1
 564 165 l 1,7,-1
 733 136 l 1,8,-1
 733 0 l 1,9,-1
 96 0 l 1,10,-1
 96 136 l 1,0,-1
EndSplineSet
EndChar

StartChar: m
Encoding: 109 109 122
Width: 2173
Flags: W
LayerCount: 2
Fore
SplineSet
106 138 m 1,0,-1
 230 166 l 1,1,-1
 230 776 l 1,2,-1
 95 930 l 1,3,-1
 95 1022 l 1,4,-1
 466 1151 l 1,5,-1
 540 1132 l 1,6,-1
 540 984 l 1,7,8
 571 1017 571 1017 611.5 1046.5 c 128,-1,9
 652 1076 652 1076 699 1099 c 128,-1,10
 746 1122 746 1122 797 1136.5 c 128,-1,11
 848 1151 848 1151 900 1154 c 0,12,13
 954 1157 954 1157 1003.5 1151.5 c 128,-1,14
 1053 1146 1053 1146 1096 1128.5 c 128,-1,15
 1139 1111 1139 1111 1173 1080 c 128,-1,16
 1207 1049 1207 1049 1229 1001 c 1,17,18
 1262 1029 1262 1029 1303.5 1056 c 128,-1,19
 1345 1083 1345 1083 1394.5 1104 c 128,-1,20
 1444 1125 1444 1125 1500 1138 c 128,-1,21
 1556 1151 1556 1151 1618 1151 c 0,22,23
 1717 1151 1717 1151 1788 1119 c 128,-1,24
 1859 1087 1859 1087 1904.5 1026 c 128,-1,25
 1950 965 1950 965 1971.5 876.5 c 128,-1,26
 1993 788 1993 788 1993 674 c 2,27,-1
 1993 163 l 1,28,-1
 2133 138 l 1,29,-1
 2133 0 l 1,30,-1
 1494 0 l 1,31,-1
 1494 138 l 1,32,-1
 1639 167 l 1,33,-1
 1639 629 l 2,34,35
 1639 708 1639 708 1629.5 759 c 128,-1,36
 1620 810 1620 810 1601 841 c 128,-1,37
 1582 872 1582 872 1555 886.5 c 128,-1,38
 1528 901 1528 901 1494 906 c 0,39,40
 1477 908 1477 908 1458 909 c 128,-1,41
 1439 910 1439 910 1418 910 c 0,42,43
 1404 910 1404 910 1386 908.5 c 128,-1,44
 1368 907 1368 907 1349.5 903.5 c 128,-1,45
 1331 900 1331 900 1312 894.5 c 128,-1,46
 1293 889 1293 889 1277 882 c 1,47,48
 1280 870 1280 870 1282 854.5 c 128,-1,49
 1284 839 1284 839 1285.5 818.5 c 128,-1,50
 1287 798 1287 798 1288 770 c 128,-1,51
 1289 742 1289 742 1289 704 c 2,52,-1
 1289 165 l 1,53,-1
 1447 138 l 1,54,-1
 1447 0 l 1,55,-1
 776 0 l 1,56,-1
 776 138 l 1,57,-1
 935 168 l 1,58,-1
 935 636 l 2,59,60
 935 732 935 732 921 790.5 c 128,-1,61
 907 849 907 849 879 880 c 128,-1,62
 851 911 851 911 809.5 918.5 c 128,-1,63
 768 926 768 926 713 922 c 0,64,65
 701 921 701 921 682 916.5 c 128,-1,66
 663 912 663 912 644 905 c 128,-1,67
 625 898 625 898 608.5 889.5 c 128,-1,68
 592 881 592 881 584 872 c 1,69,70
 584 694 584 694 584 518.5 c 128,-1,71
 584 343 584 343 585 165 c 1,72,-1
 719 138 l 1,73,-1
 719 0 l 1,74,-1
 106 0 l 1,75,-1
 106 138 l 1,0,-1
EndSplineSet
EndChar

StartChar: n
Encoding: 110 110 123
Width: 1467
Flags: W
LayerCount: 2
Fore
SplineSet
105 136 m 1,0,-1
 230 161 l 1,1,-1
 230 776 l 1,2,-1
 94 930 l 1,3,-1
 94 1023 l 1,4,-1
 465 1151 l 1,5,-1
 540 1132 l 1,6,-1
 540 984 l 1,7,8
 568 1011 568 1011 605.5 1036.5 c 128,-1,9
 643 1062 643 1062 686 1083 c 128,-1,10
 729 1104 729 1104 775.5 1119.5 c 128,-1,11
 822 1135 822 1135 869 1143 c 1,12,13
 892 1148 892 1148 914.5 1149.5 c 128,-1,14
 937 1151 937 1151 959 1151 c 0,15,16
 1055 1151 1055 1151 1118 1120.5 c 128,-1,17
 1181 1090 1181 1090 1218.5 1032 c 128,-1,18
 1256 974 1256 974 1271.5 890.5 c 128,-1,19
 1287 807 1287 807 1287 700 c 2,20,-1
 1287 162 l 1,21,-1
 1428 136 l 1,22,-1
 1428 0 l 1,23,-1
 790 0 l 1,24,-1
 790 136 l 1,25,-1
 933 164 l 1,26,-1
 933 655 l 2,27,28
 933 735 933 735 922 786.5 c 128,-1,29
 911 838 911 838 885 867.5 c 128,-1,30
 859 897 859 897 816.5 908.5 c 128,-1,31
 774 920 774 920 711 920 c 0,32,33
 702 920 702 920 685.5 917.5 c 128,-1,34
 669 915 669 915 650.5 909.5 c 128,-1,35
 632 904 632 904 614 895.5 c 128,-1,36
 596 887 596 887 584 874 c 1,37,-1
 584 163 l 1,38,-1
 707 136 l 1,39,-1
 707 0 l 1,40,-1
 105 0 l 1,41,-1
 105 136 l 1,0,-1
EndSplineSet
EndChar

StartChar: o
Encoding: 111 111 124
Width: 1327
Flags: W
LayerCount: 2
Fore
SplineSet
56 561 m 0,0,1
 58 715 58 715 112 826 c 128,-1,2
 166 937 166 937 254 1009 c 128,-1,3
 342 1081 342 1081 454.5 1115.5 c 128,-1,4
 567 1150 567 1150 685 1151 c 0,5,6
 823 1152 823 1152 931.5 1117 c 128,-1,7
 1040 1082 1040 1082 1116 1011.5 c 128,-1,8
 1192 941 1192 941 1232 835.5 c 128,-1,9
 1272 730 1272 730 1272 591 c 0,10,11
 1272 433 1272 433 1220.5 316.5 c 128,-1,12
 1169 200 1169 200 1083.5 123.5 c 128,-1,13
 998 47 998 47 887 9.5 c 128,-1,14
 776 -28 776 -28 657 -28 c 0,15,16
 497 -28 497 -28 382.5 18.5 c 128,-1,17
 268 65 268 65 195 145.5 c 128,-1,18
 122 226 122 226 88 333.5 c 128,-1,19
 54 441 54 441 56 561 c 0,0,1
668 126 m 0,20,21
 746 126 746 126 791.5 166 c 128,-1,22
 837 206 837 206 860 269.5 c 128,-1,23
 883 333 883 333 889.5 412.5 c 128,-1,24
 896 492 896 492 896 571 c 0,25,26
 896 618 896 618 892 668.5 c 128,-1,27
 888 719 888 719 878.5 767 c 128,-1,28
 869 815 869 815 853 858 c 128,-1,29
 837 901 837 901 812.5 933 c 128,-1,30
 788 965 788 965 754.5 984 c 128,-1,31
 721 1003 721 1003 676 1003 c 0,32,33
 606 1003 606 1003 559.5 965.5 c 128,-1,34
 513 928 513 928 484.5 868 c 128,-1,35
 456 808 456 808 444 733.5 c 128,-1,36
 432 659 432 659 432 586 c 0,37,38
 432 543 432 543 437 492.5 c 128,-1,39
 442 442 442 442 453.5 391 c 128,-1,40
 465 340 465 340 483 292 c 128,-1,41
 501 244 501 244 527.5 207 c 128,-1,42
 554 170 554 170 588.5 148 c 128,-1,43
 623 126 623 126 668 126 c 0,20,21
EndSplineSet
EndChar

StartChar: p
Encoding: 112 112 125
Width: 1350
Flags: W
LayerCount: 2
Fore
SplineSet
212 -344 m 1,0,-1
 212 776 l 1,1,-1
 70 930 l 1,2,-1
 70 1023 l 1,3,-1
 444 1151 l 1,4,-1
 517 1133 l 1,5,-1
 517 1004 l 1,6,7
 522 1015 522 1015 546.5 1039.5 c 128,-1,8
 571 1064 571 1064 612 1088.5 c 128,-1,9
 653 1113 653 1113 711 1132 c 128,-1,10
 769 1151 769 1151 841 1151 c 0,11,12
 931 1151 931 1151 1013 1123 c 128,-1,13
 1095 1095 1095 1095 1157.5 1030 c 128,-1,14
 1220 965 1220 965 1257.5 858.5 c 128,-1,15
 1295 752 1295 752 1295 595 c 0,16,17
 1295 512 1295 512 1273.5 433 c 128,-1,18
 1252 354 1252 354 1212 285 c 128,-1,19
 1172 216 1172 216 1116 158.5 c 128,-1,20
 1060 101 1060 101 990 59.5 c 128,-1,21
 920 18 920 18 839 -5 c 128,-1,22
 758 -28 758 -28 669 -28 c 0,23,24
 634 -28 634 -28 600 -24 c 128,-1,25
 566 -20 566 -20 551 -18 c 1,26,-1
 564 -177 l 1,27,-1
 564 -344 l 1,28,-1
 777 -373 l 1,29,-1
 777 -511 l 1,30,-1
 80 -511 l 1,31,-1
 80 -373 l 1,32,-1
 212 -344 l 1,0,-1
563 215 m 1,33,34
 571 198 571 198 589 185 c 128,-1,35
 607 172 607 172 630.5 163 c 128,-1,36
 654 154 654 154 681 149.5 c 128,-1,37
 708 145 708 145 733 145 c 0,38,39
 764 145 764 145 801.5 163 c 128,-1,40
 839 181 839 181 871 226 c 128,-1,41
 903 271 903 271 924.5 347 c 128,-1,42
 946 423 946 423 946 539 c 0,43,44
 946 671 946 671 921 753 c 128,-1,45
 896 835 896 835 858.5 880.5 c 128,-1,46
 821 926 821 926 777.5 942 c 128,-1,47
 734 958 734 958 697 958 c 0,48,49
 672 958 672 958 650.5 950.5 c 128,-1,50
 629 943 629 943 611.5 932 c 128,-1,51
 594 921 594 921 582 909.5 c 128,-1,52
 570 898 570 898 563 890 c 1,53,-1
 563 215 l 1,33,34
EndSplineSet
EndChar

StartChar: q
Encoding: 113 113 126
Width: 1322
Flags: W
LayerCount: 2
Fore
SplineSet
55 552 m 0,0,1
 55 677 55 677 103.5 786.5 c 128,-1,2
 152 896 152 896 239.5 977 c 128,-1,3
 327 1058 327 1058 449 1104.5 c 128,-1,4
 571 1151 571 1151 717 1151 c 0,5,6
 743 1151 743 1151 779.5 1148 c 128,-1,7
 816 1145 816 1145 854 1137.5 c 128,-1,8
 892 1130 892 1130 928 1118 c 128,-1,9
 964 1106 964 1106 990 1088 c 1,10,-1
 1128 1151 l 1,11,-1
 1180 1128 l 1,12,-1
 1180 -355 l 1,13,-1
 1312 -379 l 1,14,-1
 1312 -511 l 1,15,-1
 635 -511 l 1,16,-1
 635 -379 l 1,17,-1
 826 -356 l 1,18,-1
 826 -47 l 1,19,-1
 839 92 l 1,20,21
 823 74 823 74 804 54 c 128,-1,22
 785 34 785 34 754 16.5 c 128,-1,23
 723 -1 723 -1 677.5 -12.5 c 128,-1,24
 632 -24 632 -24 564 -24 c 0,25,26
 512 -24 512 -24 454 -15.5 c 128,-1,27
 396 -7 396 -7 339.5 16.5 c 128,-1,28
 283 40 283 40 231.5 80.5 c 128,-1,29
 180 121 180 121 140.5 185 c 128,-1,30
 101 249 101 249 78 339.5 c 128,-1,31
 55 430 55 430 55 552 c 0,0,1
682 174 m 0,32,33
 730 174 730 174 764.5 184 c 128,-1,34
 799 194 799 194 826 220 c 1,35,-1
 826 944 l 1,36,37
 820 955 820 955 808.5 965.5 c 128,-1,38
 797 976 797 976 781 983.5 c 128,-1,39
 765 991 765 991 746.5 995.5 c 128,-1,40
 728 1000 728 1000 709 1000 c 0,41,42
 625 1000 625 1000 571 971 c 128,-1,43
 517 942 517 942 485 890 c 128,-1,44
 453 838 453 838 439.5 764.5 c 128,-1,45
 426 691 426 691 424 603 c 0,46,47
 421 509 421 509 435 430.5 c 128,-1,48
 449 352 449 352 481 295 c 128,-1,49
 513 238 513 238 563 206 c 128,-1,50
 613 174 613 174 682 174 c 0,32,33
EndSplineSet
EndChar

StartChar: r
Encoding: 114 114 127
Width: 965
Flags: W
LayerCount: 2
Fore
SplineSet
139 136 m 1,0,-1
 238 158 l 1,1,-1
 238 776 l 1,2,-1
 101 930 l 1,3,-1
 101 1023 l 1,4,-1
 467 1151 l 1,5,-1
 545 1126 l 1,6,-1
 545 937 l 1,7,8
 555 975 555 975 586 1013 c 128,-1,9
 617 1051 617 1051 658.5 1082 c 128,-1,10
 700 1113 700 1113 748.5 1132 c 128,-1,11
 797 1151 797 1151 843 1151 c 0,12,13
 868 1151 868 1151 884.5 1149.5 c 128,-1,14
 901 1148 901 1148 912 1146 c 128,-1,15
 923 1144 923 1144 930.5 1141 c 128,-1,16
 938 1138 938 1138 944 1135 c 1,17,-1
 944 796 l 1,18,19
 925 811 925 811 902 821.5 c 128,-1,20
 879 832 879 832 855.5 838.5 c 128,-1,21
 832 845 832 845 809.5 848 c 128,-1,22
 787 851 787 851 770 851 c 0,23,24
 728 851 728 851 697 846.5 c 128,-1,25
 666 842 666 842 645 835.5 c 128,-1,26
 624 829 624 829 611.5 822 c 128,-1,27
 599 815 599 815 592 811 c 1,28,-1
 592 171 l 1,29,-1
 849 136 l 1,30,-1
 849 0 l 1,31,-1
 139 0 l 1,32,-1
 139 136 l 1,0,-1
EndSplineSet
EndChar

StartChar: s
Encoding: 115 115 128
Width: 1112
Flags: W
LayerCount: 2
Fore
SplineSet
124 329 m 1,0,-1
 269 329 l 1,1,-1
 332 230 l 1,2,3
 344 217 344 217 361.5 201.5 c 128,-1,4
 379 186 379 186 402.5 172.5 c 128,-1,5
 426 159 426 159 456 149 c 128,-1,6
 486 139 486 139 523 137 c 0,7,8
 613 132 613 132 657 166.5 c 128,-1,9
 701 201 701 201 700 261 c 0,10,11
 699 288 699 288 680.5 307.5 c 128,-1,12
 662 327 662 327 630.5 344 c 128,-1,13
 599 361 599 361 556 380.5 c 128,-1,14
 513 400 513 400 463 427 c 0,15,16
 400 460 400 460 338.5 498 c 128,-1,17
 277 536 277 536 228 583 c 128,-1,18
 179 630 179 630 149 689 c 128,-1,19
 119 748 119 748 120 823 c 0,20,21
 121 880 121 880 142.5 926 c 128,-1,22
 164 972 164 972 199.5 1008 c 128,-1,23
 235 1044 235 1044 282 1070.5 c 128,-1,24
 329 1097 329 1097 380.5 1114.5 c 128,-1,25
 432 1132 432 1132 484.5 1141 c 128,-1,26
 537 1150 537 1150 585 1151 c 0,27,28
 642 1152 642 1152 696 1147.5 c 128,-1,29
 750 1143 750 1143 798 1134.5 c 128,-1,30
 846 1126 846 1126 886.5 1115.5 c 128,-1,31
 927 1105 927 1105 958 1093 c 1,32,-1
 958 820 l 1,33,-1
 802 820 l 1,34,-1
 746 934 l 1,35,36
 720 965 720 965 684 985.5 c 128,-1,37
 648 1006 648 1006 603 1006 c 0,38,39
 580 1006 580 1006 555 999.5 c 128,-1,40
 530 993 530 993 509 980.5 c 128,-1,41
 488 968 488 968 474 949.5 c 128,-1,42
 460 931 460 931 460 907 c 0,43,44
 460 868 460 868 478 839 c 128,-1,45
 496 810 496 810 532.5 783.5 c 128,-1,46
 569 757 569 757 625.5 730 c 128,-1,47
 682 703 682 703 759 668 c 0,48,49
 817 642 817 642 868.5 610.5 c 128,-1,50
 920 579 920 579 958 539 c 128,-1,51
 996 499 996 499 1018.5 448.5 c 128,-1,52
 1041 398 1041 398 1041 335 c 0,53,54
 1041 236 1041 236 996.5 167.5 c 128,-1,55
 952 99 952 99 879 56.5 c 128,-1,56
 806 14 806 14 712.5 -5 c 128,-1,57
 619 -24 619 -24 522 -24 c 0,58,59
 474 -24 474 -24 421 -19 c 128,-1,60
 368 -14 368 -14 315.5 -3 c 128,-1,61
 263 8 263 8 213.5 25 c 128,-1,62
 164 42 164 42 124 66 c 1,63,-1
 124 329 l 1,0,-1
EndSplineSet
EndChar

StartChar: t
Encoding: 116 116 129
Width: 918
Flags: W
LayerCount: 2
Fore
SplineSet
214 916 m 1,0,-1
 59 916 l 1,1,-1
 59 1033 l 1,2,3
 113 1059 113 1059 163 1103.5 c 128,-1,4
 213 1148 213 1148 255 1199 c 256,5,6
 297 1250 297 1250 324.5 1298.5 c 128,-1,7
 352 1347 352 1347 360 1380 c 1,8,-1
 552 1386 l 1,9,-1
 552 1127 l 1,10,-1
 884 1127 l 1,11,-1
 884 916 l 1,12,-1
 568 916 l 1,13,-1
 568 595 l 2,14,15
 568 506 568 506 570 442 c 128,-1,16
 572 378 572 378 576.5 334.5 c 128,-1,17
 581 291 581 291 589 264.5 c 128,-1,18
 597 238 597 238 609.5 224.5 c 128,-1,19
 622 211 622 211 639.5 206.5 c 128,-1,20
 657 202 657 202 681 202 c 0,21,22
 724 202 724 202 767.5 208 c 128,-1,23
 811 214 811 214 840 231 c 1,24,-1
 892 92 l 1,25,26
 868 67 868 67 829.5 45.5 c 128,-1,27
 791 24 791 24 741.5 7.5 c 128,-1,28
 692 -9 692 -9 632 -18.5 c 128,-1,29
 572 -28 572 -28 503 -28 c 0,30,31
 416 -28 416 -28 360 -5.5 c 128,-1,32
 304 17 304 17 271.5 63 c 128,-1,33
 239 109 239 109 226.5 179 c 128,-1,34
 214 249 214 249 214 345 c 2,35,-1
 214 916 l 1,0,-1
EndSplineSet
EndChar

StartChar: u
Encoding: 117 117 130
Width: 1327
Flags: W
LayerCount: 2
Fore
SplineSet
139 858 m 1,0,-1
 30 928 l 1,1,-1
 30 1056 l 1,2,-1
 433 1151 l 1,3,-1
 486 1134 l 1,4,-1
 486 412 l 2,5,6
 486 344 486 344 500 300.5 c 128,-1,7
 514 257 514 257 538.5 231 c 128,-1,8
 563 205 563 205 596.5 195 c 128,-1,9
 630 185 630 185 669 185 c 0,10,11
 720 185 720 185 760 192 c 128,-1,12
 800 199 800 199 817 210 c 1,13,-1
 817 851 l 1,14,-1
 690 922 l 1,15,-1
 690 1060 l 1,16,-1
 1108 1151 l 1,17,-1
 1164 1134 l 1,18,-1
 1164 136 l 1,19,-1
 1278 136 l 1,20,-1
 1278 29 l 1,21,22
 1261 17 1261 17 1230.5 6.5 c 128,-1,23
 1200 -4 1200 -4 1161 -11.5 c 128,-1,24
 1122 -19 1122 -19 1079 -23.5 c 128,-1,25
 1036 -28 1036 -28 995 -28 c 0,26,27
 965 -28 965 -28 939 -22 c 128,-1,28
 913 -16 913 -16 893.5 -3 c 128,-1,29
 874 10 874 10 863 31 c 128,-1,30
 852 52 852 52 852 82 c 2,31,-1
 852 110 l 1,32,33
 823 75 823 75 781.5 49.5 c 128,-1,34
 740 24 740 24 694 6.5 c 128,-1,35
 648 -11 648 -11 603 -19.5 c 128,-1,36
 558 -28 558 -28 522 -28 c 0,37,38
 417 -28 417 -28 344.5 -3 c 128,-1,39
 272 22 272 22 226 82 c 128,-1,40
 180 142 180 142 159.5 242.5 c 128,-1,41
 139 343 139 343 139 495 c 2,42,-1
 139 858 l 1,0,-1
EndSplineSet
EndChar

StartChar: v
Encoding: 118 118 131
Width: 1299
Flags: W
LayerCount: 2
Fore
SplineSet
117 916 m 1,0,-1
 14 943 l 1,1,-1
 14 1119 l 1,2,-1
 591 1119 l 1,3,-1
 591 941 l 1,4,-1
 503 913 l 1,5,-1
 671 439 l 1,6,-1
 725 250 l 1,7,-1
 768 442 l 1,8,-1
 935 909 l 1,9,-1
 794 940 l 1,10,-1
 794 1119 l 1,11,-1
 1283 1119 l 1,12,-1
 1283 941 l 1,13,-1
 1168 904 l 1,14,-1
 792 -5 l 1,15,-1
 511 -5 l 1,16,-1
 117 916 l 1,0,-1
EndSplineSet
EndChar

StartChar: w
Encoding: 119 119 132
Width: 1813
Flags: W
LayerCount: 2
Fore
SplineSet
117 917 m 1,0,-1
 32 940 l 1,1,-1
 32 1119 l 1,2,-1
 547 1119 l 1,3,-1
 547 940 l 1,4,-1
 453 913 l 1,5,-1
 571 483 l 1,6,-1
 592 392 l 1,7,-1
 612 302 l 1,8,-1
 628 392 l 1,9,-1
 643 483 l 1,10,-1
 811 1119 l 1,11,-1
 1056 1119 l 1,12,-1
 1256 483 l 1,13,-1
 1272 400 l 1,14,15
 1278 363 1278 363 1284.5 327 c 128,-1,16
 1291 291 1291 291 1298 254 c 1,17,-1
 1321 400 l 1,18,-1
 1422 914 l 1,19,-1
 1312 940 l 1,20,-1
 1312 1119 l 1,21,-1
 1791 1119 l 1,22,-1
 1791 941 l 1,23,-1
 1661 908 l 1,24,-1
 1397 -5 l 1,25,-1
 1097 -5 l 1,26,-1
 928 465 l 1,27,-1
 885 627 l 1,28,-1
 874 546 l 1,29,-1
 705 -5 l 1,30,-1
 420 -5 l 1,31,-1
 117 917 l 1,0,-1
EndSplineSet
EndChar

StartChar: x
Encoding: 120 120 133
Width: 1313
Flags: W
LayerCount: 2
Fore
SplineSet
27 136 m 1,0,-1
 190 169 l 1,1,-1
 491 535 l 1,2,-1
 163 915 l 1,3,-1
 35 940 l 1,4,-1
 35 1119 l 1,5,-1
 649 1119 l 1,6,-1
 649 940 l 1,7,-1
 569 916 l 1,8,-1
 607 861 l 2,9,10
 633 823 633 823 657.5 785 c 128,-1,11
 682 747 682 747 705 707 c 1,12,-1
 725 740 l 1,13,-1
 848 920 l 1,14,-1
 715 940 l 1,15,-1
 715 1119 l 1,16,-1
 1250 1119 l 1,17,-1
 1250 940 l 1,18,-1
 1092 912 l 1,19,-1
 815 592 l 1,20,-1
 1158 166 l 1,21,-1
 1285 136 l 1,22,-1
 1285 0 l 1,23,-1
 667 0 l 1,24,-1
 667 136 l 1,25,-1
 753 165 l 1,26,-1
 669 282 l 2,27,28
 658 297 658 297 647.5 312.5 c 128,-1,29
 637 328 637 328 626 343 c 1,30,-1
 596 393 l 1,31,-1
 586 369 l 1,32,-1
 461 172 l 1,33,-1
 608 136 l 1,34,-1
 608 0 l 1,35,-1
 27 0 l 1,36,-1
 27 136 l 1,0,-1
EndSplineSet
EndChar

StartChar: y
Encoding: 121 121 134
Width: 1268
Flags: W
LayerCount: 2
Fore
SplineSet
153 -266 m 1,0,1
 179 -271 179 -271 215 -277.5 c 128,-1,2
 251 -284 251 -284 301 -282 c 0,3,4
 325 -281 325 -281 357 -272 c 128,-1,5
 389 -263 389 -263 422 -233.5 c 128,-1,6
 455 -204 455 -204 486 -148.5 c 128,-1,7
 517 -93 517 -93 539 0 c 1,8,-1
 482 0 l 1,9,-1
 82 914 l 1,10,-1
 -5 940 l 1,11,-1
 -5 1119 l 1,12,-1
 553 1119 l 1,13,-1
 553 940 l 1,14,-1
 464 917 l 1,15,-1
 653 373 l 1,16,-1
 674 265 l 1,17,-1
 704 370 l 1,18,-1
 891 918 l 1,19,-1
 763 940 l 1,20,-1
 763 1119 l 1,21,-1
 1258 1119 l 1,22,-1
 1258 940 l 1,23,-1
 1158 919 l 1,24,25
 1083 732 1083 732 1026 592 c 128,-1,26
 969 452 969 452 925.5 350 c 128,-1,27
 882 248 882 248 851.5 179.5 c 128,-1,28
 821 111 821 111 800 65 c 128,-1,29
 779 19 779 19 766.5 -9 c 128,-1,30
 754 -37 754 -37 747 -56 c 0,31,32
 703 -173 703 -173 661 -262.5 c 128,-1,33
 619 -352 619 -352 569.5 -412.5 c 128,-1,34
 520 -473 520 -473 458 -504 c 128,-1,35
 396 -535 396 -535 312 -535 c 0,36,37
 291 -535 291 -535 267.5 -534.5 c 128,-1,38
 244 -534 244 -534 221 -532 c 256,39,40
 198 -530 198 -530 179.5 -527.5 c 128,-1,41
 161 -525 161 -525 151 -520 c 1,42,-1
 153 -266 l 1,43,-1
 153 -266 l 1,0,1
EndSplineSet
EndChar

StartChar: z
Encoding: 122 122 135
Width: 1158
Flags: W
LayerCount: 2
Fore
SplineSet
64 100 m 1,0,-1
 117 198 l 1,1,-1
 577 878 l 1,2,-1
 662 968 l 1,3,-1
 343 943 l 1,4,-1
 277 746 l 1,5,-1
 95 746 l 1,6,-1
 95 1119 l 1,7,-1
 1045 1119 l 1,8,-1
 1080 1016 l 1,9,-1
 1026 916 l 1,10,-1
 641 303 l 1,11,-1
 517 151 l 1,12,-1
 871 193 l 1,13,-1
 931 354 l 1,14,-1
 1116 354 l 1,15,-1
 1100 0 l 1,16,-1
 100 0 l 1,17,-1
 64 100 l 1,0,-1
EndSplineSet
EndChar

StartChar: asciitilde
Encoding: 126 126 136
Width: 1317
Flags: W
LayerCount: 2
Fore
SplineSet
176 832 m 1,0,1
 180 851 180 851 193.5 878 c 128,-1,2
 207 905 207 905 229.5 934.5 c 128,-1,3
 252 964 252 964 281.5 993 c 128,-1,4
 311 1022 311 1022 346 1045 c 128,-1,5
 381 1068 381 1068 420 1082.5 c 128,-1,6
 459 1097 459 1097 501 1097 c 0,7,8
 544 1097 544 1097 577.5 1087.5 c 128,-1,9
 611 1078 611 1078 638 1063.5 c 128,-1,10
 665 1049 665 1049 689 1032 c 128,-1,11
 713 1015 713 1015 737.5 1000.5 c 128,-1,12
 762 986 762 986 790 976.5 c 128,-1,13
 818 967 818 967 854 967 c 0,14,15
 882 967 882 967 907.5 977.5 c 128,-1,16
 933 988 933 988 956 1003.5 c 128,-1,17
 979 1019 979 1019 998 1036.5 c 128,-1,18
 1017 1054 1017 1054 1032 1067 c 1,19,-1
 1141 951 l 1,20,21
 1138 930 1138 930 1125 902 c 128,-1,22
 1112 874 1112 874 1090.5 844 c 128,-1,23
 1069 814 1069 814 1040 785.5 c 128,-1,24
 1011 757 1011 757 976.5 734.5 c 128,-1,25
 942 712 942 712 902 698 c 128,-1,26
 862 684 862 684 819 684 c 256,27,28
 776 684 776 684 743.5 694 c 128,-1,29
 711 704 711 704 684.5 718.5 c 128,-1,30
 658 733 658 733 634.5 750 c 128,-1,31
 611 767 611 767 585.5 781.5 c 128,-1,32
 560 796 560 796 530 806 c 128,-1,33
 500 816 500 816 460 816 c 0,34,35
 432 816 432 816 407 805.5 c 128,-1,36
 382 795 382 795 359.5 779.5 c 128,-1,37
 337 764 337 764 318 746.5 c 128,-1,38
 299 729 299 729 284 716 c 1,39,-1
 176 832 l 1,0,1
EndSplineSet
EndChar

StartChar: asciicircum
Encoding: 94 94 137
Width: 1307
Flags: W
LayerCount: 2
Fore
SplineSet
488 1531 m 1,0,-1
 829 1531 l 1,1,-1
 1221 564 l 1,2,3
 1141 564 1141 564 1061.5 563.5 c 128,-1,4
 982 563 982 563 902 563 c 1,5,-1
 638 1220 l 1,6,-1
 362 563 l 1,7,8
 293 563 293 563 224 563.5 c 128,-1,9
 155 564 155 564 86 564 c 1,10,-1
 488 1531 l 1,0,-1
EndSplineSet
EndChar

StartChar: cent
Encoding: 162 162 138
Width: 1104
Flags: W
LayerCount: 2
Fore
SplineSet
496 -14 m 1,0,1
 280 14 280 14 168.5 149 c 128,-1,2
 57 284 57 284 55 525 c 0,3,4
 54 655 54 655 95 760 c 128,-1,5
 136 865 136 865 208 943 c 128,-1,6
 280 1021 280 1021 377.5 1071 c 128,-1,7
 475 1121 475 1121 587 1140 c 1,8,-1
 601 1362 l 1,9,-1
 794 1362 l 1,10,-1
 782 1150 l 1,11,12
 824 1148 824 1148 865.5 1143.5 c 128,-1,13
 907 1139 907 1139 943 1132.5 c 128,-1,14
 979 1126 979 1126 1008 1117.5 c 128,-1,15
 1037 1109 1037 1109 1055 1099 c 1,16,-1
 1055 782 l 1,17,-1
 872 782 l 1,18,-1
 793 970 l 1,19,20
 765 987 765 987 734 991 c 128,-1,21
 703 995 703 995 671 995 c 0,22,23
 620 995 620 995 575.5 970 c 128,-1,24
 531 945 531 945 498 897.5 c 128,-1,25
 465 850 465 850 445 781 c 128,-1,26
 425 712 425 712 422 624 c 0,27,28
 419 531 419 531 430.5 461 c 128,-1,29
 442 391 442 391 464 341 c 128,-1,30
 486 291 486 291 518 258.5 c 128,-1,31
 550 226 550 226 587 207 c 128,-1,32
 624 188 624 188 665.5 180.5 c 128,-1,33
 707 173 707 173 749 173 c 0,34,35
 849 173 849 173 923 193 c 128,-1,36
 997 213 997 213 1040 247 c 1,37,-1
 1094 118 l 1,38,39
 1022 55 1022 55 924.5 22.5 c 128,-1,40
 827 -10 827 -10 699 -18 c 1,41,-1
 692 -171 l 1,42,-1
 690 -216 l 1,43,-1
 485 -216 l 1,44,-1
 496 -14 l 1,45,-1
 496 -14 l 1,0,1
EndSplineSet
EndChar

StartChar: sterling
Encoding: 163 163 139
Width: 1487
Flags: W
LayerCount: 2
Fore
SplineSet
0 71 m 0,0,1
 0 100 0 100 19.5 130 c 128,-1,2
 39 160 39 160 79 184 c 128,-1,3
 119 208 119 208 180 223 c 128,-1,4
 241 238 241 238 323 238 c 1,5,6
 331 257 331 257 336.5 276.5 c 128,-1,7
 342 296 342 296 345 320 c 128,-1,8
 348 344 348 344 349.5 375.5 c 128,-1,9
 351 407 351 407 351 450 c 2,10,-1
 351 691 l 1,11,-1
 193 691 l 1,12,-1
 193 890 l 1,13,-1
 351 890 l 1,14,-1
 351 918 l 2,15,16
 351 998 351 998 369 1077 c 128,-1,17
 387 1156 387 1156 422 1227.5 c 128,-1,18
 457 1299 457 1299 508.5 1359.5 c 128,-1,19
 560 1420 560 1420 628 1463 c 128,-1,20
 696 1506 696 1506 779 1528.5 c 128,-1,21
 862 1551 862 1551 960 1546 c 1,22,23
 1014 1542 1014 1542 1059 1531.5 c 128,-1,24
 1104 1521 1104 1521 1140 1506.5 c 128,-1,25
 1176 1492 1176 1492 1203.5 1475 c 128,-1,26
 1231 1458 1231 1458 1251 1440 c 1,27,-1
 1094 1156 l 1,28,29
 1089 1169 1089 1169 1077.5 1190.5 c 128,-1,30
 1066 1212 1066 1212 1047.5 1237 c 128,-1,31
 1029 1262 1029 1262 1004.5 1288 c 128,-1,32
 980 1314 980 1314 951 1335 c 128,-1,33
 922 1356 922 1356 888.5 1369 c 128,-1,34
 855 1382 855 1382 819 1382 c 0,35,36
 785 1382 785 1382 763 1362.5 c 128,-1,37
 741 1343 741 1343 728.5 1295.5 c 128,-1,38
 716 1248 716 1248 711.5 1169 c 128,-1,39
 707 1090 707 1090 707 971 c 2,40,-1
 707 890 l 1,41,-1
 958 890 l 1,42,-1
 958 691 l 1,43,-1
 707 691 l 1,44,-1
 707 635 l 2,45,46
 707 559 707 559 701 496.5 c 128,-1,47
 695 434 695 434 680.5 382 c 128,-1,48
 666 330 666 330 642.5 286.5 c 128,-1,49
 619 243 619 243 584 205 c 1,50,51
 623 201 623 201 652.5 193 c 128,-1,52
 682 185 682 185 713.5 176.5 c 128,-1,53
 745 168 745 168 783 161 c 128,-1,54
 821 154 821 154 876 152 c 0,55,56
 926 150 926 150 968 163 c 128,-1,57
 1010 176 1010 176 1040 197.5 c 128,-1,58
 1070 219 1070 219 1086.5 246 c 128,-1,59
 1103 273 1103 273 1103 299 c 0,60,61
 1103 326 1103 326 1091.5 348 c 128,-1,62
 1080 370 1080 370 1064.5 387 c 128,-1,63
 1049 404 1049 404 1033 415.5 c 128,-1,64
 1017 427 1017 427 1007 433 c 1,65,-1
 1143 700 l 1,66,67
 1195 691 1195 691 1242.5 661 c 128,-1,68
 1290 631 1290 631 1326 586 c 128,-1,69
 1362 541 1362 541 1383.5 484 c 128,-1,70
 1405 427 1405 427 1405 365 c 0,71,72
 1405 331 1405 331 1396.5 288 c 128,-1,73
 1388 245 1388 245 1367.5 200 c 128,-1,74
 1347 155 1347 155 1312 112 c 128,-1,75
 1277 69 1277 69 1223.5 35.5 c 128,-1,76
 1170 2 1170 2 1096.5 -18.5 c 128,-1,77
 1023 -39 1023 -39 926 -39 c 0,78,79
 875 -39 875 -39 832.5 -34 c 128,-1,80
 790 -29 790 -29 752 -20 c 0,81,82
 696 -7 696 -7 652 10.5 c 128,-1,83
 608 28 608 28 571 43.5 c 128,-1,84
 534 59 534 59 502.5 69 c 128,-1,85
 471 79 471 79 441 77 c 1,86,87
 399 32 399 32 331.5 2.5 c 128,-1,88
 264 -27 264 -27 173 -29 c 0,89,90
 137 -30 137 -30 105.5 -24 c 128,-1,91
 74 -18 74 -18 50.5 -5.5 c 128,-1,92
 27 7 27 7 13.5 26.5 c 128,-1,93
 0 46 0 46 0 71 c 0,0,1
EndSplineSet
EndChar

StartChar: currency
Encoding: 164 164 140
Width: 1487
Flags: W
LayerCount: 2
Fore
SplineSet
363 469 m 1,0,1
 334 517 334 517 319 572 c 128,-1,2
 304 627 304 627 304 688 c 0,3,4
 304 750 304 750 320.5 806 c 128,-1,5
 337 862 337 862 366 911 c 1,6,-1
 155 1126 l 1,7,-1
 311 1286 l 1,8,-1
 529 1065 l 1,9,-1
 528 1064 l 1,10,11
 574 1089 574 1089 625.5 1102.5 c 128,-1,12
 677 1116 677 1116 734 1116 c 256,13,14
 791 1116 791 1116 843 1102 c 128,-1,15
 895 1088 895 1088 942 1063 c 1,16,-1
 1182 1297 l 1,17,-1
 1340 1136 l 1,18,-1
 1105 906 l 1,19,20
 1134 858 1134 858 1149.5 803 c 128,-1,21
 1165 748 1165 748 1165 688 c 0,22,23
 1165 629 1165 629 1150.5 575.5 c 128,-1,24
 1136 522 1136 522 1109 475 c 1,25,-1
 1325 257 l 1,26,-1
 1167 99 l 1,27,-1
 949 317 l 1,28,29
 901 290 901 290 847 275.5 c 128,-1,30
 793 261 793 261 734 261 c 0,31,32
 677 261 677 261 624.5 274.5 c 128,-1,33
 572 288 572 288 525 314 c 1,34,-1
 308 97 l 1,35,-1
 149 254 l 1,36,-1
 363 469 l 1,0,1
552 688 m 256,37,38
 552 651 552 651 566.5 617 c 128,-1,39
 581 583 581 583 606.5 556.5 c 128,-1,40
 632 530 632 530 665 514 c 128,-1,41
 698 498 698 498 736 498 c 0,42,43
 773 498 773 498 806 514 c 128,-1,44
 839 530 839 530 863.5 556.5 c 128,-1,45
 888 583 888 583 902 617 c 128,-1,46
 916 651 916 651 916 688 c 256,47,48
 916 725 916 725 902 759 c 128,-1,49
 888 793 888 793 863.5 819.5 c 128,-1,50
 839 846 839 846 806 861.5 c 128,-1,51
 773 877 773 877 736 877 c 0,52,53
 698 877 698 877 665 861.5 c 128,-1,54
 632 846 632 846 606.5 819.5 c 128,-1,55
 581 793 581 793 566.5 759 c 128,-1,56
 552 725 552 725 552 688 c 256,37,38
EndSplineSet
EndChar

StartChar: yen
Encoding: 165 165 141
Width: 1413
Flags: W
LayerCount: 2
Fore
SplineSet
322 140 m 1,0,-1
 562 185 l 1,1,-1
 562 330 l 1,2,-1
 202 330 l 1,3,-1
 202 517 l 1,4,-1
 562 517 l 1,5,-1
 562 652 l 1,6,-1
 538 691 l 1,7,-1
 202 691 l 1,8,-1
 202 879 l 1,9,-1
 425 879 l 1,10,-1
 143 1347 l 1,11,-1
 25 1367 l 1,12,-1
 25 1531 l 1,13,-1
 655 1531 l 1,14,-1
 655 1370 l 1,15,-1
 551 1350 l 1,16,-1
 716 1013 l 1,17,-1
 773 879 l 1,18,-1
 787 879 l 1,19,-1
 852 1022 l 1,20,-1
 1000 1343 l 1,21,-1
 847 1367 l 1,22,23
 847 1409 847 1409 846.5 1449 c 128,-1,24
 846 1489 846 1489 846 1531 c 1,25,-1
 1409 1531 l 1,26,-1
 1409 1367 l 1,27,-1
 1267 1327 l 1,28,-1
 1019 879 l 1,29,-1
 1293 879 l 1,30,-1
 1293 691 l 1,31,-1
 918 691 l 1,32,-1
 918 517 l 1,33,-1
 1293 517 l 1,34,-1
 1293 330 l 1,35,-1
 918 330 l 1,36,-1
 918 187 l 1,37,-1
 1176 140 l 1,38,-1
 1176 0 l 1,39,-1
 322 0 l 1,40,-1
 322 140 l 1,0,-1
EndSplineSet
EndChar

StartChar: dollar
Encoding: 36 36 142
Width: 1223
Flags: W
LayerCount: 2
Fore
SplineSet
133 469 m 1,0,-1
 273 469 l 1,1,-1
 364 261 l 1,2,3
 391 226 391 226 419 203.5 c 128,-1,4
 447 181 447 181 478 168.5 c 128,-1,5
 509 156 509 156 543.5 151.5 c 128,-1,6
 578 147 578 147 617 147 c 256,7,8
 656 147 656 147 694.5 156.5 c 128,-1,9
 733 166 733 166 763 185 c 128,-1,10
 793 204 793 204 812 232.5 c 128,-1,11
 831 261 831 261 831 300 c 0,12,13
 831 352 831 352 801.5 399.5 c 128,-1,14
 772 447 772 447 723.5 493 c 128,-1,15
 675 539 675 539 612.5 584 c 128,-1,16
 550 629 550 629 485 676.5 c 128,-1,17
 420 724 420 724 357.5 775 c 128,-1,18
 295 826 295 826 246.5 882.5 c 128,-1,19
 198 939 198 939 168.5 1003.5 c 128,-1,20
 139 1068 139 1068 139 1142 c 0,21,22
 139 1234 139 1234 179.5 1305 c 128,-1,23
 220 1376 220 1376 284 1425.5 c 128,-1,24
 348 1475 348 1475 429 1504 c 128,-1,25
 510 1533 510 1533 591 1542 c 1,26,-1
 597 1771 l 1,27,-1
 821 1771 l 1,28,-1
 815 1540 l 1,29,30
 861 1536 861 1536 903 1529.5 c 128,-1,31
 945 1523 945 1523 981 1515 c 128,-1,32
 1017 1507 1017 1507 1045.5 1497.5 c 128,-1,33
 1074 1488 1074 1488 1093 1478 c 1,34,-1
 1093 1147 l 1,35,-1
 941 1147 l 1,36,-1
 847 1340 l 1,37,38
 842 1346 842 1346 828 1353.5 c 128,-1,39
 814 1361 814 1361 792.5 1368.5 c 128,-1,40
 771 1376 771 1376 743 1381 c 128,-1,41
 715 1386 715 1386 683 1386 c 0,42,43
 643 1386 643 1386 607 1379.5 c 128,-1,44
 571 1373 571 1373 543 1354 c 128,-1,45
 515 1335 515 1335 498.5 1301 c 128,-1,46
 482 1267 482 1267 482 1212 c 0,47,48
 482 1164 482 1164 511 1120 c 128,-1,49
 540 1076 540 1076 588.5 1034 c 128,-1,50
 637 992 637 992 698.5 950 c 128,-1,51
 760 908 760 908 824.5 863.5 c 128,-1,52
 889 819 889 819 950.5 770.5 c 128,-1,53
 1012 722 1012 722 1060.5 666.5 c 128,-1,54
 1109 611 1109 611 1138 547.5 c 128,-1,55
 1167 484 1167 484 1167 410 c 0,56,57
 1167 306 1167 306 1131 229.5 c 128,-1,58
 1095 153 1095 153 1034 101 c 128,-1,59
 973 49 973 49 890.5 20 c 128,-1,60
 808 -9 808 -9 715 -18 c 1,61,-1
 708 -231 l 1,62,-1
 484 -231 l 1,63,-1
 491 -18 l 1,64,65
 382 -10 382 -10 287.5 11 c 128,-1,66
 193 32 193 32 133 64 c 1,67,-1
 133 469 l 1,0,-1
EndSplineSet
EndChar

StartChar: euro
Encoding: 8364 8364 143
Width: 1651
Flags: W
LayerCount: 2
Fore
SplineSet
84 691 m 1,0,-1
 263 691 l 1,1,-1
 263 714 l 2,2,3
 263 753 263 753 266 793 c 128,-1,4
 269 833 269 833 274 874 c 1,5,-1
 114 874 l 1,6,-1
 114 1076 l 1,7,-1
 325 1076 l 1,8,9
 361 1173 361 1173 421.5 1259 c 128,-1,10
 482 1345 482 1345 570 1409 c 128,-1,11
 658 1473 658 1473 776 1510.5 c 128,-1,12
 894 1548 894 1548 1047 1548 c 0,13,14
 1129 1548 1129 1548 1195 1533 c 128,-1,15
 1261 1518 1261 1518 1315.5 1502 c 128,-1,16
 1370 1486 1370 1486 1416 1476 c 128,-1,17
 1462 1466 1462 1466 1505 1477 c 1,18,-1
 1487 1099 l 1,19,-1
 1329 1099 l 1,20,-1
 1257 1289 l 1,21,22
 1209 1327 1209 1327 1142 1346.5 c 128,-1,23
 1075 1366 1075 1366 993 1366 c 0,24,25
 917 1366 917 1366 862.5 1346.5 c 128,-1,26
 808 1327 808 1327 771.5 1290 c 128,-1,27
 735 1253 735 1253 713 1199 c 128,-1,28
 691 1145 691 1145 680 1076 c 1,29,-1
 1119 1076 l 1,30,-1
 1119 874 l 1,31,-1
 663 874 l 1,32,33
 662 848 662 848 662 821 c 128,-1,34
 662 794 662 794 662 766 c 0,35,36
 662 746 662 746 662 727.5 c 128,-1,37
 662 709 662 709 663 691 c 1,38,-1
 1101 691 l 1,39,-1
 1101 488 l 1,40,-1
 681 488 l 1,41,42
 695 410 695 410 721 346.5 c 128,-1,43
 747 283 747 283 789.5 238.5 c 128,-1,44
 832 194 832 194 892.5 170 c 128,-1,45
 953 146 953 146 1037 145 c 0,46,47
 1090 144 1090 144 1127 153.5 c 128,-1,48
 1164 163 1164 163 1190 178 c 0,49,50
 1222 197 1222 197 1242 225.5 c 128,-1,51
 1262 254 1262 254 1275 288 c 128,-1,52
 1288 322 1288 322 1297.5 357.5 c 128,-1,53
 1307 393 1307 393 1318 425 c 1,54,-1
 1504 425 l 1,55,-1
 1504 63 l 1,56,57
 1468 70 1468 70 1438 65.5 c 128,-1,58
 1408 61 1408 61 1377 51 c 128,-1,59
 1346 41 1346 41 1311.5 27.5 c 128,-1,60
 1277 14 1277 14 1231.5 1.5 c 128,-1,61
 1186 -11 1186 -11 1126.5 -19.5 c 128,-1,62
 1067 -28 1067 -28 987 -28 c 0,63,64
 853 -28 853 -28 739 8.5 c 128,-1,65
 625 45 625 45 535.5 112 c 128,-1,66
 446 179 446 179 383.5 274.5 c 128,-1,67
 321 370 321 370 290 488 c 1,68,-1
 84 488 l 1,69,-1
 84 691 l 1,0,-1
EndSplineSet
EndChar

StartChar: acute
Encoding: 180 180 144
Width: 887
Flags: W
LayerCount: 2
Fore
SplineSet
366 1425 m 1,0,-1
 681 1851 l 1,1,-1
 936 1656 l 1,2,3
 900 1599 900 1599 844 1549.5 c 128,-1,4
 788 1500 788 1500 722.5 1459.5 c 128,-1,5
 657 1419 657 1419 587.5 1387.5 c 128,-1,6
 518 1356 518 1356 454 1336 c 1,7,-1
 366 1425 l 1,0,-1
EndSplineSet
EndChar

StartChar: grave
Encoding: 96 96 145
Width: 799
Flags: W
LayerCount: 2
Fore
SplineSet
715 1337 m 1,0,1
 655 1335 655 1335 586 1364.5 c 128,-1,2
 517 1394 517 1394 451.5 1440.5 c 128,-1,3
 386 1487 386 1487 328.5 1544.5 c 128,-1,4
 271 1602 271 1602 233 1657 c 1,5,-1
 488 1852 l 1,6,-1
 803 1426 l 1,7,-1
 715 1337 l 1,8,-1
 715 1337 l 1,0,1
EndSplineSet
EndChar

StartChar: dieresis
Encoding: 168 168 146
Width: 1041
Flags: W
LayerCount: 2
Fore
SplineSet
747 1283 m 0,0,1
 711 1283 711 1283 677.5 1295 c 128,-1,2
 644 1307 644 1307 618 1330 c 128,-1,3
 592 1353 592 1353 576.5 1387 c 128,-1,4
 561 1421 561 1421 561 1465 c 0,5,6
 561 1511 561 1511 579.5 1549.5 c 128,-1,7
 598 1588 598 1588 628 1616 c 128,-1,8
 658 1644 658 1644 696 1659.5 c 128,-1,9
 734 1675 734 1675 773 1675 c 0,10,11
 823 1675 823 1675 858 1661 c 128,-1,12
 893 1647 893 1647 915 1623 c 128,-1,13
 937 1599 937 1599 947 1566 c 128,-1,14
 957 1533 957 1533 957 1495 c 0,15,16
 957 1446 957 1446 939.5 1407 c 128,-1,17
 922 1368 922 1368 893 1340.5 c 128,-1,18
 864 1313 864 1313 826 1298 c 128,-1,19
 788 1283 788 1283 747 1283 c 0,0,1
267 1282 m 0,20,21
 230 1282 230 1282 196.5 1293.5 c 128,-1,22
 163 1305 163 1305 138 1328 c 128,-1,23
 113 1351 113 1351 98.5 1384 c 128,-1,24
 84 1417 84 1417 84 1461 c 0,25,26
 84 1508 84 1508 102 1547 c 128,-1,27
 120 1586 120 1586 150 1614.5 c 128,-1,28
 180 1643 180 1643 218 1659 c 128,-1,29
 256 1675 256 1675 295 1675 c 0,30,31
 345 1675 345 1675 380.5 1661 c 128,-1,32
 416 1647 416 1647 439 1622.5 c 128,-1,33
 462 1598 462 1598 473 1565 c 128,-1,34
 484 1532 484 1532 484 1493 c 0,35,36
 484 1445 484 1445 466 1406 c 128,-1,37
 448 1367 448 1367 417.5 1339.5 c 128,-1,38
 387 1312 387 1312 348 1297 c 128,-1,39
 309 1282 309 1282 267 1282 c 0,20,21
EndSplineSet
EndChar

StartChar: circumflex
Encoding: 710 710 147
Width: 1434
Flags: W
LayerCount: 2
Fore
SplineSet
341 1409 m 1,0,-1
 572 1775 l 1,1,-1
 865 1775 l 1,2,-1
 1102 1410 l 1,3,-1
 957 1336 l 1,4,-1
 718 1542 l 1,5,-1
 472 1335 l 1,6,-1
 341 1409 l 1,0,-1
EndSplineSet
EndChar

StartChar: caron
Encoding: 711 711 148
Width: 1081
Flags: W
LayerCount: 2
Fore
SplineSet
156 1700 m 1,0,-1
 301 1774 l 1,1,-1
 540 1568 l 1,2,-1
 786 1775 l 1,3,-1
 917 1701 l 1,4,-1
 686 1335 l 1,5,-1
 393 1335 l 1,6,-1
 156 1700 l 1,0,-1
EndSplineSet
EndChar

StartChar: breve
Encoding: 728 728 149
Width: 1436
Flags: W
LayerCount: 2
Fore
SplineSet
718 1244 m 0,0,1
 624 1244 624 1244 554 1275.5 c 128,-1,2
 484 1307 484 1307 437.5 1357.5 c 128,-1,3
 391 1408 391 1408 367.5 1470 c 128,-1,4
 344 1532 344 1532 344 1593 c 1,5,-1
 555 1593 l 1,6,7
 558 1581 558 1581 565.5 1556.5 c 128,-1,8
 573 1532 573 1532 591 1507 c 128,-1,9
 609 1482 609 1482 640 1463.5 c 128,-1,10
 671 1445 671 1445 719 1445 c 0,11,12
 765 1445 765 1445 795.5 1463.5 c 128,-1,13
 826 1482 826 1482 845 1507 c 128,-1,14
 864 1532 864 1532 873 1557 c 128,-1,15
 882 1582 882 1582 885 1594 c 1,16,-1
 1092 1594 l 1,17,18
 1092 1533 1092 1533 1067 1470.5 c 128,-1,19
 1042 1408 1042 1408 994.5 1358 c 128,-1,20
 947 1308 947 1308 877.5 1276 c 128,-1,21
 808 1244 808 1244 718 1244 c 0,0,1
EndSplineSet
EndChar

StartChar: macron
Encoding: 175 175 150
Width: 1082
Flags: W
LayerCount: 2
Fore
SplineSet
258 1584 m 1,0,-1
 824 1584 l 1,1,-1
 824 1343 l 1,2,-1
 258 1343 l 1,3,-1
 258 1584 l 1,0,-1
EndSplineSet
EndChar

StartChar: dotaccent
Encoding: 729 729 151
Width: 635
Flags: W
LayerCount: 2
Fore
SplineSet
295 1305 m 0,0,1
 258 1305 258 1305 224 1316.5 c 128,-1,2
 190 1328 190 1328 164.5 1351 c 128,-1,3
 139 1374 139 1374 124 1408 c 128,-1,4
 109 1442 109 1442 109 1487 c 0,5,6
 109 1534 109 1534 127.5 1573 c 128,-1,7
 146 1612 146 1612 176.5 1639.5 c 128,-1,8
 207 1667 207 1667 245.5 1682.5 c 128,-1,9
 284 1698 284 1698 323 1698 c 0,10,11
 373 1698 373 1698 409 1684 c 128,-1,12
 445 1670 445 1670 468.5 1645.5 c 128,-1,13
 492 1621 492 1621 503.5 1587 c 128,-1,14
 515 1553 515 1553 515 1513 c 0,15,16
 515 1465 515 1465 496.5 1426.5 c 128,-1,17
 478 1388 478 1388 447 1361 c 128,-1,18
 416 1334 416 1334 376.5 1319.5 c 128,-1,19
 337 1305 337 1305 295 1305 c 0,0,1
EndSplineSet
EndChar

StartChar: ring
Encoding: 730 730 152
Width: 635
Flags: W
LayerCount: 2
Fore
SplineSet
318 1285 m 0,0,1
 258 1285 258 1285 204.5 1306.5 c 128,-1,2
 151 1328 151 1328 111 1365.5 c 128,-1,3
 71 1403 71 1403 48 1453 c 128,-1,4
 25 1503 25 1503 25 1560 c 256,5,6
 25 1617 25 1617 48 1667 c 128,-1,7
 71 1717 71 1717 111 1754.5 c 128,-1,8
 151 1792 151 1792 204.5 1813.5 c 128,-1,9
 258 1835 258 1835 318 1835 c 0,10,11
 379 1835 379 1835 433 1812.5 c 128,-1,12
 487 1790 487 1790 527 1752 c 128,-1,13
 567 1714 567 1714 590 1664.5 c 128,-1,14
 613 1615 613 1615 613 1560 c 0,15,16
 613 1503 613 1503 590 1453 c 128,-1,17
 567 1403 567 1403 527 1365.5 c 128,-1,18
 487 1328 487 1328 433 1306.5 c 128,-1,19
 379 1285 379 1285 318 1285 c 0,0,1
318 1427 m 0,20,21
 346 1427 346 1427 370 1437 c 128,-1,22
 394 1447 394 1447 412 1464.5 c 128,-1,23
 430 1482 430 1482 440 1506.5 c 128,-1,24
 450 1531 450 1531 450 1560 c 0,25,26
 450 1587 450 1587 440 1611.5 c 128,-1,27
 430 1636 430 1636 412 1654.5 c 128,-1,28
 394 1673 394 1673 370 1683.5 c 128,-1,29
 346 1694 346 1694 318 1694 c 0,30,31
 288 1694 288 1694 263.5 1684 c 128,-1,32
 239 1674 239 1674 221.5 1656 c 128,-1,33
 204 1638 204 1638 194.5 1613.5 c 128,-1,34
 185 1589 185 1589 185 1560 c 256,35,36
 185 1531 185 1531 194.5 1506.5 c 128,-1,37
 204 1482 204 1482 221.5 1464.5 c 128,-1,38
 239 1447 239 1447 263.5 1437 c 128,-1,39
 288 1427 288 1427 318 1427 c 0,20,21
EndSplineSet
EndChar

StartChar: ogonek
Encoding: 731 731 153
Width: 769
Flags: W
LayerCount: 2
Fore
SplineSet
428 7 m 1,0,-1
 591 0 l 1,1,2
 535 -19 535 -19 485.5 -44.5 c 128,-1,3
 436 -70 436 -70 398.5 -97 c 128,-1,4
 361 -124 361 -124 336.5 -150 c 128,-1,5
 312 -176 312 -176 305 -195 c 0,6,7
 293 -229 293 -229 295.5 -249.5 c 128,-1,8
 298 -270 298 -270 308.5 -280.5 c 128,-1,9
 319 -291 319 -291 335.5 -294.5 c 128,-1,10
 352 -298 352 -298 369 -298 c 0,11,12
 386 -299 386 -299 407 -295 c 128,-1,13
 428 -291 428 -291 449 -286 c 0,14,15
 470 -280 470 -280 490.5 -273.5 c 128,-1,16
 511 -267 511 -267 527 -260.5 c 128,-1,17
 543 -254 543 -254 554 -249.5 c 128,-1,18
 565 -245 565 -245 567 -244 c 1,19,-1
 602 -378 l 1,20,21
 588 -390 588 -390 564 -408.5 c 128,-1,22
 540 -427 540 -427 504 -446 c 128,-1,23
 468 -465 468 -465 419 -481.5 c 128,-1,24
 370 -498 370 -498 304 -507 c 0,25,26
 278 -511 278 -511 249 -512.5 c 128,-1,27
 220 -514 220 -514 188 -514 c 0,28,29
 130 -514 130 -514 90.5 -499 c 128,-1,30
 51 -484 51 -484 26 -461 c 128,-1,31
 1 -438 1 -438 -11 -409 c 128,-1,32
 -23 -380 -23 -380 -25 -351 c 0,33,34
 -27 -315 -27 -315 -3 -266.5 c 128,-1,35
 21 -218 21 -218 68.5 -167 c 128,-1,36
 116 -116 116 -116 186 -69 c 128,-1,37
 256 -22 256 -22 347 10 c 1,38,-1
 428 7 l 1,0,-1
EndSplineSet
EndChar

StartChar: tilde
Encoding: 732 732 154
Width: 1081
Flags: W
LayerCount: 2
Fore
SplineSet
112 1487 m 1,0,1
 128 1531 128 1531 165.5 1569 c 128,-1,2
 203 1607 203 1607 248 1635 c 128,-1,3
 293 1663 293 1663 339 1679 c 128,-1,4
 385 1695 385 1695 420 1695 c 0,5,6
 475 1695 475 1695 515.5 1679.5 c 128,-1,7
 556 1664 556 1664 589.5 1645 c 128,-1,8
 623 1626 623 1626 652 1610.5 c 128,-1,9
 681 1595 681 1595 713 1595 c 0,10,11
 766 1595 766 1595 806 1617.5 c 128,-1,12
 846 1640 846 1640 879 1666 c 1,13,-1
 968 1549 l 1,14,15
 951 1505 951 1505 915 1466.5 c 128,-1,16
 879 1428 879 1428 835.5 1399.5 c 128,-1,17
 792 1371 792 1371 747 1354.5 c 128,-1,18
 702 1338 702 1338 667 1338 c 0,19,20
 613 1338 613 1338 571 1354 c 128,-1,21
 529 1370 529 1370 494.5 1389.5 c 128,-1,22
 460 1409 460 1409 429.5 1425 c 128,-1,23
 399 1441 399 1441 367 1441 c 0,24,25
 345 1441 345 1441 322.5 1434.5 c 128,-1,26
 300 1428 300 1428 278.5 1417.5 c 128,-1,27
 257 1407 257 1407 237 1394.5 c 128,-1,28
 217 1382 217 1382 199 1369 c 1,29,-1
 112 1487 l 1,0,1
EndSplineSet
EndChar

StartChar: hungarumlaut
Encoding: 733 733 155
Width: 975
Flags: W
LayerCount: 2
Fore
SplineSet
556 1421 m 1,0,-1
 841 1837 l 1,1,-1
 1072 1672 l 1,2,3
 1043 1634 1043 1634 997.5 1581 c 128,-1,4
 952 1528 952 1528 899.5 1475.5 c 128,-1,5
 847 1423 847 1423 792.5 1380.5 c 128,-1,6
 738 1338 738 1338 692 1322 c 1,7,-1
 556 1421 l 1,0,-1
-18 1421 m 1,8,-1
 272 1837 l 1,9,-1
 494 1672 l 1,10,11
 468 1634 468 1634 424 1582.5 c 128,-1,12
 380 1531 380 1531 329 1480 c 128,-1,13
 278 1429 278 1429 224.5 1386 c 128,-1,14
 171 1343 171 1343 125 1322 c 1,15,-1
 -18 1421 l 1,8,-1
EndSplineSet
EndChar

StartChar: carondl
Encoding: 65540 -1 156
Width: 468
Flags: W
LayerCount: 2
Fore
SplineSet
111 1593 m 1,0,-1
 363 1593 l 1,1,-1
 282 1017 l 1,2,-1
 111 1017 l 1,3,-1
 111 1593 l 1,0,-1
EndSplineSet
EndChar

StartChar: cedilla
Encoding: 184 184 157
Width: 674
Flags: W
LayerCount: 2
Fore
SplineSet
370 10 m 1,0,1
 368 -2 368 -2 368 -20 c 128,-1,2
 368 -38 368 -38 369 -57.5 c 128,-1,3
 370 -77 370 -77 371.5 -96.5 c 128,-1,4
 373 -116 373 -116 375 -131 c 1,5,6
 438 -137 438 -137 479 -159.5 c 128,-1,7
 520 -182 520 -182 543.5 -210.5 c 128,-1,8
 567 -239 567 -239 576.5 -270 c 128,-1,9
 586 -301 586 -301 586 -324 c 0,10,11
 586 -374 586 -374 567 -411.5 c 128,-1,12
 548 -449 548 -449 513.5 -474.5 c 128,-1,13
 479 -500 479 -500 431 -514 c 128,-1,14
 383 -528 383 -528 325 -531 c 0,15,16
 278 -533 278 -533 237 -530.5 c 128,-1,17
 196 -528 196 -528 162.5 -522.5 c 128,-1,18
 129 -517 129 -517 103 -511 c 128,-1,19
 77 -505 77 -505 61 -501 c 1,20,-1
 61 -352 l 1,21,22
 73 -355 73 -355 92 -357.5 c 128,-1,23
 111 -360 111 -360 130 -362 c 128,-1,24
 149 -364 149 -364 165 -365 c 128,-1,25
 181 -366 181 -366 187 -366 c 0,26,27
 211 -366 211 -366 223.5 -361.5 c 128,-1,28
 236 -357 236 -357 241.5 -348 c 128,-1,29
 247 -339 247 -339 248 -326 c 128,-1,30
 249 -313 249 -313 249 -296 c 0,31,32
 249 -294 249 -294 248.5 -287.5 c 128,-1,33
 248 -281 248 -281 240.5 -273.5 c 128,-1,34
 233 -266 233 -266 215.5 -260 c 128,-1,35
 198 -254 198 -254 164 -253 c 0,36,37
 158 -253 158 -253 148.5 -253.5 c 128,-1,38
 139 -254 139 -254 130 -254.5 c 128,-1,39
 121 -255 121 -255 114 -256 c 128,-1,40
 107 -257 107 -257 106 -257 c 1,41,42
 106 -233 106 -233 111.5 -193.5 c 128,-1,43
 117 -154 117 -154 125.5 -113.5 c 128,-1,44
 134 -73 134 -73 144 -38.5 c 128,-1,45
 154 -4 154 -4 164 10 c 1,46,-1
 370 10 l 1,0,1
EndSplineSet
EndChar

StartChar: commabelow
Encoding: 65541 -1 158
Width: 767
Flags: W
LayerCount: 2
Fore
SplineSet
341 70 m 1,0,1
 393 70 393 70 439.5 51 c 128,-1,2
 486 32 486 32 520 -4.5 c 128,-1,3
 554 -41 554 -41 574 -93 c 128,-1,4
 594 -145 594 -145 594 -211 c 0,5,6
 594 -282 594 -282 568 -337.5 c 128,-1,7
 542 -393 542 -393 502 -433.5 c 128,-1,8
 462 -474 462 -474 413.5 -500.5 c 128,-1,9
 365 -527 365 -527 320 -540 c 1,10,-1
 192 -479 l 1,11,-1
 192 -458 l 1,12,13
 204 -444 204 -444 223.5 -431 c 128,-1,14
 243 -418 243 -418 261.5 -400 c 128,-1,15
 280 -382 280 -382 294 -357 c 128,-1,16
 308 -332 308 -332 308 -294 c 0,17,18
 308 -267 308 -267 296.5 -245 c 128,-1,19
 285 -223 285 -223 267 -207 c 128,-1,20
 249 -191 249 -191 226.5 -181.5 c 128,-1,21
 204 -172 204 -172 183 -170 c 1,22,-1
 183 -103 l 1,23,-1
 341 70 l 1,0,1
EndSplineSet
EndChar

StartChar: commaaccent
Encoding: 65542 -1 159
Width: 767
Flags: W
LayerCount: 2
Fore
SplineSet
341 70 m 1,0,1
 393 70 393 70 439.5 51 c 128,-1,2
 486 32 486 32 520 -4.5 c 128,-1,3
 554 -41 554 -41 574 -93 c 128,-1,4
 594 -145 594 -145 594 -211 c 0,5,6
 594 -282 594 -282 568 -337.5 c 128,-1,7
 542 -393 542 -393 502 -433.5 c 128,-1,8
 462 -474 462 -474 413.5 -500.5 c 128,-1,9
 365 -527 365 -527 320 -540 c 1,10,-1
 192 -479 l 1,11,-1
 192 -458 l 1,12,13
 204 -444 204 -444 223.5 -431 c 128,-1,14
 243 -418 243 -418 261.5 -400 c 128,-1,15
 280 -382 280 -382 294 -357 c 128,-1,16
 308 -332 308 -332 308 -294 c 0,17,18
 308 -267 308 -267 296.5 -245 c 128,-1,19
 285 -223 285 -223 267 -207 c 128,-1,20
 249 -191 249 -191 226.5 -181.5 c 128,-1,21
 204 -172 204 -172 183 -170 c 1,22,-1
 183 -103 l 1,23,-1
 341 70 l 1,0,1
EndSplineSet
EndChar

StartChar: acute.cap
Encoding: 65543 -1 160
Width: 905
Flags: W
LayerCount: 2
Fore
SplineSet
311 1721 m 1,0,-1
 616 2022 l 1,1,-1
 804 1839 l 1,2,3
 791 1808 791 1808 761.5 1777 c 128,-1,4
 732 1746 732 1746 694.5 1719 c 128,-1,5
 657 1692 657 1692 615.5 1669 c 128,-1,6
 574 1646 574 1646 536 1630.5 c 128,-1,7
 498 1615 498 1615 468.5 1608 c 128,-1,8
 439 1601 439 1601 425 1606 c 1,9,-1
 311 1721 l 1,0,-1
EndSplineSet
EndChar

StartChar: grave.cap
Encoding: 65544 -1 161
Width: 905
Flags: W
LayerCount: 2
Fore
SplineSet
480 1606 m 1,0,1
 466 1602 466 1602 436.5 1609 c 128,-1,2
 407 1616 407 1616 369 1631.5 c 128,-1,3
 331 1647 331 1647 289.5 1669.5 c 128,-1,4
 248 1692 248 1692 210.5 1719.5 c 128,-1,5
 173 1747 173 1747 143.5 1777.5 c 128,-1,6
 114 1808 114 1808 101 1839 c 1,7,-1
 289 2022 l 1,8,-1
 594 1721 l 1,9,-1
 480 1606 l 1,10,-1
 480 1606 l 1,0,1
EndSplineSet
EndChar

StartChar: dieresis.cap
Encoding: 65545 -1 162
Width: 1081
Flags: W
LayerCount: 2
Fore
SplineSet
787 1617 m 0,0,1
 751 1617 751 1617 717.5 1629 c 128,-1,2
 684 1641 684 1641 658 1664 c 128,-1,3
 632 1687 632 1687 616.5 1721 c 128,-1,4
 601 1755 601 1755 601 1799 c 0,5,6
 601 1845 601 1845 619.5 1883.5 c 128,-1,7
 638 1922 638 1922 668 1950 c 128,-1,8
 698 1978 698 1978 736 1993.5 c 128,-1,9
 774 2009 774 2009 813 2009 c 0,10,11
 863 2009 863 2009 898 1995 c 128,-1,12
 933 1981 933 1981 955 1957 c 128,-1,13
 977 1933 977 1933 987 1900 c 128,-1,14
 997 1867 997 1867 997 1829 c 0,15,16
 997 1780 997 1780 979.5 1741 c 128,-1,17
 962 1702 962 1702 933 1674.5 c 128,-1,18
 904 1647 904 1647 866 1632 c 128,-1,19
 828 1617 828 1617 787 1617 c 0,0,1
267 1616 m 0,20,21
 230 1616 230 1616 196.5 1627.5 c 128,-1,22
 163 1639 163 1639 138 1662 c 128,-1,23
 113 1685 113 1685 98.5 1718 c 128,-1,24
 84 1751 84 1751 84 1795 c 0,25,26
 84 1842 84 1842 102 1881 c 128,-1,27
 120 1920 120 1920 150 1948.5 c 128,-1,28
 180 1977 180 1977 218 1993 c 128,-1,29
 256 2009 256 2009 295 2009 c 0,30,31
 345 2009 345 2009 380.5 1995 c 128,-1,32
 416 1981 416 1981 439 1956.5 c 128,-1,33
 462 1932 462 1932 473 1899 c 128,-1,34
 484 1866 484 1866 484 1827 c 0,35,36
 484 1779 484 1779 466 1740 c 128,-1,37
 448 1701 448 1701 417.5 1673.5 c 128,-1,38
 387 1646 387 1646 348 1631 c 128,-1,39
 309 1616 309 1616 267 1616 c 0,20,21
EndSplineSet
EndChar

StartChar: circumflex.cap
Encoding: 65546 -1 163
Width: 1081
Flags: W
LayerCount: 2
Fore
SplineSet
121 1670 m 1,0,-1
 406 1955 l 1,1,-1
 698 1955 l 1,2,-1
 960 1670 l 1,3,-1
 816 1597 l 1,4,-1
 540 1746 l 1,5,-1
 252 1597 l 1,6,-1
 121 1670 l 1,0,-1
EndSplineSet
EndChar

StartChar: caron.cap
Encoding: 65547 -1 164
Width: 1081
Flags: W
LayerCount: 2
Fore
SplineSet
125 1949 m 1,0,-1
 255 2021 l 1,1,-1
 541 1875 l 1,2,-1
 810 2021 l 1,3,-1
 956 1948 l 1,4,-1
 699 1666 l 1,5,-1
 401 1666 l 1,6,-1
 125 1949 l 1,0,-1
EndSplineSet
EndChar

StartChar: breve.cap
Encoding: 65548 -1 165
Width: 728
Flags: W
LayerCount: 2
Fore
SplineSet
364 1643 m 0,0,1
 270 1643 270 1643 200 1674.5 c 128,-1,2
 130 1706 130 1706 83.5 1756.5 c 128,-1,3
 37 1807 37 1807 13.5 1869 c 128,-1,4
 -10 1931 -10 1931 -10 1992 c 1,5,-1
 201 1992 l 1,6,7
 204 1980 204 1980 211.5 1955.5 c 128,-1,8
 219 1931 219 1931 237 1906 c 128,-1,9
 255 1881 255 1881 286 1862.5 c 128,-1,10
 317 1844 317 1844 365 1844 c 0,11,12
 411 1844 411 1844 441.5 1862.5 c 128,-1,13
 472 1881 472 1881 491 1906 c 128,-1,14
 510 1931 510 1931 519 1956 c 128,-1,15
 528 1981 528 1981 531 1993 c 1,16,-1
 738 1993 l 1,17,18
 738 1932 738 1932 713 1869.5 c 128,-1,19
 688 1807 688 1807 640.5 1757 c 128,-1,20
 593 1707 593 1707 523.5 1675 c 128,-1,21
 454 1643 454 1643 364 1643 c 0,0,1
EndSplineSet
EndChar

StartChar: dotaccent.cap
Encoding: 65549 -1 166
Width: 728
Flags: W
LayerCount: 2
Fore
SplineSet
352 1617 m 0,0,1
 316 1617 316 1617 282.5 1629 c 128,-1,2
 249 1641 249 1641 223 1664 c 128,-1,3
 197 1687 197 1687 181.5 1721 c 128,-1,4
 166 1755 166 1755 166 1799 c 0,5,6
 166 1845 166 1845 184.5 1883.5 c 128,-1,7
 203 1922 203 1922 233 1950 c 128,-1,8
 263 1978 263 1978 301 1993.5 c 128,-1,9
 339 2009 339 2009 378 2009 c 0,10,11
 428 2009 428 2009 463 1995 c 128,-1,12
 498 1981 498 1981 520 1957 c 128,-1,13
 542 1933 542 1933 552 1900 c 128,-1,14
 562 1867 562 1867 562 1829 c 0,15,16
 562 1780 562 1780 544.5 1741 c 128,-1,17
 527 1702 527 1702 498 1674.5 c 128,-1,18
 469 1647 469 1647 431 1632 c 128,-1,19
 393 1617 393 1617 352 1617 c 0,0,1
EndSplineSet
EndChar

StartChar: ring.cap
Encoding: 65550 -1 167
Width: 633
Flags: W
LayerCount: 2
Fore
SplineSet
315 1455 m 0,0,1
 255 1455 255 1455 201.5 1476.5 c 128,-1,2
 148 1498 148 1498 108 1535.5 c 128,-1,3
 68 1573 68 1573 45 1623 c 128,-1,4
 22 1673 22 1673 22 1730 c 256,5,6
 22 1787 22 1787 45 1837 c 128,-1,7
 68 1887 68 1887 108 1924.5 c 128,-1,8
 148 1962 148 1962 201.5 1983.5 c 128,-1,9
 255 2005 255 2005 315 2005 c 0,10,11
 376 2005 376 2005 430 1982.5 c 128,-1,12
 484 1960 484 1960 524 1922 c 128,-1,13
 564 1884 564 1884 587 1834.5 c 128,-1,14
 610 1785 610 1785 610 1730 c 0,15,16
 610 1673 610 1673 587 1623 c 128,-1,17
 564 1573 564 1573 524 1535.5 c 128,-1,18
 484 1498 484 1498 430 1476.5 c 128,-1,19
 376 1455 376 1455 315 1455 c 0,0,1
315 1597 m 0,20,21
 343 1597 343 1597 367 1607 c 128,-1,22
 391 1617 391 1617 409 1634.5 c 128,-1,23
 427 1652 427 1652 437 1676.5 c 128,-1,24
 447 1701 447 1701 447 1730 c 0,25,26
 447 1757 447 1757 437 1781.5 c 128,-1,27
 427 1806 427 1806 409 1824.5 c 128,-1,28
 391 1843 391 1843 367 1853.5 c 128,-1,29
 343 1864 343 1864 315 1864 c 0,30,31
 285 1864 285 1864 260.5 1854 c 128,-1,32
 236 1844 236 1844 218.5 1826 c 128,-1,33
 201 1808 201 1808 191.5 1783.5 c 128,-1,34
 182 1759 182 1759 182 1730 c 256,35,36
 182 1701 182 1701 191.5 1676.5 c 128,-1,37
 201 1652 201 1652 218.5 1634.5 c 128,-1,38
 236 1617 236 1617 260.5 1607 c 128,-1,39
 285 1597 285 1597 315 1597 c 0,20,21
EndSplineSet
EndChar

StartChar: ogonek.cap
Encoding: 65551 -1 168
Width: 769
Flags: W
LayerCount: 2
Fore
SplineSet
402 18 m 1,0,-1
 565 11 l 1,1,2
 509 -8 509 -8 459.5 -33.5 c 128,-1,3
 410 -59 410 -59 372.5 -86 c 128,-1,4
 335 -113 335 -113 310.5 -139 c 128,-1,5
 286 -165 286 -165 279 -184 c 0,6,7
 267 -218 267 -218 269.5 -238.5 c 128,-1,8
 272 -259 272 -259 282.5 -269.5 c 128,-1,9
 293 -280 293 -280 309.5 -283.5 c 128,-1,10
 326 -287 326 -287 343 -287 c 0,11,12
 360 -288 360 -288 381 -284 c 128,-1,13
 402 -280 402 -280 423 -275 c 0,14,15
 444 -269 444 -269 464.5 -262.5 c 128,-1,16
 485 -256 485 -256 501 -249.5 c 128,-1,17
 517 -243 517 -243 528 -238.5 c 128,-1,18
 539 -234 539 -234 541 -233 c 1,19,-1
 576 -367 l 1,20,21
 562 -379 562 -379 538 -397.5 c 128,-1,22
 514 -416 514 -416 478 -435 c 128,-1,23
 442 -454 442 -454 393 -470.5 c 128,-1,24
 344 -487 344 -487 278 -496 c 0,25,26
 252 -500 252 -500 223 -501.5 c 128,-1,27
 194 -503 194 -503 162 -503 c 0,28,29
 104 -503 104 -503 64.5 -488 c 128,-1,30
 25 -473 25 -473 0 -450 c 128,-1,31
 -25 -427 -25 -427 -37 -398 c 128,-1,32
 -49 -369 -49 -369 -51 -340 c 0,33,34
 -53 -304 -53 -304 -29 -255.5 c 128,-1,35
 -5 -207 -5 -207 42.5 -156 c 128,-1,36
 90 -105 90 -105 160 -58 c 128,-1,37
 230 -11 230 -11 321 21 c 1,38,-1
 402 18 l 1,0,-1
EndSplineSet
EndChar

StartChar: tilde.cap
Encoding: 65552 -1 169
Width: 1081
Flags: W
LayerCount: 2
Fore
SplineSet
112 1810 m 1,0,1
 128 1854 128 1854 165.5 1892 c 128,-1,2
 203 1930 203 1930 248 1958 c 128,-1,3
 293 1986 293 1986 339 2002 c 128,-1,4
 385 2018 385 2018 420 2018 c 0,5,6
 475 2018 475 2018 515.5 2002.5 c 128,-1,7
 556 1987 556 1987 589.5 1968 c 128,-1,8
 623 1949 623 1949 652 1933.5 c 128,-1,9
 681 1918 681 1918 713 1918 c 0,10,11
 766 1918 766 1918 806 1940.5 c 128,-1,12
 846 1963 846 1963 879 1989 c 1,13,-1
 968 1872 l 1,14,15
 951 1828 951 1828 915 1789.5 c 128,-1,16
 879 1751 879 1751 835.5 1722.5 c 128,-1,17
 792 1694 792 1694 747 1677.5 c 128,-1,18
 702 1661 702 1661 667 1661 c 0,19,20
 613 1661 613 1661 571 1677 c 128,-1,21
 529 1693 529 1693 494.5 1712.5 c 128,-1,22
 460 1732 460 1732 429.5 1748 c 128,-1,23
 399 1764 399 1764 367 1764 c 0,24,25
 345 1764 345 1764 322.5 1757.5 c 128,-1,26
 300 1751 300 1751 278.5 1740.5 c 128,-1,27
 257 1730 257 1730 237 1717.5 c 128,-1,28
 217 1705 217 1705 199 1692 c 1,29,-1
 112 1810 l 1,0,1
EndSplineSet
EndChar

StartChar: hungarumlaut.cap
Encoding: 65553 -1 170
Width: 1081
Flags: W
LayerCount: 2
Fore
SplineSet
538 1665 m 1,0,-1
 836 2018 l 1,1,-1
 1066 1804 l 1,2,3
 1009 1740 1009 1740 942.5 1695.5 c 128,-1,4
 876 1651 876 1651 813.5 1624 c 128,-1,5
 751 1597 751 1597 700.5 1586.5 c 128,-1,6
 650 1576 650 1576 625 1579 c 1,7,-1
 538 1665 l 1,0,-1
15 1665 m 1,8,-1
 314 2018 l 1,9,-1
 542 1804 l 1,10,11
 485 1740 485 1740 419 1695.5 c 128,-1,12
 353 1651 353 1651 291 1624 c 128,-1,13
 229 1597 229 1597 178.5 1586.5 c 128,-1,14
 128 1576 128 1576 104 1579 c 1,15,-1
 15 1665 l 1,8,-1
EndSplineSet
EndChar

StartChar: registered
Encoding: 174 174 171
Width: 1999
Flags: W
LayerCount: 2
Fore
SplineSet
984 316 m 0,0,1
 855 316 855 316 740 345 c 128,-1,2
 625 374 625 374 528 428 c 128,-1,3
 431 482 431 482 354 558.5 c 128,-1,4
 277 635 277 635 223 729.5 c 128,-1,5
 169 824 169 824 140 934 c 128,-1,6
 111 1044 111 1044 111 1166 c 256,7,8
 111 1288 111 1288 142 1398.5 c 128,-1,9
 173 1509 173 1509 229.5 1603.5 c 128,-1,10
 286 1698 286 1698 365 1774.5 c 128,-1,11
 444 1851 444 1851 541 1905 c 128,-1,12
 638 1959 638 1959 750 1988 c 128,-1,13
 862 2017 862 2017 984 2017 c 0,14,15
 1105 2017 1105 2017 1216.5 1988.5 c 128,-1,16
 1328 1960 1328 1960 1425 1907 c 128,-1,17
 1522 1854 1522 1854 1601.5 1778 c 128,-1,18
 1681 1702 1681 1702 1738 1607.5 c 128,-1,19
 1795 1513 1795 1513 1826 1401.5 c 128,-1,20
 1857 1290 1857 1290 1857 1166 c 0,21,22
 1857 1050 1857 1050 1826 941.5 c 128,-1,23
 1795 833 1795 833 1738 739 c 128,-1,24
 1681 645 1681 645 1601.5 567 c 128,-1,25
 1522 489 1522 489 1425 433 c 128,-1,26
 1328 377 1328 377 1216.5 346.5 c 128,-1,27
 1105 316 1105 316 984 316 c 0,0,1
983 471 m 0,28,29
 1077 471 1077 471 1165 495 c 128,-1,30
 1253 519 1253 519 1329 563.5 c 128,-1,31
 1405 608 1405 608 1468 670.5 c 128,-1,32
 1531 733 1531 733 1576 810 c 128,-1,33
 1621 887 1621 887 1645.5 977 c 128,-1,34
 1670 1067 1670 1067 1670 1166 c 256,35,36
 1670 1265 1670 1265 1645.5 1355.5 c 128,-1,37
 1621 1446 1621 1446 1576 1523.5 c 128,-1,38
 1531 1601 1531 1601 1468 1663.5 c 128,-1,39
 1405 1726 1405 1726 1329 1770 c 128,-1,40
 1253 1814 1253 1814 1165 1838 c 128,-1,41
 1077 1862 1077 1862 983 1862 c 0,42,43
 888 1862 888 1862 800 1838 c 128,-1,44
 712 1814 712 1814 636 1770 c 128,-1,45
 560 1726 560 1726 497.5 1663.5 c 128,-1,46
 435 1601 435 1601 390.5 1523.5 c 128,-1,47
 346 1446 346 1446 321.5 1355.5 c 128,-1,48
 297 1265 297 1265 297 1166 c 256,49,50
 297 1067 297 1067 322 977 c 128,-1,51
 347 887 347 887 392.5 810 c 128,-1,52
 438 733 438 733 501 670.5 c 128,-1,53
 564 608 564 608 640 563.5 c 128,-1,54
 716 519 716 519 803 495 c 128,-1,55
 890 471 890 471 983 471 c 0,28,29
527 831 m 1,56,-1
 605 869 l 1,57,-1
 605 1510 l 1,58,-1
 527 1537 l 1,59,-1
 527 1672 l 1,60,-1
 749 1672 l 1,61,62
 771 1671 771 1671 803.5 1671.5 c 128,-1,63
 836 1672 836 1672 873.5 1673 c 128,-1,64
 911 1674 911 1674 951.5 1675 c 128,-1,65
 992 1676 992 1676 1030 1676 c 0,66,67
 1224 1676 1224 1676 1326.5 1616 c 128,-1,68
 1429 1556 1429 1556 1432 1419 c 1,69,70
 1432 1371 1432 1371 1419.5 1319.5 c 128,-1,71
 1407 1268 1407 1268 1377.5 1226 c 128,-1,72
 1348 1184 1348 1184 1300.5 1157 c 128,-1,73
 1253 1130 1253 1130 1184 1130 c 1,74,75
 1239 1128 1239 1128 1273.5 1106 c 128,-1,76
 1308 1084 1308 1084 1330.5 1052 c 128,-1,77
 1353 1020 1353 1020 1368 983.5 c 128,-1,78
 1383 947 1383 947 1400 915.5 c 128,-1,79
 1417 884 1417 884 1440 863 c 128,-1,80
 1463 842 1463 842 1502 842 c 1,81,-1
 1502 713 l 1,82,-1
 1192 713 l 2,83,84
 1153 713 1153 713 1130.5 731.5 c 128,-1,85
 1108 750 1108 750 1093.5 780 c 128,-1,86
 1079 810 1079 810 1068.5 849 c 128,-1,87
 1058 888 1058 888 1041.5 928 c 128,-1,88
 1025 968 1025 968 998.5 1006.5 c 128,-1,89
 972 1045 972 1045 926 1075 c 1,90,-1
 926 853 l 1,91,-1
 997 831 l 1,92,-1
 997 710 l 1,93,-1
 527 710 l 1,94,-1
 527 831 l 1,56,-1
926 1236 m 1,95,96
 943 1231 943 1231 957.5 1230 c 128,-1,97
 972 1229 972 1229 998 1229 c 0,98,99
 1016 1229 1016 1229 1036 1235.5 c 128,-1,100
 1056 1242 1056 1242 1072 1259.5 c 128,-1,101
 1088 1277 1088 1277 1098.5 1305.5 c 128,-1,102
 1109 1334 1109 1334 1109 1377 c 0,103,104
 1109 1418 1109 1418 1101 1445 c 128,-1,105
 1093 1472 1093 1472 1074 1487.5 c 128,-1,106
 1055 1503 1055 1503 1022.5 1509.5 c 128,-1,107
 990 1516 990 1516 942 1516 c 0,108,109
 937 1516 937 1516 930 1513 c 128,-1,110
 923 1510 923 1510 926 1508 c 1,111,-1
 926 1236 l 1,95,96
EndSplineSet
EndChar

StartChar: copyright
Encoding: 169 169 172
Width: 1999
Flags: W
LayerCount: 2
Fore
SplineSet
984 316 m 0,0,1
 855 316 855 316 740 345 c 128,-1,2
 625 374 625 374 528 428 c 128,-1,3
 431 482 431 482 354 558.5 c 128,-1,4
 277 635 277 635 223 729.5 c 128,-1,5
 169 824 169 824 140 934 c 128,-1,6
 111 1044 111 1044 111 1166 c 256,7,8
 111 1288 111 1288 142 1398.5 c 128,-1,9
 173 1509 173 1509 229.5 1603.5 c 128,-1,10
 286 1698 286 1698 365 1774.5 c 128,-1,11
 444 1851 444 1851 541 1905 c 128,-1,12
 638 1959 638 1959 750 1988 c 128,-1,13
 862 2017 862 2017 984 2017 c 0,14,15
 1105 2017 1105 2017 1216.5 1988.5 c 128,-1,16
 1328 1960 1328 1960 1425 1907 c 128,-1,17
 1522 1854 1522 1854 1601.5 1778 c 128,-1,18
 1681 1702 1681 1702 1738 1607.5 c 128,-1,19
 1795 1513 1795 1513 1826 1401.5 c 128,-1,20
 1857 1290 1857 1290 1857 1166 c 0,21,22
 1857 1050 1857 1050 1826 941.5 c 128,-1,23
 1795 833 1795 833 1738 739 c 128,-1,24
 1681 645 1681 645 1601.5 567 c 128,-1,25
 1522 489 1522 489 1425 433 c 128,-1,26
 1328 377 1328 377 1216.5 346.5 c 128,-1,27
 1105 316 1105 316 984 316 c 0,0,1
983 471 m 0,28,29
 1077 471 1077 471 1165 495 c 128,-1,30
 1253 519 1253 519 1329 563.5 c 128,-1,31
 1405 608 1405 608 1468 670.5 c 128,-1,32
 1531 733 1531 733 1576 810 c 128,-1,33
 1621 887 1621 887 1645.5 977 c 128,-1,34
 1670 1067 1670 1067 1670 1166 c 256,35,36
 1670 1265 1670 1265 1645.5 1355.5 c 128,-1,37
 1621 1446 1621 1446 1576 1523.5 c 128,-1,38
 1531 1601 1531 1601 1468 1663.5 c 128,-1,39
 1405 1726 1405 1726 1329 1770 c 128,-1,40
 1253 1814 1253 1814 1165 1838 c 128,-1,41
 1077 1862 1077 1862 983 1862 c 0,42,43
 888 1862 888 1862 800 1838 c 128,-1,44
 712 1814 712 1814 636 1770 c 128,-1,45
 560 1726 560 1726 497.5 1663.5 c 128,-1,46
 435 1601 435 1601 390.5 1523.5 c 128,-1,47
 346 1446 346 1446 321.5 1355.5 c 128,-1,48
 297 1265 297 1265 297 1166 c 256,49,50
 297 1067 297 1067 322 977 c 128,-1,51
 347 887 347 887 392.5 810 c 128,-1,52
 438 733 438 733 501 670.5 c 128,-1,53
 564 608 564 608 640 563.5 c 128,-1,54
 716 519 716 519 803 495 c 128,-1,55
 890 471 890 471 983 471 c 0,28,29
984 683 m 0,56,57
 867 683 867 683 778 718.5 c 128,-1,58
 689 754 689 754 629 817 c 128,-1,59
 569 880 569 880 538.5 967 c 128,-1,60
 508 1054 508 1054 508 1158 c 0,61,62
 508 1250 508 1250 540 1335.5 c 128,-1,63
 572 1421 572 1421 630 1490.5 c 128,-1,64
 688 1560 688 1560 768 1609 c 128,-1,65
 848 1658 848 1658 944 1676 c 0,66,67
 997 1686 997 1686 1058 1686 c 1,68,69
 1113 1685 1113 1685 1154 1681.5 c 128,-1,70
 1195 1678 1195 1678 1225.5 1671.5 c 128,-1,71
 1256 1665 1256 1665 1279 1656 c 128,-1,72
 1302 1647 1302 1647 1323 1636 c 1,73,-1
 1323 1330 l 1,74,-1
 1133 1330 l 1,75,-1
 1065 1484 l 1,76,77
 1054 1494 1054 1494 1030.5 1497.5 c 128,-1,78
 1007 1501 1007 1501 987 1502 c 0,79,80
 911 1503 911 1503 876.5 1432.5 c 128,-1,81
 842 1362 842 1362 843 1223 c 0,82,83
 843 1143 843 1143 864.5 1085 c 128,-1,84
 886 1027 886 1027 919.5 989 c 128,-1,85
 953 951 953 951 995.5 932.5 c 128,-1,86
 1038 914 1038 914 1082 914 c 0,87,88
 1102 914 1102 914 1127.5 914.5 c 128,-1,89
 1153 915 1153 915 1181.5 919 c 128,-1,90
 1210 923 1210 923 1240 931.5 c 128,-1,91
 1270 940 1270 940 1300 956 c 1,92,-1
 1343 829 l 1,93,94
 1319 797 1319 797 1277.5 770 c 128,-1,95
 1236 743 1236 743 1186.5 723.5 c 128,-1,96
 1137 704 1137 704 1084.5 693.5 c 128,-1,97
 1032 683 1032 683 984 683 c 0,56,57
EndSplineSet
EndChar

StartChar: ordfeminine
Encoding: 170 170 173
Width: 1123
Flags: W
LayerCount: 2
Fore
SplineSet
412 680 m 0,0,1
 362 680 362 680 314 696 c 128,-1,2
 266 712 266 712 227.5 744 c 128,-1,3
 189 776 189 776 165.5 823 c 128,-1,4
 142 870 142 870 142 933 c 0,5,6
 142 993 142 993 170.5 1038.5 c 128,-1,7
 199 1084 199 1084 244.5 1116.5 c 128,-1,8
 290 1149 290 1149 347.5 1170.5 c 128,-1,9
 405 1192 405 1192 462.5 1204.5 c 128,-1,10
 520 1217 520 1217 572.5 1222 c 128,-1,11
 625 1227 625 1227 661 1227 c 1,12,-1
 661 1245 l 2,13,14
 661 1285 661 1285 648 1308.5 c 128,-1,15
 635 1332 635 1332 612 1345 c 128,-1,16
 589 1358 589 1358 556.5 1362 c 128,-1,17
 524 1366 524 1366 484 1366 c 0,18,19
 448 1366 448 1366 413 1361 c 128,-1,20
 378 1356 378 1356 347 1348.5 c 128,-1,21
 316 1341 316 1341 291.5 1331.5 c 128,-1,22
 267 1322 267 1322 254 1313 c 1,23,-1
 202 1462 l 1,24,25
 216 1471 216 1471 252 1484 c 128,-1,26
 288 1497 288 1497 340 1509 c 128,-1,27
 392 1521 392 1521 456 1530 c 128,-1,28
 520 1539 520 1539 591 1539 c 0,29,30
 639 1539 639 1539 686 1535 c 128,-1,31
 733 1531 733 1531 775 1520 c 128,-1,32
 817 1509 817 1509 853 1488.5 c 128,-1,33
 889 1468 889 1468 915 1435 c 128,-1,34
 941 1402 941 1402 955.5 1355 c 128,-1,35
 970 1308 970 1308 970 1243 c 2,36,-1
 968 833 l 1,37,-1
 1051 833 l 1,38,-1
 1051 727 l 1,39,40
 1029 722 1029 722 998.5 714 c 128,-1,41
 968 706 968 706 934 698.5 c 128,-1,42
 900 691 900 691 864.5 685.5 c 128,-1,43
 829 680 829 680 796 680 c 0,44,45
 775 680 775 680 756.5 683 c 128,-1,46
 738 686 738 686 722.5 694 c 128,-1,47
 707 702 707 702 695.5 717.5 c 128,-1,48
 684 733 684 733 677 758 c 1,49,50
 639 726 639 726 574 703 c 128,-1,51
 509 680 509 680 412 680 c 0,0,1
516 851 m 0,52,53
 545 842 545 842 579 844.5 c 128,-1,54
 613 847 613 847 662 861 c 1,55,-1
 659 876 l 1,56,-1
 660 1111 l 1,57,58
 627 1107 627 1107 588 1097.5 c 128,-1,59
 549 1088 549 1088 515.5 1071 c 128,-1,60
 482 1054 482 1054 459 1027 c 128,-1,61
 436 1000 436 1000 436 961 c 0,62,63
 436 946 436 946 440.5 929.5 c 128,-1,64
 445 913 445 913 454.5 898 c 128,-1,65
 464 883 464 883 479.5 870.5 c 128,-1,66
 495 858 495 858 516 851 c 0,52,53
EndSplineSet
EndChar

StartChar: ordmasculine
Encoding: 186 186 174
Width: 1123
Flags: W
LayerCount: 2
Fore
SplineSet
542 680 m 0,0,1
 315 679 315 679 206 789 c 128,-1,2
 97 899 97 899 100 1114 c 0,3,4
 101 1193 101 1193 120.5 1255 c 128,-1,5
 140 1317 140 1317 173 1364 c 128,-1,6
 206 1411 206 1411 250.5 1444 c 128,-1,7
 295 1477 295 1477 346 1498 c 128,-1,8
 397 1519 397 1519 452.5 1529.5 c 128,-1,9
 508 1540 508 1540 564 1541 c 0,10,11
 687 1544 687 1544 774.5 1513 c 128,-1,12
 862 1482 862 1482 917.5 1424.5 c 128,-1,13
 973 1367 973 1367 998.5 1285 c 128,-1,14
 1024 1203 1024 1203 1023 1104 c 0,15,16
 1021 986 1021 986 979 905.5 c 128,-1,17
 937 825 937 825 869 775 c 128,-1,18
 801 725 801 725 715.5 702.5 c 128,-1,19
 630 680 630 680 542 680 c 0,0,1
570 814 m 0,20,21
 606 814 606 814 633 825.5 c 128,-1,22
 660 837 660 837 678 868.5 c 128,-1,23
 696 900 696 900 705 955.5 c 128,-1,24
 714 1011 714 1011 714 1099 c 0,25,26
 714 1174 714 1174 702.5 1232.5 c 128,-1,27
 691 1291 691 1291 671.5 1330.5 c 128,-1,28
 652 1370 652 1370 625.5 1390.5 c 128,-1,29
 599 1411 599 1411 570 1411 c 0,30,31
 548 1411 548 1411 521 1400.5 c 128,-1,32
 494 1390 494 1390 471 1358.5 c 128,-1,33
 448 1327 448 1327 432 1269.5 c 128,-1,34
 416 1212 416 1212 416 1117 c 0,35,36
 416 1040 416 1040 428.5 983 c 128,-1,37
 441 926 441 926 462.5 888.5 c 128,-1,38
 484 851 484 851 512 832.5 c 128,-1,39
 540 814 540 814 570 814 c 0,20,21
EndSplineSet
EndChar

StartChar: paragraph
Encoding: 182 182 175
Width: 1320
Flags: W
LayerCount: 2
Fore
SplineSet
314 143 m 1,0,-1
 525 192 l 1,1,-1
 525 656 l 1,2,3
 427 656 427 656 338.5 682.5 c 128,-1,4
 250 709 250 709 182 764.5 c 128,-1,5
 114 820 114 820 74 905 c 128,-1,6
 34 990 34 990 34 1107 c 0,7,8
 34 1209 34 1209 63.5 1291.5 c 128,-1,9
 93 1374 93 1374 160 1431.5 c 128,-1,10
 227 1489 227 1489 334 1520 c 128,-1,11
 441 1551 441 1551 596 1551 c 0,12,13
 632 1551 632 1551 694 1548.5 c 128,-1,14
 756 1546 756 1546 825.5 1542.5 c 128,-1,15
 895 1539 895 1539 961.5 1535.5 c 128,-1,16
 1028 1532 1028 1532 1073 1531 c 1,17,-1
 1267 1531 l 1,18,-1
 1267 1362 l 1,19,-1
 1087 1303 l 1,20,-1
 1087 192 l 1,21,-1
 1271 143 l 1,22,-1
 1271 0 l 1,23,-1
 864 0 l 1,24,-1
 862 1339 l 1,25,-1
 768 1339 l 1,26,-1
 768 0 l 1,27,-1
 314 0 l 1,28,-1
 314 143 l 1,0,-1
EndSplineSet
EndChar

StartChar: section
Encoding: 167 167 176
Width: 1289
Flags: W
LayerCount: 2
Fore
SplineSet
267 163 m 1,0,-1
 364 -43 l 2,1,2
 380 -75 380 -75 405.5 -95 c 128,-1,3
 431 -115 431 -115 461.5 -126 c 128,-1,4
 492 -137 492 -137 525.5 -141.5 c 128,-1,5
 559 -146 559 -146 591 -146 c 0,6,7
 636 -146 636 -146 676.5 -136.5 c 128,-1,8
 717 -127 717 -127 748 -108 c 128,-1,9
 779 -89 779 -89 797 -60.5 c 128,-1,10
 815 -32 815 -32 815 6 c 0,11,12
 815 60 815 60 783 101 c 128,-1,13
 751 142 751 142 698.5 176.5 c 128,-1,14
 646 211 646 211 579.5 241.5 c 128,-1,15
 513 272 513 272 443 304 c 128,-1,16
 373 336 373 336 306.5 373.5 c 128,-1,17
 240 411 240 411 187.5 459 c 128,-1,18
 135 507 135 507 103 568 c 128,-1,19
 71 629 71 629 71 710 c 0,20,21
 71 751 71 751 84 796.5 c 128,-1,22
 97 842 97 842 120.5 886 c 128,-1,23
 144 930 144 930 175.5 969.5 c 128,-1,24
 207 1009 207 1009 244 1037 c 1,25,26
 179 1088 179 1088 138 1152.5 c 128,-1,27
 97 1217 97 1217 97 1303 c 0,28,29
 97 1372 97 1372 119 1430 c 128,-1,30
 141 1488 141 1488 180 1534.5 c 128,-1,31
 219 1581 219 1581 271.5 1616 c 128,-1,32
 324 1651 324 1651 386 1674.5 c 128,-1,33
 448 1698 448 1698 515.5 1710 c 128,-1,34
 583 1722 583 1722 651 1722 c 0,35,36
 718 1722 718 1722 777.5 1716 c 128,-1,37
 837 1710 837 1710 886.5 1700.5 c 128,-1,38
 936 1691 936 1691 974 1678.5 c 128,-1,39
 1012 1666 1012 1666 1036 1653 c 1,40,-1
 1036 1346 l 1,41,-1
 894 1346 l 1,42,-1
 772 1517 l 2,43,44
 758 1535 758 1535 723.5 1551 c 128,-1,45
 689 1567 689 1567 624 1567 c 0,46,47
 596 1567 596 1567 563 1557.5 c 128,-1,48
 530 1548 530 1548 501.5 1525.5 c 128,-1,49
 473 1503 473 1503 453.5 1466 c 128,-1,50
 434 1429 434 1429 434 1374 c 0,51,52
 434 1324 434 1324 463.5 1286.5 c 128,-1,53
 493 1249 493 1249 542 1218.5 c 128,-1,54
 591 1188 591 1188 654 1160.5 c 128,-1,55
 717 1133 717 1133 782.5 1103 c 128,-1,56
 848 1073 848 1073 910.5 1036.5 c 128,-1,57
 973 1000 973 1000 1022 951 c 128,-1,58
 1071 902 1071 902 1101 837.5 c 128,-1,59
 1131 773 1131 773 1130 687 c 0,60,61
 1129 593 1129 593 1093 509.5 c 128,-1,62
 1057 426 1057 426 998 369 c 1,63,64
 1033 344 1033 344 1062.5 316 c 128,-1,65
 1092 288 1092 288 1113.5 255.5 c 128,-1,66
 1135 223 1135 223 1147 185.5 c 128,-1,67
 1159 148 1159 148 1159 105 c 0,68,69
 1159 -13 1159 -13 1113.5 -93.5 c 128,-1,70
 1068 -174 1068 -174 992.5 -223 c 128,-1,71
 917 -272 917 -272 817.5 -293.5 c 128,-1,72
 718 -315 718 -315 609 -315 c 0,73,74
 530 -315 530 -315 453 -308 c 128,-1,75
 376 -301 376 -301 310.5 -289.5 c 128,-1,76
 245 -278 245 -278 196 -264.5 c 128,-1,77
 147 -251 147 -251 124 -238 c 1,78,-1
 124 163 l 1,79,-1
 267 163 l 1,0,-1
365 781 m 0,80,81
 365 726 365 726 405 684 c 128,-1,82
 445 642 445 642 509.5 606.5 c 128,-1,83
 574 571 574 571 654.5 538 c 128,-1,84
 735 505 735 505 816 468 c 1,85,86
 830 496 830 496 840.5 529 c 128,-1,87
 851 562 851 562 851 588 c 0,88,89
 851 648 851 648 811 694.5 c 128,-1,90
 771 741 771 741 707.5 781 c 128,-1,91
 644 821 644 821 565.5 857.5 c 128,-1,92
 487 894 487 894 409 935 c 1,93,94
 391 906 391 906 378 866 c 128,-1,95
 365 826 365 826 365 781 c 0,80,81
EndSplineSet
EndChar

StartChar: Agrave
Encoding: 192 192 177
Width: 1561
Flags: W
LayerCount: 2
Fore
SplineSet
711 1606 m 1,0,1
 697 1602 697 1602 667.5 1609 c 128,-1,2
 638 1616 638 1616 600 1631.5 c 128,-1,3
 562 1647 562 1647 520.5 1669.5 c 128,-1,4
 479 1692 479 1692 441.5 1719.5 c 128,-1,5
 404 1747 404 1747 374.5 1777.5 c 128,-1,6
 345 1808 345 1808 332 1839 c 1,7,-1
 520 2022 l 1,8,-1
 825 1721 l 1,9,-1
 711 1606 l 1,0,1
8 140 m 1,10,-1
 134 179 l 1,11,-1
 597 1531 l 1,12,-1
 930 1531 l 1,13,-1
 1396 178 l 1,14,-1
 1548 138 l 1,15,-1
 1548 0 l 1,16,-1
 864 0 l 1,17,-1
 864 138 l 1,18,-1
 999 184 l 1,19,-1
 957 335 l 1,20,-1
 454 335 l 1,21,-1
 412 188 l 1,22,-1
 568 140 l 1,23,-1
 568 0 l 1,24,-1
 8 0 l 1,25,-1
 8 140 l 1,10,-1
902 531 m 1,26,-1
 781 967 l 1,27,-1
 708 1241 l 1,28,-1
 509 531 l 1,29,-1
 902 531 l 1,26,-1
EndSplineSet
EndChar

StartChar: Aacute
Encoding: 193 193 178
Width: 1561
Flags: W
LayerCount: 2
Fore
SplineSet
595 1721 m 1,0,-1
 900 2022 l 1,1,-1
 1088 1839 l 1,2,3
 1075 1808 1075 1808 1045.5 1777 c 128,-1,4
 1016 1746 1016 1746 978.5 1719 c 128,-1,5
 941 1692 941 1692 899.5 1669 c 128,-1,6
 858 1646 858 1646 820 1630.5 c 128,-1,7
 782 1615 782 1615 752.5 1608 c 128,-1,8
 723 1601 723 1601 709 1606 c 1,9,-1
 595 1721 l 1,0,-1
8 140 m 1,10,-1
 134 179 l 1,11,-1
 597 1531 l 1,12,-1
 930 1531 l 1,13,-1
 1396 178 l 1,14,-1
 1548 138 l 1,15,-1
 1548 0 l 1,16,-1
 864 0 l 1,17,-1
 864 138 l 1,18,-1
 999 184 l 1,19,-1
 957 335 l 1,20,-1
 454 335 l 1,21,-1
 412 188 l 1,22,-1
 568 140 l 1,23,-1
 568 0 l 1,24,-1
 8 0 l 1,25,-1
 8 140 l 1,10,-1
902 531 m 1,26,-1
 781 967 l 1,27,-1
 708 1241 l 1,28,-1
 509 531 l 1,29,-1
 902 531 l 1,26,-1
EndSplineSet
EndChar

StartChar: Acircumflex
Encoding: 194 194 179
Width: 1561
Flags: W
LayerCount: 2
Fore
SplineSet
354 1670 m 1,0,-1
 639 1955 l 1,1,-1
 931 1955 l 1,2,-1
 1193 1670 l 1,3,-1
 1049 1597 l 1,4,-1
 773 1746 l 1,5,-1
 485 1597 l 1,6,-1
 354 1670 l 1,0,-1
8 140 m 1,7,-1
 134 179 l 1,8,-1
 597 1531 l 1,9,-1
 930 1531 l 1,10,-1
 1396 178 l 1,11,-1
 1548 138 l 1,12,-1
 1548 0 l 1,13,-1
 864 0 l 1,14,-1
 864 138 l 1,15,-1
 999 184 l 1,16,-1
 957 335 l 1,17,-1
 454 335 l 1,18,-1
 412 188 l 1,19,-1
 568 140 l 1,20,-1
 568 0 l 1,21,-1
 8 0 l 1,22,-1
 8 140 l 1,7,-1
902 531 m 1,23,-1
 781 967 l 1,24,-1
 708 1241 l 1,25,-1
 509 531 l 1,26,-1
 902 531 l 1,23,-1
EndSplineSet
EndChar

StartChar: Atilde
Encoding: 195 195 180
Width: 1561
Flags: W
LayerCount: 2
Fore
SplineSet
324 1810 m 1,0,1
 340 1854 340 1854 377.5 1892 c 128,-1,2
 415 1930 415 1930 460 1958 c 128,-1,3
 505 1986 505 1986 551 2002 c 128,-1,4
 597 2018 597 2018 632 2018 c 0,5,6
 687 2018 687 2018 727.5 2002.5 c 128,-1,7
 768 1987 768 1987 801.5 1968 c 128,-1,8
 835 1949 835 1949 864 1933.5 c 128,-1,9
 893 1918 893 1918 925 1918 c 0,10,11
 978 1918 978 1918 1018 1940.5 c 128,-1,12
 1058 1963 1058 1963 1091 1989 c 1,13,-1
 1180 1872 l 1,14,15
 1163 1828 1163 1828 1127 1789.5 c 128,-1,16
 1091 1751 1091 1751 1047.5 1722.5 c 128,-1,17
 1004 1694 1004 1694 959 1677.5 c 128,-1,18
 914 1661 914 1661 879 1661 c 0,19,20
 825 1661 825 1661 783 1677 c 128,-1,21
 741 1693 741 1693 706.5 1712.5 c 128,-1,22
 672 1732 672 1732 641.5 1748 c 128,-1,23
 611 1764 611 1764 579 1764 c 0,24,25
 557 1764 557 1764 534.5 1757.5 c 128,-1,26
 512 1751 512 1751 490.5 1740.5 c 128,-1,27
 469 1730 469 1730 449 1717.5 c 128,-1,28
 429 1705 429 1705 411 1692 c 1,29,-1
 324 1810 l 1,0,1
8 140 m 1,30,-1
 134 179 l 1,31,-1
 597 1531 l 1,32,-1
 930 1531 l 1,33,-1
 1396 178 l 1,34,-1
 1548 138 l 1,35,-1
 1548 0 l 1,36,-1
 864 0 l 1,37,-1
 864 138 l 1,38,-1
 999 184 l 1,39,-1
 957 335 l 1,40,-1
 454 335 l 1,41,-1
 412 188 l 1,42,-1
 568 140 l 1,43,-1
 568 0 l 1,44,-1
 8 0 l 1,45,-1
 8 140 l 1,30,-1
902 531 m 1,46,-1
 781 967 l 1,47,-1
 708 1241 l 1,48,-1
 509 531 l 1,49,-1
 902 531 l 1,46,-1
EndSplineSet
EndChar

StartChar: Adieresis
Encoding: 196 196 181
Width: 1561
Flags: W
LayerCount: 2
Fore
SplineSet
1064 1617 m 0,0,1
 1028 1617 1028 1617 994.5 1629 c 128,-1,2
 961 1641 961 1641 935 1664 c 128,-1,3
 909 1687 909 1687 893.5 1721 c 128,-1,4
 878 1755 878 1755 878 1799 c 0,5,6
 878 1845 878 1845 896.5 1883.5 c 128,-1,7
 915 1922 915 1922 945 1950 c 128,-1,8
 975 1978 975 1978 1013 1993.5 c 128,-1,9
 1051 2009 1051 2009 1090 2009 c 0,10,11
 1140 2009 1140 2009 1175 1995 c 128,-1,12
 1210 1981 1210 1981 1232 1957 c 128,-1,13
 1254 1933 1254 1933 1264 1900 c 128,-1,14
 1274 1867 1274 1867 1274 1829 c 0,15,16
 1274 1780 1274 1780 1256.5 1741 c 128,-1,17
 1239 1702 1239 1702 1210 1674.5 c 128,-1,18
 1181 1647 1181 1647 1143 1632 c 128,-1,19
 1105 1617 1105 1617 1064 1617 c 0,0,1
544 1616 m 0,20,21
 507 1616 507 1616 473.5 1627.5 c 128,-1,22
 440 1639 440 1639 415 1662 c 128,-1,23
 390 1685 390 1685 375.5 1718 c 128,-1,24
 361 1751 361 1751 361 1795 c 0,25,26
 361 1842 361 1842 379 1881 c 128,-1,27
 397 1920 397 1920 427 1948.5 c 128,-1,28
 457 1977 457 1977 495 1993 c 128,-1,29
 533 2009 533 2009 572 2009 c 0,30,31
 622 2009 622 2009 657.5 1995 c 128,-1,32
 693 1981 693 1981 716 1956.5 c 128,-1,33
 739 1932 739 1932 750 1899 c 128,-1,34
 761 1866 761 1866 761 1827 c 0,35,36
 761 1779 761 1779 743 1740 c 128,-1,37
 725 1701 725 1701 694.5 1673.5 c 128,-1,38
 664 1646 664 1646 625 1631 c 128,-1,39
 586 1616 586 1616 544 1616 c 0,20,21
8 140 m 1,40,-1
 134 179 l 1,41,-1
 597 1531 l 1,42,-1
 930 1531 l 1,43,-1
 1396 178 l 1,44,-1
 1548 138 l 1,45,-1
 1548 0 l 1,46,-1
 864 0 l 1,47,-1
 864 138 l 1,48,-1
 999 184 l 1,49,-1
 957 335 l 1,50,-1
 454 335 l 1,51,-1
 412 188 l 1,52,-1
 568 140 l 1,53,-1
 568 0 l 1,54,-1
 8 0 l 1,55,-1
 8 140 l 1,40,-1
902 531 m 1,56,-1
 781 967 l 1,57,-1
 708 1241 l 1,58,-1
 509 531 l 1,59,-1
 902 531 l 1,56,-1
EndSplineSet
EndChar

StartChar: Aring
Encoding: 197 197 182
Width: 1561
Flags: W
LayerCount: 2
Fore
SplineSet
8 140 m 1,0,-1
 134 179 l 1,1,-1
 587 1503 l 1,2,3
 529 1541 529 1541 494.5 1600 c 128,-1,4
 460 1659 460 1659 460 1730 c 0,5,6
 460 1787 460 1787 483 1837 c 128,-1,7
 506 1887 506 1887 546 1924.5 c 128,-1,8
 586 1962 586 1962 639.5 1983.5 c 128,-1,9
 693 2005 693 2005 753 2005 c 0,10,11
 814 2005 814 2005 868 1982.5 c 128,-1,12
 922 1960 922 1960 962 1922 c 128,-1,13
 1002 1884 1002 1884 1025 1834.5 c 128,-1,14
 1048 1785 1048 1785 1048 1730 c 0,15,16
 1048 1664 1048 1664 1017.5 1608 c 128,-1,17
 987 1552 987 1552 936 1514 c 1,18,-1
 1396 178 l 1,19,-1
 1548 138 l 1,20,-1
 1548 0 l 1,21,-1
 864 0 l 1,22,-1
 864 138 l 1,23,-1
 999 184 l 1,24,-1
 957 335 l 1,25,-1
 454 335 l 1,26,-1
 412 188 l 1,27,-1
 568 140 l 1,28,-1
 568 0 l 1,29,-1
 8 0 l 1,30,-1
 8 140 l 1,0,-1
753 1597 m 0,31,32
 781 1597 781 1597 805 1607 c 128,-1,33
 829 1617 829 1617 847 1634.5 c 128,-1,34
 865 1652 865 1652 875 1676.5 c 128,-1,35
 885 1701 885 1701 885 1730 c 0,36,37
 885 1757 885 1757 875 1781.5 c 128,-1,38
 865 1806 865 1806 847 1824.5 c 128,-1,39
 829 1843 829 1843 805 1853.5 c 128,-1,40
 781 1864 781 1864 753 1864 c 0,41,42
 723 1864 723 1864 698.5 1854 c 128,-1,43
 674 1844 674 1844 656.5 1826 c 128,-1,44
 639 1808 639 1808 629.5 1783.5 c 128,-1,45
 620 1759 620 1759 620 1730 c 256,46,47
 620 1701 620 1701 629.5 1676.5 c 128,-1,48
 639 1652 639 1652 656.5 1634.5 c 128,-1,49
 674 1617 674 1617 698.5 1607 c 128,-1,50
 723 1597 723 1597 753 1597 c 0,31,32
902 531 m 1,51,-1
 781 967 l 1,52,-1
 708 1241 l 1,53,-1
 509 531 l 1,54,-1
 902 531 l 1,51,-1
EndSplineSet
EndChar

StartChar: Aogonek
Encoding: 260 260 183
Width: 1551
Flags: W
LayerCount: 2
Fore
SplineSet
3 140 m 1,0,-1
 129 179 l 1,1,-1
 592 1531 l 1,2,-1
 925 1531 l 1,3,-1
 1391 178 l 1,4,-1
 1543 138 l 1,5,-1
 1543 0 l 1,6,-1
 1522 0 l 1,7,8
 1466 -19 1466 -19 1417 -45 c 128,-1,9
 1368 -71 1368 -71 1330.5 -98 c 128,-1,10
 1293 -125 1293 -125 1268.5 -150.5 c 128,-1,11
 1244 -176 1244 -176 1236 -195 c 0,12,13
 1222 -228 1222 -228 1224 -248 c 128,-1,14
 1226 -268 1226 -268 1237.5 -279 c 128,-1,15
 1249 -290 1249 -290 1266 -294 c 128,-1,16
 1283 -298 1283 -298 1300 -298 c 0,17,18
 1325 -299 1325 -299 1358 -291.5 c 128,-1,19
 1391 -284 1391 -284 1421 -274 c 128,-1,20
 1451 -264 1451 -264 1473 -255 c 128,-1,21
 1495 -246 1495 -246 1498 -244 c 1,22,-1
 1533 -378 l 1,23,24
 1516 -393 1516 -393 1485.5 -416 c 128,-1,25
 1455 -439 1455 -439 1405.5 -461 c 128,-1,26
 1356 -483 1356 -483 1285.5 -498.5 c 128,-1,27
 1215 -514 1215 -514 1119 -514 c 0,28,29
 1047 -514 1047 -514 1002.5 -491.5 c 128,-1,30
 958 -469 958 -469 935 -436 c 128,-1,31
 912 -403 912 -403 907.5 -365.5 c 128,-1,32
 903 -328 903 -328 910 -298 c 0,33,34
 918 -265 918 -265 947.5 -224.5 c 128,-1,35
 977 -184 977 -184 1023 -142.5 c 128,-1,36
 1069 -101 1069 -101 1127.5 -63.5 c 128,-1,37
 1186 -26 1186 -26 1251 0 c 1,38,-1
 859 0 l 1,39,-1
 859 138 l 1,40,-1
 994 184 l 1,41,-1
 952 335 l 1,42,-1
 449 335 l 1,43,-1
 407 188 l 1,44,-1
 563 140 l 1,45,-1
 563 0 l 1,46,-1
 3 0 l 1,47,-1
 3 140 l 1,0,-1
897 531 m 1,48,-1
 776 967 l 1,49,-1
 703 1241 l 1,50,-1
 504 531 l 1,51,-1
 897 531 l 1,48,-1
EndSplineSet
EndChar

StartChar: AE
Encoding: 198 198 184
Width: 2061
Flags: W
LayerCount: 2
Fore
SplineSet
12 141 m 1,0,-1
 111 171 l 1,1,-1
 653 1531 l 1,2,-1
 1780 1531 l 1,3,-1
 1812 1209 l 1,4,-1
 1619 1209 l 1,5,-1
 1558 1338 l 1,6,-1
 1055 1361 l 1,7,-1
 1188 898 l 1,8,-1
 1501 905 l 1,9,-1
 1538 1055 l 1,10,-1
 1697 1055 l 1,11,-1
 1697 560 l 1,12,-1
 1537 560 l 1,13,-1
 1498 704 l 1,14,-1
 1238 720 l 1,15,-1
 1398 161 l 1,16,-1
 1599 178 l 1,17,-1
 1710 366 l 1,18,-1
 1914 332 l 1,19,-1
 1863 0 l 1,20,-1
 864 0 l 1,21,-1
 864 140 l 1,22,-1
 1025 182 l 1,23,-1
 988 336 l 1,24,-1
 425 336 l 1,25,-1
 366 182 l 1,26,-1
 542 141 l 1,27,-1
 542 0 l 1,28,-1
 12 0 l 1,29,-1
 12 141 l 1,0,-1
942 531 m 1,30,-1
 809 1090 l 1,31,-1
 771 1240 l 1,32,-1
 499 531 l 1,33,-1
 942 531 l 1,30,-1
EndSplineSet
EndChar

